<mxfile host="Electron" agent="Mozilla/5.0 (Windows NT 10.0; Win64; x64) AppleWebKit/537.36 (KHTML, like Gecko) draw.io/26.0.9 Chrome/128.0.6613.186 Electron/32.2.5 Safari/537.36" version="26.0.9" pages="5">
  <diagram name="before" id="XViYUZr951TFL5PuE9I8">
    <mxGraphModel dx="2474" dy="1196" grid="0" gridSize="10" guides="1" tooltips="1" connect="1" arrows="1" fold="1" page="0" pageScale="1" pageWidth="850" pageHeight="1100" math="0" shadow="0">
      <root>
        <mxCell id="0" />
        <mxCell id="1" parent="0" />
        <mxCell id="KyEwwN5RWtPKnTigqy45-7" value="" style="rounded=1;whiteSpace=wrap;html=1;fillColor=#dae8fc;strokeColor=#6c8ebf;" vertex="1" parent="1">
          <mxGeometry x="206.5" y="274" width="282.5" height="159" as="geometry" />
        </mxCell>
        <mxCell id="KyEwwN5RWtPKnTigqy45-8" value="" style="rounded=1;whiteSpace=wrap;html=1;fillColor=#dae8fc;strokeColor=#6c8ebf;" vertex="1" parent="1">
          <mxGeometry x="212" y="505" width="642" height="166" as="geometry" />
        </mxCell>
        <mxCell id="KyEwwN5RWtPKnTigqy45-32" value="Hub to hub&lt;div&gt;connectivity&lt;/div&gt;" style="edgeStyle=orthogonalEdgeStyle;rounded=0;orthogonalLoop=1;jettySize=auto;html=1;endArrow=none;startFill=0;dashed=1;dashPattern=8 8;labelBackgroundColor=none;" edge="1" parent="1" source="KyEwwN5RWtPKnTigqy45-6" target="KyEwwN5RWtPKnTigqy45-30">
          <mxGeometry relative="1" as="geometry" />
        </mxCell>
        <mxCell id="KyEwwN5RWtPKnTigqy45-6" value="" style="rounded=0;whiteSpace=wrap;html=1;" vertex="1" parent="1">
          <mxGeometry x="264" y="535" width="186" height="72" as="geometry" />
        </mxCell>
        <mxCell id="KyEwwN5RWtPKnTigqy45-2" value="vwan" style="shape=image;verticalLabelPosition=middle;labelBackgroundColor=none;verticalAlign=middle;aspect=fixed;imageAspect=0;editableCssRules=.*;image=data:image/svg+xml,PHN2ZyB4bWxucz0iaHR0cDovL3d3dy53My5vcmcvMjAwMC9zdmciIHZpZXdCb3g9IjAgMCAxOCAxOCIgaGVpZ2h0PSIxOCIgd2lkdGg9IjE4Ij48ZGVmcz48bGluZWFyR3JhZGllbnQgZ3JhZGllbnRVbml0cz0idXNlclNwYWNlT25Vc2UiIHkyPSI3LjAxOSIgeDI9IjkiIHkxPSIxMy40OCIgeDE9IjkiIGlkPSJmOTBjZTNiOS05OTE2LTQ2ZDItOGZlZC0wMzc4YjNiMDRkZTYiPjxzdG9wIHN0b3AtY29sb3I9IiMwMDc4ZDQiIG9mZnNldD0iMCIvPjxzdG9wIHN0b3AtY29sb3I9IiM1ZWEwZWYiIG9mZnNldD0iMC43NzUiLz48L2xpbmVhckdyYWRpZW50PjxsaW5lYXJHcmFkaWVudCBncmFkaWVudFVuaXRzPSJ1c2VyU3BhY2VPblVzZSIgeTI9IjEwLjQ5NSIgeDI9IjkuMDE3IiB5MT0iOS41MTgiIHgxPSI5LjAxNyIgaWQ9ImIwZTI1YjViLTY5YmEtNDI2Mi1iODc0LTMzNDBkMWUzMTFmMCI+PHN0b3Agc3RvcC1jb2xvcj0iI2ZmZiIgb2Zmc2V0PSIwIi8+PHN0b3Agc3RvcC1vcGFjaXR5PSIwLjYiIHN0b3AtY29sb3I9IiNmZmYiIG9mZnNldD0iMSIvPjwvbGluZWFyR3JhZGllbnQ+PC9kZWZzPjxnIGlkPSJhMTAxZDNiZS05NDE4LTQyODItOTM3Mi02ODEyYjMwNDAxM2IiPjxwb2x5Z29uIGZpbGw9IiM5Y2ViZmYiIHBvaW50cz0iMTQuMjg4IDkuNDUzIDE0LjI4OCA5LjQ1OSAxNi45OTMgOS4zOTcgMTYuOTc0IDguNTUzIDE0LjI4NiA4LjYxNSAxNC4yODYgOC41OTkgMTIuMDQyIDguMzQxIDEyLjA0MiA1Ljg5OSAxMi4wMzYgNS44ODggMTMuNjI0IDEuODI2IDEyLjgzNiAxLjUyNCAxMS4yMzcgNS42MTMgMTEuMjM5IDUuNjE0IDkuNTIxIDcuNTk3IDYuODE1IDUuNTk3IDYuNzggNS41NjggNS4xOTggMS41MjQgNC40MSAxLjgyNiA2LjAxIDUuOTE2IDYuMDMxIDUuOTA4IDcuNDgyIDkuMDgzIDMuOTk2IDguNTk5IDMuOTc5IDguNjI3IDMuOTc5IDguNjE1IDEuMzA0IDguNTUzIDEuMjg0IDkuMzk3IDMuOTU5IDkuNDU5IDMuOTY2IDkuMTcgNS43MzMgOS43MzMgNi4wODQgMTAuOTIzIDYuMDUgMTIuMjkxIDQuNDUgMTYuMzggNS4yMzggMTYuNjgzIDYuODM4IDEyLjU5MyA2LjcwOCAxMi41NDMgNy45NjkgMTEuMzE5IDExLjI1NCAxMi4wOTYgMTEuNjY1IDEyLjQ0NCAxMS4yNzcgMTIuNTkzIDEyLjg3NiAxNi42ODMgMTMuNjY0IDE2LjM4IDEyLjA2NSAxMi4yOTEgMTIuMDM2IDEyLjMwMiAxMi4yNzEgMTAuNjAxIDE0LjI4OCA5LjQ1MyIvPjxwYXRoIGZpbGw9IiM4NmQ2MzMiIGQ9Ik0xOCw5LjAzN2ExLjI5NCwxLjI5NCwwLDEsMS0xLjI5NC0xLjI5NEExLjI5NCwxLjI5NCwwLDAsMSwxOCw5LjAzN1pNMS4yOTQsNy43NDNBMS4yOTQsMS4yOTQsMCwxLDAsMi41ODgsOS4wMzcsMS4yOTQsMS4yOTQsMCwwLDAsMS4yOTQsNy43NDNabTMuNDc5LDcuNjQ2YTEuMjk0LDEuMjk0LDAsMSwwLDEuMjkzLDEuMjk0QTEuMjk0LDEuMjk0LDAsMCwwLDQuNzczLDE1LjM4OVptOC42OCwwYTEuMjk0LDEuMjk0LDAsMSwwLDEuMjkzLDEuMjk0QTEuMjk0LDEuMjk0LDAsMCwwLDEzLjQ1MywxNS4zODlaTTQuNjMyLjAyNEExLjI5NCwxLjI5NCwwLDEsMCw1LjkyNiwxLjMxNywxLjI5MywxLjI5MywwLDAsMCw0LjYzMi4wMjRabTguOTE2LDBhMS4yOTQsMS4yOTQsMCwxLDAsMS4yOTMsMS4yOTNBMS4yOTMsMS4yOTMsMCwwLDAsMTMuNTQ4LjAyNFoiLz48cGF0aCBmaWxsPSJ1cmwoI2Y5MGNlM2I5LTk5MTYtNDZkMi04ZmVkLTAzNzhiM2IwNGRlNikiIGQ9Ik0zLjUzMyw3LjAxOUgxNC40NjdhMCwwLDAsMCwxLDAsMHY2LjFhLjM2NS4zNjUsMCwwLDEtLjM2NS4zNjVIMy45YS4zNjUuMzY1LDAsMCwxLS4zNjUtLjM2NXYtNi4xQTAsMCwwLDAsMSwzLjUzMyw3LjAxOVoiLz48cGF0aCBmaWxsPSIjMDA3OGQ0IiBkPSJNMy45LDQuNjg5SDE0LjFhLjM2NS4zNjUsMCwwLDEsLjM2NS4zNjVWNy4wMTlhMCwwLDAsMCwxLDAsMEgzLjUzNWEwLDAsMCwwLDEsMCwwVjUuMDU0QS4zNjUuMzY1LDAsMCwxLDMuOSw0LjY4OVoiLz48cGF0aCBmaWxsPSJ1cmwoI2IwZTI1YjViLTY5YmEtNDI2Mi1iODc0LTMzNDBkMWUzMTFmMCkiIGQ9Ik0xMC41Nyw5LjUxNWEuNDg3LjQ4NywwLDEsMS0uNDg3LjQ4N0EuNDg3LjQ4NywwLDAsMSwxMC41Nyw5LjUxNVptLTIuMDM5LjQ5MWEuNDg3LjQ4NywwLDEsMCwuNDg2LS40ODdBLjQ4Ny40ODcsMCwwLDAsOC41MzEsMTAuMDA2Wm0tMS41NTMsMGEuNDg3LjQ4NywwLDEsMCwuNDg3LS40ODdBLjQ4Ny40ODcsMCwwLDAsNi45NzgsMTAuMDA2WiIvPjxwYXRoIGZpbGw9IiNmZmYiIGQ9Ik03LjgxOCwxMS45NTJsLS4yNzguMjc5YS4xMjYuMTI2LDAsMCwxLS4xNzgsMGgwTDUuMywxMC4xNzVhLjI1MS4yNTEsMCwwLDEsMC0uMzU2aDBsLjI3OC0uMjc5aDBsMi4yNCwyLjIzNGEuMTI2LjEyNiwwLDAsMSwwLC4xNzhabTQuNjA1LTIuNDE2LTIuMjQsMi4yMzRoMGEuMTI1LjEyNSwwLDAsMCwwLC4xNzhsLjI3OS4yNzloMGEuMTI1LjEyNSwwLDAsMCwuMTc4LDBMMTIuNywxMC4xNzFoMGEuMjUyLjI1MiwwLDAsMCwwLS4zNTZsLS4yNzgtLjI3OVoiLz48cGF0aCBvcGFjaXR5PSIwLjgiIGZpbGw9IiNmZmYiIGQ9Ik03LjUsNy43ODZsLjI3OS4yNzhhLjEyNi4xMjYsMCwwLDEsMCwuMTc4bC0yLjIsMi4yMDhoMEw1LjMsMTAuMTcxYS4yNTEuMjUxLDAsMCwxLDAtLjM1NmgwTDcuMzIsNy43ODZBLjEyNi4xMjYsMCwwLDEsNy41LDcuNzg2Wm01LjIsMi4zNzloMGEuMjUxLjI1MSwwLDAsMCwwLS4zNTZMMTAuNjgsNy43OGgwYS4xMjYuMTI2LDAsMCwwLS4xNzgsMGwtLjI4Mi4yODJoMGEuMTI2LjEyNiwwLDAsMCwwLC4xNzhsMi4yLDIuMjA3aDBsLjI3OS0uMjc5WiIvPjwvZz48L3N2Zz4=;labelPosition=left;align=right;spacingRight=5;" vertex="1" parent="1">
          <mxGeometry x="185" y="477" width="67" height="67" as="geometry" />
        </mxCell>
        <mxCell id="KyEwwN5RWtPKnTigqy45-3" value="hub-norwayeast&#xa;10.9.0.0/23" style="shape=image;verticalLabelPosition=bottom;labelBackgroundColor=none;verticalAlign=top;aspect=fixed;imageAspect=0;editableCssRules=.*;image=data:image/svg+xml,PHN2ZyB4bWxucz0iaHR0cDovL3d3dy53My5vcmcvMjAwMC9zdmciIHZpZXdCb3g9IjAgMCAxOCAxOCIgaGVpZ2h0PSIxOCIgd2lkdGg9IjE4IiBpZD0iYTUxMGExMjAtZThhZi00ZmUwLTgzMWUtNjdlYmU5YzQzNjhiIj48ZGVmcz48bGluZWFyR3JhZGllbnQgZ3JhZGllbnRVbml0cz0idXNlclNwYWNlT25Vc2UiIGdyYWRpZW50VHJhbnNmb3JtPSJ0cmFuc2xhdGUoMCAtMTYwKSIgeTI9IjE2MC42MTMiIHgyPSI5IiB5MT0iMTcyLjcwNCIgeDE9IjkiIGlkPSJhMDA5YWNjMS02ZTAzLTQ5NjktODFjYS1iMTU3YjU4YTJmNjkiPjxzdG9wIHN0b3AtY29sb3I9IiMxOThhYjMiIG9mZnNldD0iMCIvPjxzdG9wIHN0b3AtY29sb3I9IiMyMmE1Y2IiIG9mZnNldD0iMC4xMSIvPjxzdG9wIHN0b3AtY29sb3I9IiMyOWJhZGUiIG9mZnNldD0iMC4yMyIvPjxzdG9wIHN0b3AtY29sb3I9IiMyZWM5ZWIiIG9mZnNldD0iMC4zNyIvPjxzdG9wIHN0b3AtY29sb3I9IiMzMWQxZjMiIG9mZnNldD0iMC41MyIvPjxzdG9wIHN0b3AtY29sb3I9IiMzMmQ0ZjUiIG9mZnNldD0iMC43OCIvPjwvbGluZWFyR3JhZGllbnQ+PC9kZWZzPjxnPjxwYXRoIGZpbGw9InVybCgjYTAwOWFjYzEtNmUwMy00OTY5LTgxY2EtYjE1N2I1OGEyZjY5KSIgZD0iTTE3LjUsOC45YTMuODU0LDMuODU0LDAsMCwwLTMuMy0zLjdBNC44NzEsNC44NzEsMCwwLDAsOS4yLjYsNS4wMTEsNS4wMTEsMCwwLDAsNC41LDMuOGE0LjY5Myw0LjY5MywwLDAsMC00LDQuNCw0LjYxMiw0LjYxMiwwLDAsMCw0LjgsNC41aDguNEEzLjgsMy44LDAsMCwwLDE3LjUsOC45WiIvPjxjaXJjbGUgZmlsbD0iI2YyZjJmMiIgcj0iNC40IiBjeT0iMTIuOSIgY3g9IjkiLz48cGF0aCBmaWxsPSIjMDA3OGQ0IiBkPSJNMTIuNywxMC4xYTQuNiw0LjYsMCwwLDAtNi40LS45aDBhNC41NjEsNC41NjEsMCwxLDAsNS42LDcuMmgwQTQuNTU3LDQuNTU3LDAsMCwwLDEyLjcsMTAuMVpNNS4xLDEyLjZBNC43MDcsNC43MDcsMCwwLDEsNS41LDExSDYuNmE3Ljc3Miw3Ljc3MiwwLDAsMC0uMiwxLjZaTTcuMiwxMUg4Ljd2MS42SDdBNy43NzIsNy43NzIsMCwwLDEsNy4yLDExWm0yLjEsMGgxLjVhNy43NzIsNy43NzIsMCwwLDEsLjIsMS42SDkuM1ptLS41LDIuMXYxLjZINy4ybC0uMy0xLjVabS41LDBoMS44YTkuOTcxLDkuOTcxLDAsMCwxLS4yLDEuNkg5LjNabTIuNCwwSDEzYTQuNzA3LDQuNzA3LDAsMCwxLS40LDEuNkgxMS41YTcuNzcyLDcuNzcyLDAsMCwwLC4yLTEuNlptMC0uNWE5Ljk3MSw5Ljk3MSwwLDAsMC0uMi0xLjZoMS4xYTQuMTkzLDQuMTkzLDAsMCwxLC40LDEuNlptLjUtMi4yaC0uOWE0LjUsNC41LDAsMCwwLS42LTEuMiw0LjQyOCw0LjQyOCwwLDAsMSwxLjUsMS4yWm0tMS41LDBIOS4zVjlhMi4xNzEsMi4xNzEsMCwwLDEsMS40LDEuNFpNOC44LDl2MS41SDcuNEEyLjExOCwyLjExOCwwLDAsMSw4LjgsOVptLTIuMi43aDBhNS41ODIsNS41ODIsMCwwLDEsLjgtLjUsMy4xLDMuMSwwLDAsMC0uNiwxLjNINS45QTIuNywyLjcsMCwwLDEsNi42LDkuN1pNNS4xLDEzLjJINi40YTkuOTcxLDkuOTcxLDAsMCwwLC4yLDEuNkg1LjVBNS4zNDksNS4zNDksMCwwLDEsNS4xLDEzLjJabS44LDIuMWguOWwuNiwxLjJBMy40OTEsMy40OTEsMCwwLDEsNS45LDE1LjNabTEuNSwwSDguN3YxLjVhMi40MzMsMi40MzMsMCwwLDEtMS4zLTEuNVptMS45LDEuNVYxNS4zaDEuM2ExLjk2OCwxLjk2OCwwLDAsMS0xLjMsMS41Wm0yLjItLjhoMGEyLjYyMiwyLjYyMiwwLDAsMS0uOS41LDMuMzc5LDMuMzc5LDAsMCwwLC42LTEuMmguOUExLjM0NCwxLjM0NCwwLDAsMSwxMS41LDE2WiIvPjxwYXRoIGZpbGw9IiNlNmU2ZTYiIGQ9Ik01LjEsMTEuNEE0LjAyNSw0LjAyNSwwLDAsMSwyLjksOC41LDMuNjQ2LDMuNjQ2LDAsMCwxLDQuNCw1LjZMNSw1LjFsLjUuNi0uNi41QTIuNTA5LDIuNTA5LDAsMCwwLDMuNyw4LjRhMy4wMzEsMy4wMzEsMCwwLDAsMS44LDIuM1oiLz48Y2lyY2xlIGZpbGw9IiNmMmYyZjIiIHI9IjEuMSIgY3k9IjUuNCIgY3g9IjUuMyIvPjxwYXRoIGZpbGw9IiNlNmU2ZTYiIGQ9Ik0xMi43LDExLjRsLS40LS43YTMuMjU5LDMuMjU5LDAsMCwwLDEuOC0yLjMsMi43NDgsMi43NDgsMCwwLDAtMS4yLTIuMmwtLjYtLjQuNS0uNi42LjRhMy4wNzEsMy4wNzEsMCwwLDEsMS41LDIuOUE0LjAyNSw0LjAyNSwwLDAsMSwxMi43LDExLjRaIi8+PGNpcmNsZSBmaWxsPSIjZjJmMmYyIiByPSIxLjEiIGN5PSI1LjQiIGN4PSIxMi42Ii8+PGNpcmNsZSBmaWxsPSIjY2U3NGI2IiByPSIxLjEiIGN5PSIxMS4xIiBjeD0iNS4zIi8+PGNpcmNsZSBmaWxsPSIjY2U3NGI2IiByPSIxLjEiIGN5PSIxMS4xIiBjeD0iMTIuNiIvPjwvZz48L3N2Zz4=;" vertex="1" parent="1">
          <mxGeometry x="249" y="586" width="39" height="39" as="geometry" />
        </mxCell>
        <mxCell id="KyEwwN5RWtPKnTigqy45-9" value="" style="rounded=0;whiteSpace=wrap;html=1;" vertex="1" parent="1">
          <mxGeometry x="241.5" y="304" width="208" height="87" as="geometry" />
        </mxCell>
        <mxCell id="KyEwwN5RWtPKnTigqy45-10" value="workload-norwayeast&lt;div&gt;spoke vnet&lt;div&gt;10.9.2.0/26&lt;br&gt;&lt;/div&gt;&lt;/div&gt;" style="image;sketch=0;aspect=fixed;html=1;points=[];align=right;fontSize=12;image=img/lib/mscae/Virtual_Network.svg;labelPosition=left;verticalLabelPosition=middle;verticalAlign=middle;spacingRight=5;" vertex="1" parent="1">
          <mxGeometry x="191.5" y="264" width="50" height="28.000000000000004" as="geometry" />
        </mxCell>
        <mxCell id="KyEwwN5RWtPKnTigqy45-11" value="workload-snet&lt;div&gt;10.9.2.0/26&lt;br&gt;&lt;/div&gt;" style="image;aspect=fixed;html=1;points=[];align=center;fontSize=12;image=img/lib/azure2/networking/Subnet.svg;labelBackgroundColor=none;" vertex="1" parent="1">
          <mxGeometry x="412.5" y="369" width="33.4" height="20" as="geometry" />
        </mxCell>
        <mxCell id="KyEwwN5RWtPKnTigqy45-12" value="vm-workload-norwayeast" style="image;aspect=fixed;html=1;points=[];align=center;fontSize=12;image=img/lib/azure2/compute/Virtual_Machine.svg;" vertex="1" parent="1">
          <mxGeometry x="321.51" y="313" width="40.97" height="38" as="geometry" />
        </mxCell>
        <mxCell id="KyEwwN5RWtPKnTigqy45-13" value="Peering" style="rounded=0;orthogonalLoop=1;jettySize=auto;html=1;entryX=0.5;entryY=0;entryDx=0;entryDy=0;endArrow=none;startFill=0;" edge="1" parent="1" source="KyEwwN5RWtPKnTigqy45-7" target="KyEwwN5RWtPKnTigqy45-6">
          <mxGeometry x="-0.2172" relative="1" as="geometry">
            <mxPoint as="offset" />
          </mxGeometry>
        </mxCell>
        <mxCell id="KyEwwN5RWtPKnTigqy45-14" value="" style="rounded=1;whiteSpace=wrap;html=1;fillColor=#dae8fc;strokeColor=#6c8ebf;" vertex="1" parent="1">
          <mxGeometry x="209" y="746" width="279" height="165" as="geometry" />
        </mxCell>
        <mxCell id="KyEwwN5RWtPKnTigqy45-15" value="" style="rounded=0;whiteSpace=wrap;html=1;" vertex="1" parent="1">
          <mxGeometry x="244" y="782" width="208" height="87" as="geometry" />
        </mxCell>
        <mxCell id="KyEwwN5RWtPKnTigqy45-17" value="onprem-snet&lt;div&gt;10.1.0.128/25&lt;br&gt;&lt;/div&gt;" style="image;aspect=fixed;html=1;points=[];align=center;fontSize=12;image=img/lib/azure2/networking/Subnet.svg;labelBackgroundColor=none;" vertex="1" parent="1">
          <mxGeometry x="415" y="847" width="33.4" height="20" as="geometry" />
        </mxCell>
        <mxCell id="KyEwwN5RWtPKnTigqy45-18" value="vm-onprem-norwayeast" style="image;aspect=fixed;html=1;points=[];align=center;fontSize=12;image=img/lib/azure2/compute/Virtual_Machine.svg;" vertex="1" parent="1">
          <mxGeometry x="324.01" y="791" width="40.97" height="38" as="geometry" />
        </mxCell>
        <mxCell id="SHXPw5nqVqXnEUkfKg29-5" value="onprem-norwayeast&amp;nbsp;&lt;span style=&quot;background-color: light-dark(#ffffff, var(--ge-dark-color, #121212)); color: light-dark(rgb(0, 0, 0), rgb(255, 255, 255));&quot;&gt;vnet&lt;/span&gt;&lt;div&gt;&lt;div&gt;10.1.0.0/24&lt;/div&gt;&lt;/div&gt;" style="image;sketch=0;aspect=fixed;html=1;points=[];align=right;fontSize=12;image=img/lib/mscae/Exchange_On_premises_Access.svg;labelPosition=left;verticalLabelPosition=middle;verticalAlign=middle;spacingTop=0;spacingLeft=0;spacingRight=5;" vertex="1" parent="1">
          <mxGeometry x="201.49999999999997" y="736" width="25.52" height="44" as="geometry" />
        </mxCell>
        <mxCell id="KyEwwN5RWtPKnTigqy45-19" value="Site-to-site&lt;div&gt;VPN&lt;/div&gt;" style="rounded=0;orthogonalLoop=1;jettySize=auto;html=1;entryX=0.5;entryY=0;entryDx=0;entryDy=0;endArrow=none;startFill=0;" edge="1" parent="1" source="KyEwwN5RWtPKnTigqy45-6" target="KyEwwN5RWtPKnTigqy45-15">
          <mxGeometry x="0.0857" relative="1" as="geometry">
            <mxPoint as="offset" />
          </mxGeometry>
        </mxCell>
        <mxCell id="KyEwwN5RWtPKnTigqy45-20" value="" style="rounded=1;whiteSpace=wrap;html=1;fillColor=#d5e8d4;strokeColor=#82b366;" vertex="1" parent="1">
          <mxGeometry x="565.74" y="270" width="285" height="163" as="geometry" />
        </mxCell>
        <mxCell id="KyEwwN5RWtPKnTigqy45-21" value="" style="rounded=0;whiteSpace=wrap;html=1;" vertex="1" parent="1">
          <mxGeometry x="600.74" y="304" width="208" height="87" as="geometry" />
        </mxCell>
        <mxCell id="KyEwwN5RWtPKnTigqy45-22" value="workload-swedencentral&lt;div&gt;spoke vnet&lt;div&gt;10.9.3.0/26&lt;br&gt;&lt;/div&gt;&lt;/div&gt;" style="image;sketch=0;aspect=fixed;html=1;points=[];align=left;fontSize=12;image=img/lib/mscae/Virtual_Network.svg;labelPosition=right;verticalLabelPosition=middle;verticalAlign=middle;spacingLeft=5;" vertex="1" parent="1">
          <mxGeometry x="805.14" y="260" width="50" height="28.000000000000004" as="geometry" />
        </mxCell>
        <mxCell id="KyEwwN5RWtPKnTigqy45-23" value="workload-snet&lt;div&gt;10.9.3.0/26&lt;br&gt;&lt;/div&gt;" style="image;aspect=fixed;html=1;points=[];align=center;fontSize=12;image=img/lib/azure2/networking/Subnet.svg;labelBackgroundColor=none;" vertex="1" parent="1">
          <mxGeometry x="771.74" y="369" width="33.4" height="20" as="geometry" />
        </mxCell>
        <mxCell id="KyEwwN5RWtPKnTigqy45-24" value="vm-workload-sweencentral" style="image;aspect=fixed;html=1;points=[];align=center;fontSize=12;image=img/lib/azure2/compute/Virtual_Machine.svg;" vertex="1" parent="1">
          <mxGeometry x="680.75" y="313" width="40.97" height="38" as="geometry" />
        </mxCell>
        <mxCell id="KyEwwN5RWtPKnTigqy45-25" value="" style="rounded=1;whiteSpace=wrap;html=1;fillColor=#d5e8d4;strokeColor=#82b366;" vertex="1" parent="1">
          <mxGeometry x="565.74" y="747" width="279" height="167" as="geometry" />
        </mxCell>
        <mxCell id="KyEwwN5RWtPKnTigqy45-26" value="" style="rounded=0;whiteSpace=wrap;html=1;" vertex="1" parent="1">
          <mxGeometry x="600.74" y="785" width="208" height="87" as="geometry" />
        </mxCell>
        <mxCell id="KyEwwN5RWtPKnTigqy45-27" value="onprem-snet&lt;div&gt;10.2.0.128/25&lt;br&gt;&lt;/div&gt;" style="image;aspect=fixed;html=1;points=[];align=center;fontSize=12;image=img/lib/azure2/networking/Subnet.svg;labelBackgroundColor=none;" vertex="1" parent="1">
          <mxGeometry x="771.74" y="850" width="33.4" height="20" as="geometry" />
        </mxCell>
        <mxCell id="KyEwwN5RWtPKnTigqy45-28" value="vm-onprem-swedencentral" style="image;aspect=fixed;html=1;points=[];align=center;fontSize=12;image=img/lib/azure2/compute/Virtual_Machine.svg;" vertex="1" parent="1">
          <mxGeometry x="680.75" y="794" width="40.97" height="38" as="geometry" />
        </mxCell>
        <mxCell id="KyEwwN5RWtPKnTigqy45-29" value="onprem-swedencentral&amp;nbsp;&lt;span style=&quot;background-color: light-dark(#ffffff, var(--ge-dark-color, #121212)); color: light-dark(rgb(0, 0, 0), rgb(255, 255, 255));&quot;&gt;vnet&lt;/span&gt;&lt;div&gt;&lt;div&gt;10.2.0.0/24&lt;/div&gt;&lt;/div&gt;" style="image;sketch=0;aspect=fixed;html=1;points=[];align=left;fontSize=12;image=img/lib/mscae/Exchange_On_premises_Access.svg;labelPosition=right;verticalLabelPosition=middle;verticalAlign=middle;spacingTop=0;spacingLeft=5;spacingRight=4;" vertex="1" parent="1">
          <mxGeometry x="828.48" y="730" width="25.52" height="44" as="geometry" />
        </mxCell>
        <mxCell id="KyEwwN5RWtPKnTigqy45-30" value="" style="rounded=0;whiteSpace=wrap;html=1;" vertex="1" parent="1">
          <mxGeometry x="624.74" y="535" width="200.26" height="72" as="geometry" />
        </mxCell>
        <mxCell id="KyEwwN5RWtPKnTigqy45-31" value="hub-swedencentral&#xa;10.8.0.0/23" style="shape=image;verticalLabelPosition=bottom;labelBackgroundColor=none;verticalAlign=top;aspect=fixed;imageAspect=0;editableCssRules=.*;image=data:image/svg+xml,PHN2ZyB4bWxucz0iaHR0cDovL3d3dy53My5vcmcvMjAwMC9zdmciIHZpZXdCb3g9IjAgMCAxOCAxOCIgaGVpZ2h0PSIxOCIgd2lkdGg9IjE4IiBpZD0iYTUxMGExMjAtZThhZi00ZmUwLTgzMWUtNjdlYmU5YzQzNjhiIj48ZGVmcz48bGluZWFyR3JhZGllbnQgZ3JhZGllbnRVbml0cz0idXNlclNwYWNlT25Vc2UiIGdyYWRpZW50VHJhbnNmb3JtPSJ0cmFuc2xhdGUoMCAtMTYwKSIgeTI9IjE2MC42MTMiIHgyPSI5IiB5MT0iMTcyLjcwNCIgeDE9IjkiIGlkPSJhMDA5YWNjMS02ZTAzLTQ5NjktODFjYS1iMTU3YjU4YTJmNjkiPjxzdG9wIHN0b3AtY29sb3I9IiMxOThhYjMiIG9mZnNldD0iMCIvPjxzdG9wIHN0b3AtY29sb3I9IiMyMmE1Y2IiIG9mZnNldD0iMC4xMSIvPjxzdG9wIHN0b3AtY29sb3I9IiMyOWJhZGUiIG9mZnNldD0iMC4yMyIvPjxzdG9wIHN0b3AtY29sb3I9IiMyZWM5ZWIiIG9mZnNldD0iMC4zNyIvPjxzdG9wIHN0b3AtY29sb3I9IiMzMWQxZjMiIG9mZnNldD0iMC41MyIvPjxzdG9wIHN0b3AtY29sb3I9IiMzMmQ0ZjUiIG9mZnNldD0iMC43OCIvPjwvbGluZWFyR3JhZGllbnQ+PC9kZWZzPjxnPjxwYXRoIGZpbGw9InVybCgjYTAwOWFjYzEtNmUwMy00OTY5LTgxY2EtYjE1N2I1OGEyZjY5KSIgZD0iTTE3LjUsOC45YTMuODU0LDMuODU0LDAsMCwwLTMuMy0zLjdBNC44NzEsNC44NzEsMCwwLDAsOS4yLjYsNS4wMTEsNS4wMTEsMCwwLDAsNC41LDMuOGE0LjY5Myw0LjY5MywwLDAsMC00LDQuNCw0LjYxMiw0LjYxMiwwLDAsMCw0LjgsNC41aDguNEEzLjgsMy44LDAsMCwwLDE3LjUsOC45WiIvPjxjaXJjbGUgZmlsbD0iI2YyZjJmMiIgcj0iNC40IiBjeT0iMTIuOSIgY3g9IjkiLz48cGF0aCBmaWxsPSIjMDA3OGQ0IiBkPSJNMTIuNywxMC4xYTQuNiw0LjYsMCwwLDAtNi40LS45aDBhNC41NjEsNC41NjEsMCwxLDAsNS42LDcuMmgwQTQuNTU3LDQuNTU3LDAsMCwwLDEyLjcsMTAuMVpNNS4xLDEyLjZBNC43MDcsNC43MDcsMCwwLDEsNS41LDExSDYuNmE3Ljc3Miw3Ljc3MiwwLDAsMC0uMiwxLjZaTTcuMiwxMUg4Ljd2MS42SDdBNy43NzIsNy43NzIsMCwwLDEsNy4yLDExWm0yLjEsMGgxLjVhNy43NzIsNy43NzIsMCwwLDEsLjIsMS42SDkuM1ptLS41LDIuMXYxLjZINy4ybC0uMy0xLjVabS41LDBoMS44YTkuOTcxLDkuOTcxLDAsMCwxLS4yLDEuNkg5LjNabTIuNCwwSDEzYTQuNzA3LDQuNzA3LDAsMCwxLS40LDEuNkgxMS41YTcuNzcyLDcuNzcyLDAsMCwwLC4yLTEuNlptMC0uNWE5Ljk3MSw5Ljk3MSwwLDAsMC0uMi0xLjZoMS4xYTQuMTkzLDQuMTkzLDAsMCwxLC40LDEuNlptLjUtMi4yaC0uOWE0LjUsNC41LDAsMCwwLS42LTEuMiw0LjQyOCw0LjQyOCwwLDAsMSwxLjUsMS4yWm0tMS41LDBIOS4zVjlhMi4xNzEsMi4xNzEsMCwwLDEsMS40LDEuNFpNOC44LDl2MS41SDcuNEEyLjExOCwyLjExOCwwLDAsMSw4LjgsOVptLTIuMi43aDBhNS41ODIsNS41ODIsMCwwLDEsLjgtLjUsMy4xLDMuMSwwLDAsMC0uNiwxLjNINS45QTIuNywyLjcsMCwwLDEsNi42LDkuN1pNNS4xLDEzLjJINi40YTkuOTcxLDkuOTcxLDAsMCwwLC4yLDEuNkg1LjVBNS4zNDksNS4zNDksMCwwLDEsNS4xLDEzLjJabS44LDIuMWguOWwuNiwxLjJBMy40OTEsMy40OTEsMCwwLDEsNS45LDE1LjNabTEuNSwwSDguN3YxLjVhMi40MzMsMi40MzMsMCwwLDEtMS4zLTEuNVptMS45LDEuNVYxNS4zaDEuM2ExLjk2OCwxLjk2OCwwLDAsMS0xLjMsMS41Wm0yLjItLjhoMGEyLjYyMiwyLjYyMiwwLDAsMS0uOS41LDMuMzc5LDMuMzc5LDAsMCwwLC42LTEuMmguOUExLjM0NCwxLjM0NCwwLDAsMSwxMS41LDE2WiIvPjxwYXRoIGZpbGw9IiNlNmU2ZTYiIGQ9Ik01LjEsMTEuNEE0LjAyNSw0LjAyNSwwLDAsMSwyLjksOC41LDMuNjQ2LDMuNjQ2LDAsMCwxLDQuNCw1LjZMNSw1LjFsLjUuNi0uNi41QTIuNTA5LDIuNTA5LDAsMCwwLDMuNyw4LjRhMy4wMzEsMy4wMzEsMCwwLDAsMS44LDIuM1oiLz48Y2lyY2xlIGZpbGw9IiNmMmYyZjIiIHI9IjEuMSIgY3k9IjUuNCIgY3g9IjUuMyIvPjxwYXRoIGZpbGw9IiNlNmU2ZTYiIGQ9Ik0xMi43LDExLjRsLS40LS43YTMuMjU5LDMuMjU5LDAsMCwwLDEuOC0yLjMsMi43NDgsMi43NDgsMCwwLDAtMS4yLTIuMmwtLjYtLjQuNS0uNi42LjRhMy4wNzEsMy4wNzEsMCwwLDEsMS41LDIuOUE0LjAyNSw0LjAyNSwwLDAsMSwxMi43LDExLjRaIi8+PGNpcmNsZSBmaWxsPSIjZjJmMmYyIiByPSIxLjEiIGN5PSI1LjQiIGN4PSIxMi42Ii8+PGNpcmNsZSBmaWxsPSIjY2U3NGI2IiByPSIxLjEiIGN5PSIxMS4xIiBjeD0iNS4zIi8+PGNpcmNsZSBmaWxsPSIjY2U3NGI2IiByPSIxLjEiIGN5PSIxMS4xIiBjeD0iMTIuNiIvPjwvZz48L3N2Zz4=;" vertex="1" parent="1">
          <mxGeometry x="609.74" y="584" width="39" height="39" as="geometry" />
        </mxCell>
        <mxCell id="TvCFPVnQUAt3QmbSvhfE-1" value="Remore users / endpoints&lt;div&gt;Azure VPN Client&lt;/div&gt;" style="verticalLabelPosition=bottom;html=1;verticalAlign=top;align=center;strokeColor=none;fillColor=#00BEF2;shape=mxgraph.azure.user;" vertex="1" parent="1">
          <mxGeometry x="-54" y="548" width="47.5" height="50" as="geometry" />
        </mxCell>
        <mxCell id="TvCFPVnQUAt3QmbSvhfE-2" value="Point-to-site&lt;div&gt;VPN&lt;/div&gt;" style="edgeStyle=orthogonalEdgeStyle;rounded=0;orthogonalLoop=1;jettySize=auto;html=1;entryX=0.006;entryY=0.41;entryDx=0;entryDy=0;entryPerimeter=0;" edge="1" parent="1" source="TvCFPVnQUAt3QmbSvhfE-1" target="KyEwwN5RWtPKnTigqy45-8">
          <mxGeometry relative="1" as="geometry" />
        </mxCell>
        <mxCell id="h4M49_wnX6eTmyYRKvW5-1" value="firewall-swedencentral" style="shape=image;verticalLabelPosition=middle;labelBackgroundColor=none;verticalAlign=middle;aspect=fixed;imageAspect=0;editableCssRules=.*;image=data:image/svg+xml,PHN2ZyB4bWxucz0iaHR0cDovL3d3dy53My5vcmcvMjAwMC9zdmciIHZpZXdCb3g9IjAgMCAxOCAxOCIgaGVpZ2h0PSIxOCIgd2lkdGg9IjE4IiBpZD0iYWY0NjNkMzItZWMxMC00NGQ5LWE2MDctZWJhZDYzNzhhNTJiIj48ZGVmcz48bGluZWFyR3JhZGllbnQgZ3JhZGllbnRVbml0cz0idXNlclNwYWNlT25Vc2UiIHkyPSIxLjM4IiB4Mj0iOSIgeTE9IjE0LjE0IiB4MT0iOSIgaWQ9ImIwMTJkZTdiLTdhMGUtNDYxOC05ZmVjLTcwMzYyMmUzZThjMyI+PHN0b3Agc3RvcC1jb2xvcj0iIzAwNzhkNCIgb2Zmc2V0PSIwIi8+PHN0b3Agc3RvcC1jb2xvcj0iIzVlYTBlZiIgb2Zmc2V0PSIwLjgyIi8+PC9saW5lYXJHcmFkaWVudD48L2RlZnM+PHRpdGxlPkljb24tbmV0d29ya2luZy04NDwvdGl0bGU+PHBhdGggZmlsbD0idXJsKCNiMDEyZGU3Yi03YTBlLTQ2MTgtOWZlYy03MDM2MjJlM2U4YzMpIiBkPSJNMTgsMTAuMTRhNC4wNiw0LjA2LDAsMCwwLTMuNTEtMy44OUE1LjEsNS4xLDAsMCwwLDkuMjQsMS4zOGE1LjIzLDUuMjMsMCwwLDAtNSwzLjQxQTQuODIsNC44MiwwLDAsMCwwLDkuNDNhNC45LDQuOSwwLDAsMCw1LjA3LDQuNzFsLjQ0LDBoOC4yMWExLjQ2LDEuNDYsMCwwLDAsLjIyLDBBNC4xLDQuMSwwLDAsMCwxOCwxMC4xNFoiLz48cGF0aCBmaWxsPSIjODIxMDEwIiBkPSJNMTQuMjksMTEuMTlhLjQyLjQyLDAsMCwwLS40Mi0uNDFINC4xM2EuNDIuNDIsMCwwLDAtLjQyLjQxdjVhLjQyLjQyLDAsMCwwLC40Mi40MWg5Ljc0YS40Mi40MiwwLDAsMCwuNDItLjQxdi01WiIvPjxyZWN0IGZpbGw9IiNlNjIzMjMiIGhlaWdodD0iMS4yNyIgd2lkdGg9IjIuODciIHk9IjExLjM2IiB4PSI0LjMiLz48cmVjdCBmaWxsPSIjZmY3MzgxIiBoZWlnaHQ9IjEuMjciIHdpZHRoPSIyLjg3IiB5PSIxMS4zNiIgeD0iNy42Ii8+PHJlY3QgZmlsbD0iI2U2MjMyMyIgaGVpZ2h0PSIxLjI3IiB3aWR0aD0iMi44NyIgeT0iMTEuMzYiIHg9IjEwLjkiLz48cmVjdCBmaWxsPSIjZTYyMzIzIiBoZWlnaHQ9IjEuMjciIHdpZHRoPSIxLjE5IiB5PSIxMy4wNiIgeD0iNC4zIi8+PHJlY3QgZmlsbD0iI2ZmNzM4MSIgaGVpZ2h0PSIxLjI3IiB3aWR0aD0iMS4xOSIgeT0iMTMuMDYiIHg9IjEyLjU4Ii8+PHJlY3QgZmlsbD0iI2ZmNzM4MSIgaGVpZ2h0PSIxLjI3IiB3aWR0aD0iMi44NyIgeT0iMTMuMDYiIHg9IjUuOTIiLz48cmVjdCBmaWxsPSIjZTYyMzIzIiBoZWlnaHQ9IjEuMjciIHdpZHRoPSIyLjg3IiB5PSIxMy4wNiIgeD0iOS4yMyIvPjxyZWN0IGZpbGw9IiNlNjIzMjMiIGhlaWdodD0iMS4yNyIgd2lkdGg9IjIuODciIHk9IjE0Ljc2IiB4PSI0LjMiLz48cmVjdCBmaWxsPSIjZmY3MzgxIiBoZWlnaHQ9IjEuMjciIHdpZHRoPSIyLjg3IiB5PSIxNC43NiIgeD0iNy42Ii8+PHJlY3QgZmlsbD0iI2U2MjMyMyIgaGVpZ2h0PSIxLjI3IiB3aWR0aD0iMi44NyIgeT0iMTQuNzYiIHg9IjEwLjkiLz48L3N2Zz4=;labelPosition=right;align=left;" vertex="1" parent="1">
          <mxGeometry x="651" y="549.39" width="43.21" height="43.21" as="geometry" />
        </mxCell>
        <mxCell id="h4M49_wnX6eTmyYRKvW5-2" value="firewall-norwayeast" style="shape=image;verticalLabelPosition=middle;labelBackgroundColor=none;verticalAlign=middle;aspect=fixed;imageAspect=0;editableCssRules=.*;image=data:image/svg+xml,PHN2ZyB4bWxucz0iaHR0cDovL3d3dy53My5vcmcvMjAwMC9zdmciIHZpZXdCb3g9IjAgMCAxOCAxOCIgaGVpZ2h0PSIxOCIgd2lkdGg9IjE4IiBpZD0iYWY0NjNkMzItZWMxMC00NGQ5LWE2MDctZWJhZDYzNzhhNTJiIj48ZGVmcz48bGluZWFyR3JhZGllbnQgZ3JhZGllbnRVbml0cz0idXNlclNwYWNlT25Vc2UiIHkyPSIxLjM4IiB4Mj0iOSIgeTE9IjE0LjE0IiB4MT0iOSIgaWQ9ImIwMTJkZTdiLTdhMGUtNDYxOC05ZmVjLTcwMzYyMmUzZThjMyI+PHN0b3Agc3RvcC1jb2xvcj0iIzAwNzhkNCIgb2Zmc2V0PSIwIi8+PHN0b3Agc3RvcC1jb2xvcj0iIzVlYTBlZiIgb2Zmc2V0PSIwLjgyIi8+PC9saW5lYXJHcmFkaWVudD48L2RlZnM+PHRpdGxlPkljb24tbmV0d29ya2luZy04NDwvdGl0bGU+PHBhdGggZmlsbD0idXJsKCNiMDEyZGU3Yi03YTBlLTQ2MTgtOWZlYy03MDM2MjJlM2U4YzMpIiBkPSJNMTgsMTAuMTRhNC4wNiw0LjA2LDAsMCwwLTMuNTEtMy44OUE1LjEsNS4xLDAsMCwwLDkuMjQsMS4zOGE1LjIzLDUuMjMsMCwwLDAtNSwzLjQxQTQuODIsNC44MiwwLDAsMCwwLDkuNDNhNC45LDQuOSwwLDAsMCw1LjA3LDQuNzFsLjQ0LDBoOC4yMWExLjQ2LDEuNDYsMCwwLDAsLjIyLDBBNC4xLDQuMSwwLDAsMCwxOCwxMC4xNFoiLz48cGF0aCBmaWxsPSIjODIxMDEwIiBkPSJNMTQuMjksMTEuMTlhLjQyLjQyLDAsMCwwLS40Mi0uNDFINC4xM2EuNDIuNDIsMCwwLDAtLjQyLjQxdjVhLjQyLjQyLDAsMCwwLC40Mi40MWg5Ljc0YS40Mi40MiwwLDAsMCwuNDItLjQxdi01WiIvPjxyZWN0IGZpbGw9IiNlNjIzMjMiIGhlaWdodD0iMS4yNyIgd2lkdGg9IjIuODciIHk9IjExLjM2IiB4PSI0LjMiLz48cmVjdCBmaWxsPSIjZmY3MzgxIiBoZWlnaHQ9IjEuMjciIHdpZHRoPSIyLjg3IiB5PSIxMS4zNiIgeD0iNy42Ii8+PHJlY3QgZmlsbD0iI2U2MjMyMyIgaGVpZ2h0PSIxLjI3IiB3aWR0aD0iMi44NyIgeT0iMTEuMzYiIHg9IjEwLjkiLz48cmVjdCBmaWxsPSIjZTYyMzIzIiBoZWlnaHQ9IjEuMjciIHdpZHRoPSIxLjE5IiB5PSIxMy4wNiIgeD0iNC4zIi8+PHJlY3QgZmlsbD0iI2ZmNzM4MSIgaGVpZ2h0PSIxLjI3IiB3aWR0aD0iMS4xOSIgeT0iMTMuMDYiIHg9IjEyLjU4Ii8+PHJlY3QgZmlsbD0iI2ZmNzM4MSIgaGVpZ2h0PSIxLjI3IiB3aWR0aD0iMi44NyIgeT0iMTMuMDYiIHg9IjUuOTIiLz48cmVjdCBmaWxsPSIjZTYyMzIzIiBoZWlnaHQ9IjEuMjciIHdpZHRoPSIyLjg3IiB5PSIxMy4wNiIgeD0iOS4yMyIvPjxyZWN0IGZpbGw9IiNlNjIzMjMiIGhlaWdodD0iMS4yNyIgd2lkdGg9IjIuODciIHk9IjE0Ljc2IiB4PSI0LjMiLz48cmVjdCBmaWxsPSIjZmY3MzgxIiBoZWlnaHQ9IjEuMjciIHdpZHRoPSIyLjg3IiB5PSIxNC43NiIgeD0iNy42Ii8+PHJlY3QgZmlsbD0iI2U2MjMyMyIgaGVpZ2h0PSIxLjI3IiB3aWR0aD0iMi44NyIgeT0iMTQuNzYiIHg9IjEwLjkiLz48L3N2Zz4=;labelPosition=right;align=left;" vertex="1" parent="1">
          <mxGeometry x="288" y="549.39" width="43.21" height="43.21" as="geometry" />
        </mxCell>
      </root>
    </mxGraphModel>
  </diagram>
  <diagram name="after lab-02" id="J2JwaTVe0-Ama91p5mFX">
    <mxGraphModel dx="2074" dy="1196" grid="0" gridSize="10" guides="1" tooltips="1" connect="1" arrows="1" fold="1" page="0" pageScale="1" pageWidth="850" pageHeight="1100" math="0" shadow="0">
      <root>
        <mxCell id="qJm_zCgtEJy5UIXxmKRQ-0" />
        <mxCell id="qJm_zCgtEJy5UIXxmKRQ-1" parent="qJm_zCgtEJy5UIXxmKRQ-0" />
        <mxCell id="qJm_zCgtEJy5UIXxmKRQ-2" value="" style="rounded=1;whiteSpace=wrap;html=1;fillColor=#dae8fc;strokeColor=#6c8ebf;" vertex="1" parent="qJm_zCgtEJy5UIXxmKRQ-1">
          <mxGeometry x="206.5" y="275" width="282.5" height="158" as="geometry" />
        </mxCell>
        <mxCell id="qJm_zCgtEJy5UIXxmKRQ-3" value="" style="rounded=1;whiteSpace=wrap;html=1;fillColor=#dae8fc;strokeColor=#6c8ebf;" vertex="1" parent="qJm_zCgtEJy5UIXxmKRQ-1">
          <mxGeometry x="212" y="505" width="642" height="166" as="geometry" />
        </mxCell>
        <mxCell id="qJm_zCgtEJy5UIXxmKRQ-4" value="Hub to hub&lt;div&gt;connectivity&lt;/div&gt;" style="edgeStyle=orthogonalEdgeStyle;rounded=0;orthogonalLoop=1;jettySize=auto;html=1;endArrow=none;startFill=0;dashed=1;dashPattern=8 8;labelBackgroundColor=none;" edge="1" parent="qJm_zCgtEJy5UIXxmKRQ-1" source="qJm_zCgtEJy5UIXxmKRQ-5" target="qJm_zCgtEJy5UIXxmKRQ-30">
          <mxGeometry relative="1" as="geometry" />
        </mxCell>
        <mxCell id="qJm_zCgtEJy5UIXxmKRQ-5" value="" style="rounded=0;whiteSpace=wrap;html=1;" vertex="1" parent="qJm_zCgtEJy5UIXxmKRQ-1">
          <mxGeometry x="265" y="535" width="202" height="72" as="geometry" />
        </mxCell>
        <mxCell id="qJm_zCgtEJy5UIXxmKRQ-6" value="vwan" style="shape=image;verticalLabelPosition=middle;labelBackgroundColor=none;verticalAlign=middle;aspect=fixed;imageAspect=0;editableCssRules=.*;image=data:image/svg+xml,PHN2ZyB4bWxucz0iaHR0cDovL3d3dy53My5vcmcvMjAwMC9zdmciIHZpZXdCb3g9IjAgMCAxOCAxOCIgaGVpZ2h0PSIxOCIgd2lkdGg9IjE4Ij48ZGVmcz48bGluZWFyR3JhZGllbnQgZ3JhZGllbnRVbml0cz0idXNlclNwYWNlT25Vc2UiIHkyPSI3LjAxOSIgeDI9IjkiIHkxPSIxMy40OCIgeDE9IjkiIGlkPSJmOTBjZTNiOS05OTE2LTQ2ZDItOGZlZC0wMzc4YjNiMDRkZTYiPjxzdG9wIHN0b3AtY29sb3I9IiMwMDc4ZDQiIG9mZnNldD0iMCIvPjxzdG9wIHN0b3AtY29sb3I9IiM1ZWEwZWYiIG9mZnNldD0iMC43NzUiLz48L2xpbmVhckdyYWRpZW50PjxsaW5lYXJHcmFkaWVudCBncmFkaWVudFVuaXRzPSJ1c2VyU3BhY2VPblVzZSIgeTI9IjEwLjQ5NSIgeDI9IjkuMDE3IiB5MT0iOS41MTgiIHgxPSI5LjAxNyIgaWQ9ImIwZTI1YjViLTY5YmEtNDI2Mi1iODc0LTMzNDBkMWUzMTFmMCI+PHN0b3Agc3RvcC1jb2xvcj0iI2ZmZiIgb2Zmc2V0PSIwIi8+PHN0b3Agc3RvcC1vcGFjaXR5PSIwLjYiIHN0b3AtY29sb3I9IiNmZmYiIG9mZnNldD0iMSIvPjwvbGluZWFyR3JhZGllbnQ+PC9kZWZzPjxnIGlkPSJhMTAxZDNiZS05NDE4LTQyODItOTM3Mi02ODEyYjMwNDAxM2IiPjxwb2x5Z29uIGZpbGw9IiM5Y2ViZmYiIHBvaW50cz0iMTQuMjg4IDkuNDUzIDE0LjI4OCA5LjQ1OSAxNi45OTMgOS4zOTcgMTYuOTc0IDguNTUzIDE0LjI4NiA4LjYxNSAxNC4yODYgOC41OTkgMTIuMDQyIDguMzQxIDEyLjA0MiA1Ljg5OSAxMi4wMzYgNS44ODggMTMuNjI0IDEuODI2IDEyLjgzNiAxLjUyNCAxMS4yMzcgNS42MTMgMTEuMjM5IDUuNjE0IDkuNTIxIDcuNTk3IDYuODE1IDUuNTk3IDYuNzggNS41NjggNS4xOTggMS41MjQgNC40MSAxLjgyNiA2LjAxIDUuOTE2IDYuMDMxIDUuOTA4IDcuNDgyIDkuMDgzIDMuOTk2IDguNTk5IDMuOTc5IDguNjI3IDMuOTc5IDguNjE1IDEuMzA0IDguNTUzIDEuMjg0IDkuMzk3IDMuOTU5IDkuNDU5IDMuOTY2IDkuMTcgNS43MzMgOS43MzMgNi4wODQgMTAuOTIzIDYuMDUgMTIuMjkxIDQuNDUgMTYuMzggNS4yMzggMTYuNjgzIDYuODM4IDEyLjU5MyA2LjcwOCAxMi41NDMgNy45NjkgMTEuMzE5IDExLjI1NCAxMi4wOTYgMTEuNjY1IDEyLjQ0NCAxMS4yNzcgMTIuNTkzIDEyLjg3NiAxNi42ODMgMTMuNjY0IDE2LjM4IDEyLjA2NSAxMi4yOTEgMTIuMDM2IDEyLjMwMiAxMi4yNzEgMTAuNjAxIDE0LjI4OCA5LjQ1MyIvPjxwYXRoIGZpbGw9IiM4NmQ2MzMiIGQ9Ik0xOCw5LjAzN2ExLjI5NCwxLjI5NCwwLDEsMS0xLjI5NC0xLjI5NEExLjI5NCwxLjI5NCwwLDAsMSwxOCw5LjAzN1pNMS4yOTQsNy43NDNBMS4yOTQsMS4yOTQsMCwxLDAsMi41ODgsOS4wMzcsMS4yOTQsMS4yOTQsMCwwLDAsMS4yOTQsNy43NDNabTMuNDc5LDcuNjQ2YTEuMjk0LDEuMjk0LDAsMSwwLDEuMjkzLDEuMjk0QTEuMjk0LDEuMjk0LDAsMCwwLDQuNzczLDE1LjM4OVptOC42OCwwYTEuMjk0LDEuMjk0LDAsMSwwLDEuMjkzLDEuMjk0QTEuMjk0LDEuMjk0LDAsMCwwLDEzLjQ1MywxNS4zODlaTTQuNjMyLjAyNEExLjI5NCwxLjI5NCwwLDEsMCw1LjkyNiwxLjMxNywxLjI5MywxLjI5MywwLDAsMCw0LjYzMi4wMjRabTguOTE2LDBhMS4yOTQsMS4yOTQsMCwxLDAsMS4yOTMsMS4yOTNBMS4yOTMsMS4yOTMsMCwwLDAsMTMuNTQ4LjAyNFoiLz48cGF0aCBmaWxsPSJ1cmwoI2Y5MGNlM2I5LTk5MTYtNDZkMi04ZmVkLTAzNzhiM2IwNGRlNikiIGQ9Ik0zLjUzMyw3LjAxOUgxNC40NjdhMCwwLDAsMCwxLDAsMHY2LjFhLjM2NS4zNjUsMCwwLDEtLjM2NS4zNjVIMy45YS4zNjUuMzY1LDAsMCwxLS4zNjUtLjM2NXYtNi4xQTAsMCwwLDAsMSwzLjUzMyw3LjAxOVoiLz48cGF0aCBmaWxsPSIjMDA3OGQ0IiBkPSJNMy45LDQuNjg5SDE0LjFhLjM2NS4zNjUsMCwwLDEsLjM2NS4zNjVWNy4wMTlhMCwwLDAsMCwxLDAsMEgzLjUzNWEwLDAsMCwwLDEsMCwwVjUuMDU0QS4zNjUuMzY1LDAsMCwxLDMuOSw0LjY4OVoiLz48cGF0aCBmaWxsPSJ1cmwoI2IwZTI1YjViLTY5YmEtNDI2Mi1iODc0LTMzNDBkMWUzMTFmMCkiIGQ9Ik0xMC41Nyw5LjUxNWEuNDg3LjQ4NywwLDEsMS0uNDg3LjQ4N0EuNDg3LjQ4NywwLDAsMSwxMC41Nyw5LjUxNVptLTIuMDM5LjQ5MWEuNDg3LjQ4NywwLDEsMCwuNDg2LS40ODdBLjQ4Ny40ODcsMCwwLDAsOC41MzEsMTAuMDA2Wm0tMS41NTMsMGEuNDg3LjQ4NywwLDEsMCwuNDg3LS40ODdBLjQ4Ny40ODcsMCwwLDAsNi45NzgsMTAuMDA2WiIvPjxwYXRoIGZpbGw9IiNmZmYiIGQ9Ik03LjgxOCwxMS45NTJsLS4yNzguMjc5YS4xMjYuMTI2LDAsMCwxLS4xNzgsMGgwTDUuMywxMC4xNzVhLjI1MS4yNTEsMCwwLDEsMC0uMzU2aDBsLjI3OC0uMjc5aDBsMi4yNCwyLjIzNGEuMTI2LjEyNiwwLDAsMSwwLC4xNzhabTQuNjA1LTIuNDE2LTIuMjQsMi4yMzRoMGEuMTI1LjEyNSwwLDAsMCwwLC4xNzhsLjI3OS4yNzloMGEuMTI1LjEyNSwwLDAsMCwuMTc4LDBMMTIuNywxMC4xNzFoMGEuMjUyLjI1MiwwLDAsMCwwLS4zNTZsLS4yNzgtLjI3OVoiLz48cGF0aCBvcGFjaXR5PSIwLjgiIGZpbGw9IiNmZmYiIGQ9Ik03LjUsNy43ODZsLjI3OS4yNzhhLjEyNi4xMjYsMCwwLDEsMCwuMTc4bC0yLjIsMi4yMDhoMEw1LjMsMTAuMTcxYS4yNTEuMjUxLDAsMCwxLDAtLjM1NmgwTDcuMzIsNy43ODZBLjEyNi4xMjYsMCwwLDEsNy41LDcuNzg2Wm01LjIsMi4zNzloMGEuMjUxLjI1MSwwLDAsMCwwLS4zNTZMMTAuNjgsNy43OGgwYS4xMjYuMTI2LDAsMCwwLS4xNzgsMGwtLjI4Mi4yODJoMGEuMTI2LjEyNiwwLDAsMCwwLC4xNzhsMi4yLDIuMjA3aDBsLjI3OS0uMjc5WiIvPjwvZz48L3N2Zz4=;labelPosition=left;align=right;spacingRight=5;" vertex="1" parent="qJm_zCgtEJy5UIXxmKRQ-1">
          <mxGeometry x="185" y="477" width="67" height="67" as="geometry" />
        </mxCell>
        <mxCell id="qJm_zCgtEJy5UIXxmKRQ-7" value="hub-norwayeast&#xa;10.9.0.0/23" style="shape=image;verticalLabelPosition=bottom;labelBackgroundColor=none;verticalAlign=top;aspect=fixed;imageAspect=0;editableCssRules=.*;image=data:image/svg+xml,PHN2ZyB4bWxucz0iaHR0cDovL3d3dy53My5vcmcvMjAwMC9zdmciIHZpZXdCb3g9IjAgMCAxOCAxOCIgaGVpZ2h0PSIxOCIgd2lkdGg9IjE4IiBpZD0iYTUxMGExMjAtZThhZi00ZmUwLTgzMWUtNjdlYmU5YzQzNjhiIj48ZGVmcz48bGluZWFyR3JhZGllbnQgZ3JhZGllbnRVbml0cz0idXNlclNwYWNlT25Vc2UiIGdyYWRpZW50VHJhbnNmb3JtPSJ0cmFuc2xhdGUoMCAtMTYwKSIgeTI9IjE2MC42MTMiIHgyPSI5IiB5MT0iMTcyLjcwNCIgeDE9IjkiIGlkPSJhMDA5YWNjMS02ZTAzLTQ5NjktODFjYS1iMTU3YjU4YTJmNjkiPjxzdG9wIHN0b3AtY29sb3I9IiMxOThhYjMiIG9mZnNldD0iMCIvPjxzdG9wIHN0b3AtY29sb3I9IiMyMmE1Y2IiIG9mZnNldD0iMC4xMSIvPjxzdG9wIHN0b3AtY29sb3I9IiMyOWJhZGUiIG9mZnNldD0iMC4yMyIvPjxzdG9wIHN0b3AtY29sb3I9IiMyZWM5ZWIiIG9mZnNldD0iMC4zNyIvPjxzdG9wIHN0b3AtY29sb3I9IiMzMWQxZjMiIG9mZnNldD0iMC41MyIvPjxzdG9wIHN0b3AtY29sb3I9IiMzMmQ0ZjUiIG9mZnNldD0iMC43OCIvPjwvbGluZWFyR3JhZGllbnQ+PC9kZWZzPjxnPjxwYXRoIGZpbGw9InVybCgjYTAwOWFjYzEtNmUwMy00OTY5LTgxY2EtYjE1N2I1OGEyZjY5KSIgZD0iTTE3LjUsOC45YTMuODU0LDMuODU0LDAsMCwwLTMuMy0zLjdBNC44NzEsNC44NzEsMCwwLDAsOS4yLjYsNS4wMTEsNS4wMTEsMCwwLDAsNC41LDMuOGE0LjY5Myw0LjY5MywwLDAsMC00LDQuNCw0LjYxMiw0LjYxMiwwLDAsMCw0LjgsNC41aDguNEEzLjgsMy44LDAsMCwwLDE3LjUsOC45WiIvPjxjaXJjbGUgZmlsbD0iI2YyZjJmMiIgcj0iNC40IiBjeT0iMTIuOSIgY3g9IjkiLz48cGF0aCBmaWxsPSIjMDA3OGQ0IiBkPSJNMTIuNywxMC4xYTQuNiw0LjYsMCwwLDAtNi40LS45aDBhNC41NjEsNC41NjEsMCwxLDAsNS42LDcuMmgwQTQuNTU3LDQuNTU3LDAsMCwwLDEyLjcsMTAuMVpNNS4xLDEyLjZBNC43MDcsNC43MDcsMCwwLDEsNS41LDExSDYuNmE3Ljc3Miw3Ljc3MiwwLDAsMC0uMiwxLjZaTTcuMiwxMUg4Ljd2MS42SDdBNy43NzIsNy43NzIsMCwwLDEsNy4yLDExWm0yLjEsMGgxLjVhNy43NzIsNy43NzIsMCwwLDEsLjIsMS42SDkuM1ptLS41LDIuMXYxLjZINy4ybC0uMy0xLjVabS41LDBoMS44YTkuOTcxLDkuOTcxLDAsMCwxLS4yLDEuNkg5LjNabTIuNCwwSDEzYTQuNzA3LDQuNzA3LDAsMCwxLS40LDEuNkgxMS41YTcuNzcyLDcuNzcyLDAsMCwwLC4yLTEuNlptMC0uNWE5Ljk3MSw5Ljk3MSwwLDAsMC0uMi0xLjZoMS4xYTQuMTkzLDQuMTkzLDAsMCwxLC40LDEuNlptLjUtMi4yaC0uOWE0LjUsNC41LDAsMCwwLS42LTEuMiw0LjQyOCw0LjQyOCwwLDAsMSwxLjUsMS4yWm0tMS41LDBIOS4zVjlhMi4xNzEsMi4xNzEsMCwwLDEsMS40LDEuNFpNOC44LDl2MS41SDcuNEEyLjExOCwyLjExOCwwLDAsMSw4LjgsOVptLTIuMi43aDBhNS41ODIsNS41ODIsMCwwLDEsLjgtLjUsMy4xLDMuMSwwLDAsMC0uNiwxLjNINS45QTIuNywyLjcsMCwwLDEsNi42LDkuN1pNNS4xLDEzLjJINi40YTkuOTcxLDkuOTcxLDAsMCwwLC4yLDEuNkg1LjVBNS4zNDksNS4zNDksMCwwLDEsNS4xLDEzLjJabS44LDIuMWguOWwuNiwxLjJBMy40OTEsMy40OTEsMCwwLDEsNS45LDE1LjNabTEuNSwwSDguN3YxLjVhMi40MzMsMi40MzMsMCwwLDEtMS4zLTEuNVptMS45LDEuNVYxNS4zaDEuM2ExLjk2OCwxLjk2OCwwLDAsMS0xLjMsMS41Wm0yLjItLjhoMGEyLjYyMiwyLjYyMiwwLDAsMS0uOS41LDMuMzc5LDMuMzc5LDAsMCwwLC42LTEuMmguOUExLjM0NCwxLjM0NCwwLDAsMSwxMS41LDE2WiIvPjxwYXRoIGZpbGw9IiNlNmU2ZTYiIGQ9Ik01LjEsMTEuNEE0LjAyNSw0LjAyNSwwLDAsMSwyLjksOC41LDMuNjQ2LDMuNjQ2LDAsMCwxLDQuNCw1LjZMNSw1LjFsLjUuNi0uNi41QTIuNTA5LDIuNTA5LDAsMCwwLDMuNyw4LjRhMy4wMzEsMy4wMzEsMCwwLDAsMS44LDIuM1oiLz48Y2lyY2xlIGZpbGw9IiNmMmYyZjIiIHI9IjEuMSIgY3k9IjUuNCIgY3g9IjUuMyIvPjxwYXRoIGZpbGw9IiNlNmU2ZTYiIGQ9Ik0xMi43LDExLjRsLS40LS43YTMuMjU5LDMuMjU5LDAsMCwwLDEuOC0yLjMsMi43NDgsMi43NDgsMCwwLDAtMS4yLTIuMmwtLjYtLjQuNS0uNi42LjRhMy4wNzEsMy4wNzEsMCwwLDEsMS41LDIuOUE0LjAyNSw0LjAyNSwwLDAsMSwxMi43LDExLjRaIi8+PGNpcmNsZSBmaWxsPSIjZjJmMmYyIiByPSIxLjEiIGN5PSI1LjQiIGN4PSIxMi42Ii8+PGNpcmNsZSBmaWxsPSIjY2U3NGI2IiByPSIxLjEiIGN5PSIxMS4xIiBjeD0iNS4zIi8+PGNpcmNsZSBmaWxsPSIjY2U3NGI2IiByPSIxLjEiIGN5PSIxMS4xIiBjeD0iMTIuNiIvPjwvZz48L3N2Zz4=;" vertex="1" parent="qJm_zCgtEJy5UIXxmKRQ-1">
          <mxGeometry x="249" y="586" width="39" height="39" as="geometry" />
        </mxCell>
        <mxCell id="qJm_zCgtEJy5UIXxmKRQ-8" value="" style="rounded=0;whiteSpace=wrap;html=1;" vertex="1" parent="qJm_zCgtEJy5UIXxmKRQ-1">
          <mxGeometry x="241.5" y="304" width="208" height="87" as="geometry" />
        </mxCell>
        <mxCell id="qJm_zCgtEJy5UIXxmKRQ-9" value="workload-norwayeast&lt;div&gt;spoke vnet&lt;div&gt;10.9.2.0/26&lt;br&gt;&lt;/div&gt;&lt;/div&gt;" style="image;sketch=0;aspect=fixed;html=1;points=[];align=right;fontSize=12;image=img/lib/mscae/Virtual_Network.svg;labelPosition=left;verticalLabelPosition=middle;verticalAlign=middle;spacingRight=5;" vertex="1" parent="qJm_zCgtEJy5UIXxmKRQ-1">
          <mxGeometry x="191.5" y="263" width="50" height="28.000000000000004" as="geometry" />
        </mxCell>
        <mxCell id="qJm_zCgtEJy5UIXxmKRQ-10" value="workload-snet&lt;div&gt;10.9.2.0/26&lt;br&gt;&lt;/div&gt;" style="image;aspect=fixed;html=1;points=[];align=center;fontSize=12;image=img/lib/azure2/networking/Subnet.svg;labelBackgroundColor=none;" vertex="1" parent="qJm_zCgtEJy5UIXxmKRQ-1">
          <mxGeometry x="412.5" y="369" width="33.4" height="20" as="geometry" />
        </mxCell>
        <mxCell id="qJm_zCgtEJy5UIXxmKRQ-11" value="workload-norwayeast-vm" style="image;aspect=fixed;html=1;points=[];align=center;fontSize=12;image=img/lib/azure2/compute/Virtual_Machine.svg;" vertex="1" parent="qJm_zCgtEJy5UIXxmKRQ-1">
          <mxGeometry x="321.51" y="313" width="40.97" height="38" as="geometry" />
        </mxCell>
        <mxCell id="qJm_zCgtEJy5UIXxmKRQ-12" value="Peering" style="edgeStyle=orthogonalEdgeStyle;rounded=0;orthogonalLoop=1;jettySize=auto;html=1;entryX=0.405;entryY=0.038;entryDx=0;entryDy=0;endArrow=none;startFill=0;entryPerimeter=0;" edge="1" parent="qJm_zCgtEJy5UIXxmKRQ-1" source="qJm_zCgtEJy5UIXxmKRQ-2" target="qJm_zCgtEJy5UIXxmKRQ-5">
          <mxGeometry x="-0.2172" relative="1" as="geometry">
            <mxPoint as="offset" />
          </mxGeometry>
        </mxCell>
        <mxCell id="qJm_zCgtEJy5UIXxmKRQ-13" value="" style="rounded=1;whiteSpace=wrap;html=1;fillColor=#dae8fc;strokeColor=#6c8ebf;" vertex="1" parent="qJm_zCgtEJy5UIXxmKRQ-1">
          <mxGeometry x="209" y="757" width="279" height="154" as="geometry" />
        </mxCell>
        <mxCell id="qJm_zCgtEJy5UIXxmKRQ-14" value="" style="rounded=0;whiteSpace=wrap;html=1;" vertex="1" parent="qJm_zCgtEJy5UIXxmKRQ-1">
          <mxGeometry x="244" y="782" width="208" height="87" as="geometry" />
        </mxCell>
        <mxCell id="qJm_zCgtEJy5UIXxmKRQ-15" value="onprem-snet&lt;div&gt;10.1.0.128/25&lt;br&gt;&lt;/div&gt;" style="image;aspect=fixed;html=1;points=[];align=center;fontSize=12;image=img/lib/azure2/networking/Subnet.svg;labelBackgroundColor=none;" vertex="1" parent="qJm_zCgtEJy5UIXxmKRQ-1">
          <mxGeometry x="415" y="847" width="33.4" height="20" as="geometry" />
        </mxCell>
        <mxCell id="qJm_zCgtEJy5UIXxmKRQ-16" value="onprem-norwayeast-vm" style="image;aspect=fixed;html=1;points=[];align=center;fontSize=12;image=img/lib/azure2/compute/Virtual_Machine.svg;" vertex="1" parent="qJm_zCgtEJy5UIXxmKRQ-1">
          <mxGeometry x="324.01" y="791" width="40.97" height="38" as="geometry" />
        </mxCell>
        <mxCell id="qJm_zCgtEJy5UIXxmKRQ-17" value="onprem-norwayeast&amp;nbsp;&lt;span style=&quot;background-color: light-dark(#ffffff, var(--ge-dark-color, #121212)); color: light-dark(rgb(0, 0, 0), rgb(255, 255, 255));&quot;&gt;vnet&lt;/span&gt;&lt;div&gt;&lt;div&gt;10.1.0.0/24&lt;/div&gt;&lt;/div&gt;" style="image;sketch=0;aspect=fixed;html=1;points=[];align=right;fontSize=12;image=img/lib/mscae/Exchange_On_premises_Access.svg;labelPosition=left;verticalLabelPosition=middle;verticalAlign=middle;spacingTop=0;spacingLeft=0;spacingRight=5;" vertex="1" parent="qJm_zCgtEJy5UIXxmKRQ-1">
          <mxGeometry x="201.49999999999997" y="736" width="25.52" height="44" as="geometry" />
        </mxCell>
        <mxCell id="qJm_zCgtEJy5UIXxmKRQ-18" value="S2S VPN" style="edgeStyle=orthogonalEdgeStyle;rounded=0;orthogonalLoop=1;jettySize=auto;html=1;entryX=0.5;entryY=0;entryDx=0;entryDy=0;endArrow=none;startFill=0;exitX=0.411;exitY=1.018;exitDx=0;exitDy=0;exitPerimeter=0;" edge="1" parent="qJm_zCgtEJy5UIXxmKRQ-1" source="qJm_zCgtEJy5UIXxmKRQ-5" target="qJm_zCgtEJy5UIXxmKRQ-14">
          <mxGeometry x="0.0857" relative="1" as="geometry">
            <mxPoint as="offset" />
          </mxGeometry>
        </mxCell>
        <mxCell id="qJm_zCgtEJy5UIXxmKRQ-19" value="Peering" style="edgeStyle=orthogonalEdgeStyle;rounded=0;orthogonalLoop=1;jettySize=auto;html=1;endArrow=none;startFill=0;" edge="1" parent="qJm_zCgtEJy5UIXxmKRQ-1" source="qJm_zCgtEJy5UIXxmKRQ-20">
          <mxGeometry x="-0.3223" relative="1" as="geometry">
            <mxPoint x="708" y="539" as="targetPoint" />
            <mxPoint as="offset" />
          </mxGeometry>
        </mxCell>
        <mxCell id="qJm_zCgtEJy5UIXxmKRQ-20" value="" style="rounded=1;whiteSpace=wrap;html=1;fillColor=#d5e8d4;strokeColor=#82b366;" vertex="1" parent="qJm_zCgtEJy5UIXxmKRQ-1">
          <mxGeometry x="565.74" y="278" width="285" height="155" as="geometry" />
        </mxCell>
        <mxCell id="qJm_zCgtEJy5UIXxmKRQ-21" value="" style="rounded=0;whiteSpace=wrap;html=1;" vertex="1" parent="qJm_zCgtEJy5UIXxmKRQ-1">
          <mxGeometry x="600.74" y="304" width="208" height="87" as="geometry" />
        </mxCell>
        <mxCell id="qJm_zCgtEJy5UIXxmKRQ-22" value="workload-swedencentral&lt;div&gt;spoke vnet&lt;div&gt;10.9.3.0/26&lt;br&gt;&lt;/div&gt;&lt;/div&gt;" style="image;sketch=0;aspect=fixed;html=1;points=[];align=left;fontSize=12;image=img/lib/mscae/Virtual_Network.svg;labelPosition=right;verticalLabelPosition=middle;verticalAlign=middle;spacingLeft=5;" vertex="1" parent="qJm_zCgtEJy5UIXxmKRQ-1">
          <mxGeometry x="808.74" y="267" width="50" height="28.000000000000004" as="geometry" />
        </mxCell>
        <mxCell id="qJm_zCgtEJy5UIXxmKRQ-23" value="workload-snet&lt;div&gt;10.9.3.0/26&lt;br&gt;&lt;/div&gt;" style="image;aspect=fixed;html=1;points=[];align=center;fontSize=12;image=img/lib/azure2/networking/Subnet.svg;labelBackgroundColor=none;" vertex="1" parent="qJm_zCgtEJy5UIXxmKRQ-1">
          <mxGeometry x="771.74" y="369" width="33.4" height="20" as="geometry" />
        </mxCell>
        <mxCell id="qJm_zCgtEJy5UIXxmKRQ-24" value="workload-sweencentral-vm" style="image;aspect=fixed;html=1;points=[];align=center;fontSize=12;image=img/lib/azure2/compute/Virtual_Machine.svg;" vertex="1" parent="qJm_zCgtEJy5UIXxmKRQ-1">
          <mxGeometry x="680.75" y="313" width="40.97" height="38" as="geometry" />
        </mxCell>
        <mxCell id="qJm_zCgtEJy5UIXxmKRQ-25" value="" style="rounded=1;whiteSpace=wrap;html=1;fillColor=#d5e8d4;strokeColor=#82b366;" vertex="1" parent="qJm_zCgtEJy5UIXxmKRQ-1">
          <mxGeometry x="565.74" y="755" width="279" height="159" as="geometry" />
        </mxCell>
        <mxCell id="qJm_zCgtEJy5UIXxmKRQ-26" value="" style="rounded=0;whiteSpace=wrap;html=1;" vertex="1" parent="qJm_zCgtEJy5UIXxmKRQ-1">
          <mxGeometry x="600.74" y="785" width="208" height="87" as="geometry" />
        </mxCell>
        <mxCell id="qJm_zCgtEJy5UIXxmKRQ-27" value="onprem-snet&lt;div&gt;10.2.0.128/25&lt;br&gt;&lt;/div&gt;" style="image;aspect=fixed;html=1;points=[];align=center;fontSize=12;image=img/lib/azure2/networking/Subnet.svg;labelBackgroundColor=none;" vertex="1" parent="qJm_zCgtEJy5UIXxmKRQ-1">
          <mxGeometry x="771.74" y="850" width="33.4" height="20" as="geometry" />
        </mxCell>
        <mxCell id="qJm_zCgtEJy5UIXxmKRQ-28" value="onprem-swedencentral-vm" style="image;aspect=fixed;html=1;points=[];align=center;fontSize=12;image=img/lib/azure2/compute/Virtual_Machine.svg;" vertex="1" parent="qJm_zCgtEJy5UIXxmKRQ-1">
          <mxGeometry x="680.75" y="794" width="40.97" height="38" as="geometry" />
        </mxCell>
        <mxCell id="qJm_zCgtEJy5UIXxmKRQ-29" value="onprem-swedencentral&amp;nbsp;&lt;span style=&quot;background-color: light-dark(#ffffff, var(--ge-dark-color, #121212)); color: light-dark(rgb(0, 0, 0), rgb(255, 255, 255));&quot;&gt;vnet&lt;/span&gt;&lt;div&gt;&lt;div&gt;10.2.0.0/24&lt;/div&gt;&lt;/div&gt;" style="image;sketch=0;aspect=fixed;html=1;points=[];align=left;fontSize=12;image=img/lib/mscae/Exchange_On_premises_Access.svg;labelPosition=right;verticalLabelPosition=middle;verticalAlign=middle;spacingTop=0;spacingLeft=5;spacingRight=4;" vertex="1" parent="qJm_zCgtEJy5UIXxmKRQ-1">
          <mxGeometry x="828.48" y="730" width="25.52" height="44" as="geometry" />
        </mxCell>
        <mxCell id="qJm_zCgtEJy5UIXxmKRQ-30" value="" style="rounded=0;whiteSpace=wrap;html=1;" vertex="1" parent="qJm_zCgtEJy5UIXxmKRQ-1">
          <mxGeometry x="624.74" y="535" width="208.26" height="72" as="geometry" />
        </mxCell>
        <mxCell id="qJm_zCgtEJy5UIXxmKRQ-31" value="hub-swedencentral&#xa;10.8.0.0/23" style="shape=image;verticalLabelPosition=bottom;labelBackgroundColor=none;verticalAlign=top;aspect=fixed;imageAspect=0;editableCssRules=.*;image=data:image/svg+xml,PHN2ZyB4bWxucz0iaHR0cDovL3d3dy53My5vcmcvMjAwMC9zdmciIHZpZXdCb3g9IjAgMCAxOCAxOCIgaGVpZ2h0PSIxOCIgd2lkdGg9IjE4IiBpZD0iYTUxMGExMjAtZThhZi00ZmUwLTgzMWUtNjdlYmU5YzQzNjhiIj48ZGVmcz48bGluZWFyR3JhZGllbnQgZ3JhZGllbnRVbml0cz0idXNlclNwYWNlT25Vc2UiIGdyYWRpZW50VHJhbnNmb3JtPSJ0cmFuc2xhdGUoMCAtMTYwKSIgeTI9IjE2MC42MTMiIHgyPSI5IiB5MT0iMTcyLjcwNCIgeDE9IjkiIGlkPSJhMDA5YWNjMS02ZTAzLTQ5NjktODFjYS1iMTU3YjU4YTJmNjkiPjxzdG9wIHN0b3AtY29sb3I9IiMxOThhYjMiIG9mZnNldD0iMCIvPjxzdG9wIHN0b3AtY29sb3I9IiMyMmE1Y2IiIG9mZnNldD0iMC4xMSIvPjxzdG9wIHN0b3AtY29sb3I9IiMyOWJhZGUiIG9mZnNldD0iMC4yMyIvPjxzdG9wIHN0b3AtY29sb3I9IiMyZWM5ZWIiIG9mZnNldD0iMC4zNyIvPjxzdG9wIHN0b3AtY29sb3I9IiMzMWQxZjMiIG9mZnNldD0iMC41MyIvPjxzdG9wIHN0b3AtY29sb3I9IiMzMmQ0ZjUiIG9mZnNldD0iMC43OCIvPjwvbGluZWFyR3JhZGllbnQ+PC9kZWZzPjxnPjxwYXRoIGZpbGw9InVybCgjYTAwOWFjYzEtNmUwMy00OTY5LTgxY2EtYjE1N2I1OGEyZjY5KSIgZD0iTTE3LjUsOC45YTMuODU0LDMuODU0LDAsMCwwLTMuMy0zLjdBNC44NzEsNC44NzEsMCwwLDAsOS4yLjYsNS4wMTEsNS4wMTEsMCwwLDAsNC41LDMuOGE0LjY5Myw0LjY5MywwLDAsMC00LDQuNCw0LjYxMiw0LjYxMiwwLDAsMCw0LjgsNC41aDguNEEzLjgsMy44LDAsMCwwLDE3LjUsOC45WiIvPjxjaXJjbGUgZmlsbD0iI2YyZjJmMiIgcj0iNC40IiBjeT0iMTIuOSIgY3g9IjkiLz48cGF0aCBmaWxsPSIjMDA3OGQ0IiBkPSJNMTIuNywxMC4xYTQuNiw0LjYsMCwwLDAtNi40LS45aDBhNC41NjEsNC41NjEsMCwxLDAsNS42LDcuMmgwQTQuNTU3LDQuNTU3LDAsMCwwLDEyLjcsMTAuMVpNNS4xLDEyLjZBNC43MDcsNC43MDcsMCwwLDEsNS41LDExSDYuNmE3Ljc3Miw3Ljc3MiwwLDAsMC0uMiwxLjZaTTcuMiwxMUg4Ljd2MS42SDdBNy43NzIsNy43NzIsMCwwLDEsNy4yLDExWm0yLjEsMGgxLjVhNy43NzIsNy43NzIsMCwwLDEsLjIsMS42SDkuM1ptLS41LDIuMXYxLjZINy4ybC0uMy0xLjVabS41LDBoMS44YTkuOTcxLDkuOTcxLDAsMCwxLS4yLDEuNkg5LjNabTIuNCwwSDEzYTQuNzA3LDQuNzA3LDAsMCwxLS40LDEuNkgxMS41YTcuNzcyLDcuNzcyLDAsMCwwLC4yLTEuNlptMC0uNWE5Ljk3MSw5Ljk3MSwwLDAsMC0uMi0xLjZoMS4xYTQuMTkzLDQuMTkzLDAsMCwxLC40LDEuNlptLjUtMi4yaC0uOWE0LjUsNC41LDAsMCwwLS42LTEuMiw0LjQyOCw0LjQyOCwwLDAsMSwxLjUsMS4yWm0tMS41LDBIOS4zVjlhMi4xNzEsMi4xNzEsMCwwLDEsMS40LDEuNFpNOC44LDl2MS41SDcuNEEyLjExOCwyLjExOCwwLDAsMSw4LjgsOVptLTIuMi43aDBhNS41ODIsNS41ODIsMCwwLDEsLjgtLjUsMy4xLDMuMSwwLDAsMC0uNiwxLjNINS45QTIuNywyLjcsMCwwLDEsNi42LDkuN1pNNS4xLDEzLjJINi40YTkuOTcxLDkuOTcxLDAsMCwwLC4yLDEuNkg1LjVBNS4zNDksNS4zNDksMCwwLDEsNS4xLDEzLjJabS44LDIuMWguOWwuNiwxLjJBMy40OTEsMy40OTEsMCwwLDEsNS45LDE1LjNabTEuNSwwSDguN3YxLjVhMi40MzMsMi40MzMsMCwwLDEtMS4zLTEuNVptMS45LDEuNVYxNS4zaDEuM2ExLjk2OCwxLjk2OCwwLDAsMS0xLjMsMS41Wm0yLjItLjhoMGEyLjYyMiwyLjYyMiwwLDAsMS0uOS41LDMuMzc5LDMuMzc5LDAsMCwwLC42LTEuMmguOUExLjM0NCwxLjM0NCwwLDAsMSwxMS41LDE2WiIvPjxwYXRoIGZpbGw9IiNlNmU2ZTYiIGQ9Ik01LjEsMTEuNEE0LjAyNSw0LjAyNSwwLDAsMSwyLjksOC41LDMuNjQ2LDMuNjQ2LDAsMCwxLDQuNCw1LjZMNSw1LjFsLjUuNi0uNi41QTIuNTA5LDIuNTA5LDAsMCwwLDMuNyw4LjRhMy4wMzEsMy4wMzEsMCwwLDAsMS44LDIuM1oiLz48Y2lyY2xlIGZpbGw9IiNmMmYyZjIiIHI9IjEuMSIgY3k9IjUuNCIgY3g9IjUuMyIvPjxwYXRoIGZpbGw9IiNlNmU2ZTYiIGQ9Ik0xMi43LDExLjRsLS40LS43YTMuMjU5LDMuMjU5LDAsMCwwLDEuOC0yLjMsMi43NDgsMi43NDgsMCwwLDAtMS4yLTIuMmwtLjYtLjQuNS0uNi42LjRhMy4wNzEsMy4wNzEsMCwwLDEsMS41LDIuOUE0LjAyNSw0LjAyNSwwLDAsMSwxMi43LDExLjRaIi8+PGNpcmNsZSBmaWxsPSIjZjJmMmYyIiByPSIxLjEiIGN5PSI1LjQiIGN4PSIxMi42Ii8+PGNpcmNsZSBmaWxsPSIjY2U3NGI2IiByPSIxLjEiIGN5PSIxMS4xIiBjeD0iNS4zIi8+PGNpcmNsZSBmaWxsPSIjY2U3NGI2IiByPSIxLjEiIGN5PSIxMS4xIiBjeD0iMTIuNiIvPjwvZz48L3N2Zz4=;" vertex="1" parent="qJm_zCgtEJy5UIXxmKRQ-1">
          <mxGeometry x="609.74" y="584" width="39" height="39" as="geometry" />
        </mxCell>
        <mxCell id="-eJchFkF9iBAEgCrDTtC-0" value="firewall-swedencentral" style="shape=image;verticalLabelPosition=middle;labelBackgroundColor=none;verticalAlign=middle;aspect=fixed;imageAspect=0;editableCssRules=.*;image=data:image/svg+xml,PHN2ZyB4bWxucz0iaHR0cDovL3d3dy53My5vcmcvMjAwMC9zdmciIHZpZXdCb3g9IjAgMCAxOCAxOCIgaGVpZ2h0PSIxOCIgd2lkdGg9IjE4IiBpZD0iYWY0NjNkMzItZWMxMC00NGQ5LWE2MDctZWJhZDYzNzhhNTJiIj48ZGVmcz48bGluZWFyR3JhZGllbnQgZ3JhZGllbnRVbml0cz0idXNlclNwYWNlT25Vc2UiIHkyPSIxLjM4IiB4Mj0iOSIgeTE9IjE0LjE0IiB4MT0iOSIgaWQ9ImIwMTJkZTdiLTdhMGUtNDYxOC05ZmVjLTcwMzYyMmUzZThjMyI+PHN0b3Agc3RvcC1jb2xvcj0iIzAwNzhkNCIgb2Zmc2V0PSIwIi8+PHN0b3Agc3RvcC1jb2xvcj0iIzVlYTBlZiIgb2Zmc2V0PSIwLjgyIi8+PC9saW5lYXJHcmFkaWVudD48L2RlZnM+PHRpdGxlPkljb24tbmV0d29ya2luZy04NDwvdGl0bGU+PHBhdGggZmlsbD0idXJsKCNiMDEyZGU3Yi03YTBlLTQ2MTgtOWZlYy03MDM2MjJlM2U4YzMpIiBkPSJNMTgsMTAuMTRhNC4wNiw0LjA2LDAsMCwwLTMuNTEtMy44OUE1LjEsNS4xLDAsMCwwLDkuMjQsMS4zOGE1LjIzLDUuMjMsMCwwLDAtNSwzLjQxQTQuODIsNC44MiwwLDAsMCwwLDkuNDNhNC45LDQuOSwwLDAsMCw1LjA3LDQuNzFsLjQ0LDBoOC4yMWExLjQ2LDEuNDYsMCwwLDAsLjIyLDBBNC4xLDQuMSwwLDAsMCwxOCwxMC4xNFoiLz48cGF0aCBmaWxsPSIjODIxMDEwIiBkPSJNMTQuMjksMTEuMTlhLjQyLjQyLDAsMCwwLS40Mi0uNDFINC4xM2EuNDIuNDIsMCwwLDAtLjQyLjQxdjVhLjQyLjQyLDAsMCwwLC40Mi40MWg5Ljc0YS40Mi40MiwwLDAsMCwuNDItLjQxdi01WiIvPjxyZWN0IGZpbGw9IiNlNjIzMjMiIGhlaWdodD0iMS4yNyIgd2lkdGg9IjIuODciIHk9IjExLjM2IiB4PSI0LjMiLz48cmVjdCBmaWxsPSIjZmY3MzgxIiBoZWlnaHQ9IjEuMjciIHdpZHRoPSIyLjg3IiB5PSIxMS4zNiIgeD0iNy42Ii8+PHJlY3QgZmlsbD0iI2U2MjMyMyIgaGVpZ2h0PSIxLjI3IiB3aWR0aD0iMi44NyIgeT0iMTEuMzYiIHg9IjEwLjkiLz48cmVjdCBmaWxsPSIjZTYyMzIzIiBoZWlnaHQ9IjEuMjciIHdpZHRoPSIxLjE5IiB5PSIxMy4wNiIgeD0iNC4zIi8+PHJlY3QgZmlsbD0iI2ZmNzM4MSIgaGVpZ2h0PSIxLjI3IiB3aWR0aD0iMS4xOSIgeT0iMTMuMDYiIHg9IjEyLjU4Ii8+PHJlY3QgZmlsbD0iI2ZmNzM4MSIgaGVpZ2h0PSIxLjI3IiB3aWR0aD0iMi44NyIgeT0iMTMuMDYiIHg9IjUuOTIiLz48cmVjdCBmaWxsPSIjZTYyMzIzIiBoZWlnaHQ9IjEuMjciIHdpZHRoPSIyLjg3IiB5PSIxMy4wNiIgeD0iOS4yMyIvPjxyZWN0IGZpbGw9IiNlNjIzMjMiIGhlaWdodD0iMS4yNyIgd2lkdGg9IjIuODciIHk9IjE0Ljc2IiB4PSI0LjMiLz48cmVjdCBmaWxsPSIjZmY3MzgxIiBoZWlnaHQ9IjEuMjciIHdpZHRoPSIyLjg3IiB5PSIxNC43NiIgeD0iNy42Ii8+PHJlY3QgZmlsbD0iI2U2MjMyMyIgaGVpZ2h0PSIxLjI3IiB3aWR0aD0iMi44NyIgeT0iMTQuNzYiIHg9IjEwLjkiLz48L3N2Zz4=;labelPosition=right;align=left;" vertex="1" parent="qJm_zCgtEJy5UIXxmKRQ-1">
          <mxGeometry x="651" y="549.39" width="43.21" height="43.21" as="geometry" />
        </mxCell>
        <mxCell id="-eJchFkF9iBAEgCrDTtC-1" value="firewall-norwayeast" style="shape=image;verticalLabelPosition=middle;labelBackgroundColor=none;verticalAlign=middle;aspect=fixed;imageAspect=0;editableCssRules=.*;image=data:image/svg+xml,PHN2ZyB4bWxucz0iaHR0cDovL3d3dy53My5vcmcvMjAwMC9zdmciIHZpZXdCb3g9IjAgMCAxOCAxOCIgaGVpZ2h0PSIxOCIgd2lkdGg9IjE4IiBpZD0iYWY0NjNkMzItZWMxMC00NGQ5LWE2MDctZWJhZDYzNzhhNTJiIj48ZGVmcz48bGluZWFyR3JhZGllbnQgZ3JhZGllbnRVbml0cz0idXNlclNwYWNlT25Vc2UiIHkyPSIxLjM4IiB4Mj0iOSIgeTE9IjE0LjE0IiB4MT0iOSIgaWQ9ImIwMTJkZTdiLTdhMGUtNDYxOC05ZmVjLTcwMzYyMmUzZThjMyI+PHN0b3Agc3RvcC1jb2xvcj0iIzAwNzhkNCIgb2Zmc2V0PSIwIi8+PHN0b3Agc3RvcC1jb2xvcj0iIzVlYTBlZiIgb2Zmc2V0PSIwLjgyIi8+PC9saW5lYXJHcmFkaWVudD48L2RlZnM+PHRpdGxlPkljb24tbmV0d29ya2luZy04NDwvdGl0bGU+PHBhdGggZmlsbD0idXJsKCNiMDEyZGU3Yi03YTBlLTQ2MTgtOWZlYy03MDM2MjJlM2U4YzMpIiBkPSJNMTgsMTAuMTRhNC4wNiw0LjA2LDAsMCwwLTMuNTEtMy44OUE1LjEsNS4xLDAsMCwwLDkuMjQsMS4zOGE1LjIzLDUuMjMsMCwwLDAtNSwzLjQxQTQuODIsNC44MiwwLDAsMCwwLDkuNDNhNC45LDQuOSwwLDAsMCw1LjA3LDQuNzFsLjQ0LDBoOC4yMWExLjQ2LDEuNDYsMCwwLDAsLjIyLDBBNC4xLDQuMSwwLDAsMCwxOCwxMC4xNFoiLz48cGF0aCBmaWxsPSIjODIxMDEwIiBkPSJNMTQuMjksMTEuMTlhLjQyLjQyLDAsMCwwLS40Mi0uNDFINC4xM2EuNDIuNDIsMCwwLDAtLjQyLjQxdjVhLjQyLjQyLDAsMCwwLC40Mi40MWg5Ljc0YS40Mi40MiwwLDAsMCwuNDItLjQxdi01WiIvPjxyZWN0IGZpbGw9IiNlNjIzMjMiIGhlaWdodD0iMS4yNyIgd2lkdGg9IjIuODciIHk9IjExLjM2IiB4PSI0LjMiLz48cmVjdCBmaWxsPSIjZmY3MzgxIiBoZWlnaHQ9IjEuMjciIHdpZHRoPSIyLjg3IiB5PSIxMS4zNiIgeD0iNy42Ii8+PHJlY3QgZmlsbD0iI2U2MjMyMyIgaGVpZ2h0PSIxLjI3IiB3aWR0aD0iMi44NyIgeT0iMTEuMzYiIHg9IjEwLjkiLz48cmVjdCBmaWxsPSIjZTYyMzIzIiBoZWlnaHQ9IjEuMjciIHdpZHRoPSIxLjE5IiB5PSIxMy4wNiIgeD0iNC4zIi8+PHJlY3QgZmlsbD0iI2ZmNzM4MSIgaGVpZ2h0PSIxLjI3IiB3aWR0aD0iMS4xOSIgeT0iMTMuMDYiIHg9IjEyLjU4Ii8+PHJlY3QgZmlsbD0iI2ZmNzM4MSIgaGVpZ2h0PSIxLjI3IiB3aWR0aD0iMi44NyIgeT0iMTMuMDYiIHg9IjUuOTIiLz48cmVjdCBmaWxsPSIjZTYyMzIzIiBoZWlnaHQ9IjEuMjciIHdpZHRoPSIyLjg3IiB5PSIxMy4wNiIgeD0iOS4yMyIvPjxyZWN0IGZpbGw9IiNlNjIzMjMiIGhlaWdodD0iMS4yNyIgd2lkdGg9IjIuODciIHk9IjE0Ljc2IiB4PSI0LjMiLz48cmVjdCBmaWxsPSIjZmY3MzgxIiBoZWlnaHQ9IjEuMjciIHdpZHRoPSIyLjg3IiB5PSIxNC43NiIgeD0iNy42Ii8+PHJlY3QgZmlsbD0iI2U2MjMyMyIgaGVpZ2h0PSIxLjI3IiB3aWR0aD0iMi44NyIgeT0iMTQuNzYiIHg9IjEwLjkiLz48L3N2Zz4=;labelPosition=right;align=left;" vertex="1" parent="qJm_zCgtEJy5UIXxmKRQ-1">
          <mxGeometry x="288" y="549.39" width="43.21" height="43.21" as="geometry" />
        </mxCell>
      </root>
    </mxGraphModel>
  </diagram>
  <diagram name="after lab-03" id="8j8lJcSdOwkCO-LwOHrl">
    <mxGraphModel dx="2074" dy="1196" grid="0" gridSize="10" guides="1" tooltips="1" connect="1" arrows="1" fold="1" page="0" pageScale="1" pageWidth="850" pageHeight="1100" math="0" shadow="0">
      <root>
        <mxCell id="M5w1i085SVXqvJ3ANIoE-0" />
        <mxCell id="M5w1i085SVXqvJ3ANIoE-1" parent="M5w1i085SVXqvJ3ANIoE-0" />
        <mxCell id="M5w1i085SVXqvJ3ANIoE-2" value="" style="rounded=1;whiteSpace=wrap;html=1;fillColor=#dae8fc;strokeColor=#6c8ebf;" vertex="1" parent="M5w1i085SVXqvJ3ANIoE-1">
          <mxGeometry x="206.5" y="275" width="282.5" height="158" as="geometry" />
        </mxCell>
        <mxCell id="M5w1i085SVXqvJ3ANIoE-3" value="" style="rounded=1;whiteSpace=wrap;html=1;fillColor=#dae8fc;strokeColor=#6c8ebf;" vertex="1" parent="M5w1i085SVXqvJ3ANIoE-1">
          <mxGeometry x="212" y="505" width="642" height="166" as="geometry" />
        </mxCell>
        <mxCell id="M5w1i085SVXqvJ3ANIoE-4" value="Hub to hub&lt;div&gt;connectivity&lt;/div&gt;" style="edgeStyle=orthogonalEdgeStyle;rounded=0;orthogonalLoop=1;jettySize=auto;html=1;endArrow=none;startFill=0;dashed=1;dashPattern=8 8;labelBackgroundColor=none;" edge="1" parent="M5w1i085SVXqvJ3ANIoE-1" source="M5w1i085SVXqvJ3ANIoE-5" target="M5w1i085SVXqvJ3ANIoE-30">
          <mxGeometry relative="1" as="geometry" />
        </mxCell>
        <mxCell id="M5w1i085SVXqvJ3ANIoE-5" value="" style="rounded=0;whiteSpace=wrap;html=1;" vertex="1" parent="M5w1i085SVXqvJ3ANIoE-1">
          <mxGeometry x="265" y="535" width="202" height="72" as="geometry" />
        </mxCell>
        <mxCell id="M5w1i085SVXqvJ3ANIoE-6" value="vwan" style="shape=image;verticalLabelPosition=middle;labelBackgroundColor=none;verticalAlign=middle;aspect=fixed;imageAspect=0;editableCssRules=.*;image=data:image/svg+xml,PHN2ZyB4bWxucz0iaHR0cDovL3d3dy53My5vcmcvMjAwMC9zdmciIHZpZXdCb3g9IjAgMCAxOCAxOCIgaGVpZ2h0PSIxOCIgd2lkdGg9IjE4Ij48ZGVmcz48bGluZWFyR3JhZGllbnQgZ3JhZGllbnRVbml0cz0idXNlclNwYWNlT25Vc2UiIHkyPSI3LjAxOSIgeDI9IjkiIHkxPSIxMy40OCIgeDE9IjkiIGlkPSJmOTBjZTNiOS05OTE2LTQ2ZDItOGZlZC0wMzc4YjNiMDRkZTYiPjxzdG9wIHN0b3AtY29sb3I9IiMwMDc4ZDQiIG9mZnNldD0iMCIvPjxzdG9wIHN0b3AtY29sb3I9IiM1ZWEwZWYiIG9mZnNldD0iMC43NzUiLz48L2xpbmVhckdyYWRpZW50PjxsaW5lYXJHcmFkaWVudCBncmFkaWVudFVuaXRzPSJ1c2VyU3BhY2VPblVzZSIgeTI9IjEwLjQ5NSIgeDI9IjkuMDE3IiB5MT0iOS41MTgiIHgxPSI5LjAxNyIgaWQ9ImIwZTI1YjViLTY5YmEtNDI2Mi1iODc0LTMzNDBkMWUzMTFmMCI+PHN0b3Agc3RvcC1jb2xvcj0iI2ZmZiIgb2Zmc2V0PSIwIi8+PHN0b3Agc3RvcC1vcGFjaXR5PSIwLjYiIHN0b3AtY29sb3I9IiNmZmYiIG9mZnNldD0iMSIvPjwvbGluZWFyR3JhZGllbnQ+PC9kZWZzPjxnIGlkPSJhMTAxZDNiZS05NDE4LTQyODItOTM3Mi02ODEyYjMwNDAxM2IiPjxwb2x5Z29uIGZpbGw9IiM5Y2ViZmYiIHBvaW50cz0iMTQuMjg4IDkuNDUzIDE0LjI4OCA5LjQ1OSAxNi45OTMgOS4zOTcgMTYuOTc0IDguNTUzIDE0LjI4NiA4LjYxNSAxNC4yODYgOC41OTkgMTIuMDQyIDguMzQxIDEyLjA0MiA1Ljg5OSAxMi4wMzYgNS44ODggMTMuNjI0IDEuODI2IDEyLjgzNiAxLjUyNCAxMS4yMzcgNS42MTMgMTEuMjM5IDUuNjE0IDkuNTIxIDcuNTk3IDYuODE1IDUuNTk3IDYuNzggNS41NjggNS4xOTggMS41MjQgNC40MSAxLjgyNiA2LjAxIDUuOTE2IDYuMDMxIDUuOTA4IDcuNDgyIDkuMDgzIDMuOTk2IDguNTk5IDMuOTc5IDguNjI3IDMuOTc5IDguNjE1IDEuMzA0IDguNTUzIDEuMjg0IDkuMzk3IDMuOTU5IDkuNDU5IDMuOTY2IDkuMTcgNS43MzMgOS43MzMgNi4wODQgMTAuOTIzIDYuMDUgMTIuMjkxIDQuNDUgMTYuMzggNS4yMzggMTYuNjgzIDYuODM4IDEyLjU5MyA2LjcwOCAxMi41NDMgNy45NjkgMTEuMzE5IDExLjI1NCAxMi4wOTYgMTEuNjY1IDEyLjQ0NCAxMS4yNzcgMTIuNTkzIDEyLjg3NiAxNi42ODMgMTMuNjY0IDE2LjM4IDEyLjA2NSAxMi4yOTEgMTIuMDM2IDEyLjMwMiAxMi4yNzEgMTAuNjAxIDE0LjI4OCA5LjQ1MyIvPjxwYXRoIGZpbGw9IiM4NmQ2MzMiIGQ9Ik0xOCw5LjAzN2ExLjI5NCwxLjI5NCwwLDEsMS0xLjI5NC0xLjI5NEExLjI5NCwxLjI5NCwwLDAsMSwxOCw5LjAzN1pNMS4yOTQsNy43NDNBMS4yOTQsMS4yOTQsMCwxLDAsMi41ODgsOS4wMzcsMS4yOTQsMS4yOTQsMCwwLDAsMS4yOTQsNy43NDNabTMuNDc5LDcuNjQ2YTEuMjk0LDEuMjk0LDAsMSwwLDEuMjkzLDEuMjk0QTEuMjk0LDEuMjk0LDAsMCwwLDQuNzczLDE1LjM4OVptOC42OCwwYTEuMjk0LDEuMjk0LDAsMSwwLDEuMjkzLDEuMjk0QTEuMjk0LDEuMjk0LDAsMCwwLDEzLjQ1MywxNS4zODlaTTQuNjMyLjAyNEExLjI5NCwxLjI5NCwwLDEsMCw1LjkyNiwxLjMxNywxLjI5MywxLjI5MywwLDAsMCw0LjYzMi4wMjRabTguOTE2LDBhMS4yOTQsMS4yOTQsMCwxLDAsMS4yOTMsMS4yOTNBMS4yOTMsMS4yOTMsMCwwLDAsMTMuNTQ4LjAyNFoiLz48cGF0aCBmaWxsPSJ1cmwoI2Y5MGNlM2I5LTk5MTYtNDZkMi04ZmVkLTAzNzhiM2IwNGRlNikiIGQ9Ik0zLjUzMyw3LjAxOUgxNC40NjdhMCwwLDAsMCwxLDAsMHY2LjFhLjM2NS4zNjUsMCwwLDEtLjM2NS4zNjVIMy45YS4zNjUuMzY1LDAsMCwxLS4zNjUtLjM2NXYtNi4xQTAsMCwwLDAsMSwzLjUzMyw3LjAxOVoiLz48cGF0aCBmaWxsPSIjMDA3OGQ0IiBkPSJNMy45LDQuNjg5SDE0LjFhLjM2NS4zNjUsMCwwLDEsLjM2NS4zNjVWNy4wMTlhMCwwLDAsMCwxLDAsMEgzLjUzNWEwLDAsMCwwLDEsMCwwVjUuMDU0QS4zNjUuMzY1LDAsMCwxLDMuOSw0LjY4OVoiLz48cGF0aCBmaWxsPSJ1cmwoI2IwZTI1YjViLTY5YmEtNDI2Mi1iODc0LTMzNDBkMWUzMTFmMCkiIGQ9Ik0xMC41Nyw5LjUxNWEuNDg3LjQ4NywwLDEsMS0uNDg3LjQ4N0EuNDg3LjQ4NywwLDAsMSwxMC41Nyw5LjUxNVptLTIuMDM5LjQ5MWEuNDg3LjQ4NywwLDEsMCwuNDg2LS40ODdBLjQ4Ny40ODcsMCwwLDAsOC41MzEsMTAuMDA2Wm0tMS41NTMsMGEuNDg3LjQ4NywwLDEsMCwuNDg3LS40ODdBLjQ4Ny40ODcsMCwwLDAsNi45NzgsMTAuMDA2WiIvPjxwYXRoIGZpbGw9IiNmZmYiIGQ9Ik03LjgxOCwxMS45NTJsLS4yNzguMjc5YS4xMjYuMTI2LDAsMCwxLS4xNzgsMGgwTDUuMywxMC4xNzVhLjI1MS4yNTEsMCwwLDEsMC0uMzU2aDBsLjI3OC0uMjc5aDBsMi4yNCwyLjIzNGEuMTI2LjEyNiwwLDAsMSwwLC4xNzhabTQuNjA1LTIuNDE2LTIuMjQsMi4yMzRoMGEuMTI1LjEyNSwwLDAsMCwwLC4xNzhsLjI3OS4yNzloMGEuMTI1LjEyNSwwLDAsMCwuMTc4LDBMMTIuNywxMC4xNzFoMGEuMjUyLjI1MiwwLDAsMCwwLS4zNTZsLS4yNzgtLjI3OVoiLz48cGF0aCBvcGFjaXR5PSIwLjgiIGZpbGw9IiNmZmYiIGQ9Ik03LjUsNy43ODZsLjI3OS4yNzhhLjEyNi4xMjYsMCwwLDEsMCwuMTc4bC0yLjIsMi4yMDhoMEw1LjMsMTAuMTcxYS4yNTEuMjUxLDAsMCwxLDAtLjM1NmgwTDcuMzIsNy43ODZBLjEyNi4xMjYsMCwwLDEsNy41LDcuNzg2Wm01LjIsMi4zNzloMGEuMjUxLjI1MSwwLDAsMCwwLS4zNTZMMTAuNjgsNy43OGgwYS4xMjYuMTI2LDAsMCwwLS4xNzgsMGwtLjI4Mi4yODJoMGEuMTI2LjEyNiwwLDAsMCwwLC4xNzhsMi4yLDIuMjA3aDBsLjI3OS0uMjc5WiIvPjwvZz48L3N2Zz4=;labelPosition=left;align=right;spacingRight=5;" vertex="1" parent="M5w1i085SVXqvJ3ANIoE-1">
          <mxGeometry x="185" y="477" width="67" height="67" as="geometry" />
        </mxCell>
        <mxCell id="M5w1i085SVXqvJ3ANIoE-7" value="hub-norwayeast&#xa;10.9.0.0/23" style="shape=image;verticalLabelPosition=bottom;labelBackgroundColor=none;verticalAlign=top;aspect=fixed;imageAspect=0;editableCssRules=.*;image=data:image/svg+xml,PHN2ZyB4bWxucz0iaHR0cDovL3d3dy53My5vcmcvMjAwMC9zdmciIHZpZXdCb3g9IjAgMCAxOCAxOCIgaGVpZ2h0PSIxOCIgd2lkdGg9IjE4IiBpZD0iYTUxMGExMjAtZThhZi00ZmUwLTgzMWUtNjdlYmU5YzQzNjhiIj48ZGVmcz48bGluZWFyR3JhZGllbnQgZ3JhZGllbnRVbml0cz0idXNlclNwYWNlT25Vc2UiIGdyYWRpZW50VHJhbnNmb3JtPSJ0cmFuc2xhdGUoMCAtMTYwKSIgeTI9IjE2MC42MTMiIHgyPSI5IiB5MT0iMTcyLjcwNCIgeDE9IjkiIGlkPSJhMDA5YWNjMS02ZTAzLTQ5NjktODFjYS1iMTU3YjU4YTJmNjkiPjxzdG9wIHN0b3AtY29sb3I9IiMxOThhYjMiIG9mZnNldD0iMCIvPjxzdG9wIHN0b3AtY29sb3I9IiMyMmE1Y2IiIG9mZnNldD0iMC4xMSIvPjxzdG9wIHN0b3AtY29sb3I9IiMyOWJhZGUiIG9mZnNldD0iMC4yMyIvPjxzdG9wIHN0b3AtY29sb3I9IiMyZWM5ZWIiIG9mZnNldD0iMC4zNyIvPjxzdG9wIHN0b3AtY29sb3I9IiMzMWQxZjMiIG9mZnNldD0iMC41MyIvPjxzdG9wIHN0b3AtY29sb3I9IiMzMmQ0ZjUiIG9mZnNldD0iMC43OCIvPjwvbGluZWFyR3JhZGllbnQ+PC9kZWZzPjxnPjxwYXRoIGZpbGw9InVybCgjYTAwOWFjYzEtNmUwMy00OTY5LTgxY2EtYjE1N2I1OGEyZjY5KSIgZD0iTTE3LjUsOC45YTMuODU0LDMuODU0LDAsMCwwLTMuMy0zLjdBNC44NzEsNC44NzEsMCwwLDAsOS4yLjYsNS4wMTEsNS4wMTEsMCwwLDAsNC41LDMuOGE0LjY5Myw0LjY5MywwLDAsMC00LDQuNCw0LjYxMiw0LjYxMiwwLDAsMCw0LjgsNC41aDguNEEzLjgsMy44LDAsMCwwLDE3LjUsOC45WiIvPjxjaXJjbGUgZmlsbD0iI2YyZjJmMiIgcj0iNC40IiBjeT0iMTIuOSIgY3g9IjkiLz48cGF0aCBmaWxsPSIjMDA3OGQ0IiBkPSJNMTIuNywxMC4xYTQuNiw0LjYsMCwwLDAtNi40LS45aDBhNC41NjEsNC41NjEsMCwxLDAsNS42LDcuMmgwQTQuNTU3LDQuNTU3LDAsMCwwLDEyLjcsMTAuMVpNNS4xLDEyLjZBNC43MDcsNC43MDcsMCwwLDEsNS41LDExSDYuNmE3Ljc3Miw3Ljc3MiwwLDAsMC0uMiwxLjZaTTcuMiwxMUg4Ljd2MS42SDdBNy43NzIsNy43NzIsMCwwLDEsNy4yLDExWm0yLjEsMGgxLjVhNy43NzIsNy43NzIsMCwwLDEsLjIsMS42SDkuM1ptLS41LDIuMXYxLjZINy4ybC0uMy0xLjVabS41LDBoMS44YTkuOTcxLDkuOTcxLDAsMCwxLS4yLDEuNkg5LjNabTIuNCwwSDEzYTQuNzA3LDQuNzA3LDAsMCwxLS40LDEuNkgxMS41YTcuNzcyLDcuNzcyLDAsMCwwLC4yLTEuNlptMC0uNWE5Ljk3MSw5Ljk3MSwwLDAsMC0uMi0xLjZoMS4xYTQuMTkzLDQuMTkzLDAsMCwxLC40LDEuNlptLjUtMi4yaC0uOWE0LjUsNC41LDAsMCwwLS42LTEuMiw0LjQyOCw0LjQyOCwwLDAsMSwxLjUsMS4yWm0tMS41LDBIOS4zVjlhMi4xNzEsMi4xNzEsMCwwLDEsMS40LDEuNFpNOC44LDl2MS41SDcuNEEyLjExOCwyLjExOCwwLDAsMSw4LjgsOVptLTIuMi43aDBhNS41ODIsNS41ODIsMCwwLDEsLjgtLjUsMy4xLDMuMSwwLDAsMC0uNiwxLjNINS45QTIuNywyLjcsMCwwLDEsNi42LDkuN1pNNS4xLDEzLjJINi40YTkuOTcxLDkuOTcxLDAsMCwwLC4yLDEuNkg1LjVBNS4zNDksNS4zNDksMCwwLDEsNS4xLDEzLjJabS44LDIuMWguOWwuNiwxLjJBMy40OTEsMy40OTEsMCwwLDEsNS45LDE1LjNabTEuNSwwSDguN3YxLjVhMi40MzMsMi40MzMsMCwwLDEtMS4zLTEuNVptMS45LDEuNVYxNS4zaDEuM2ExLjk2OCwxLjk2OCwwLDAsMS0xLjMsMS41Wm0yLjItLjhoMGEyLjYyMiwyLjYyMiwwLDAsMS0uOS41LDMuMzc5LDMuMzc5LDAsMCwwLC42LTEuMmguOUExLjM0NCwxLjM0NCwwLDAsMSwxMS41LDE2WiIvPjxwYXRoIGZpbGw9IiNlNmU2ZTYiIGQ9Ik01LjEsMTEuNEE0LjAyNSw0LjAyNSwwLDAsMSwyLjksOC41LDMuNjQ2LDMuNjQ2LDAsMCwxLDQuNCw1LjZMNSw1LjFsLjUuNi0uNi41QTIuNTA5LDIuNTA5LDAsMCwwLDMuNyw4LjRhMy4wMzEsMy4wMzEsMCwwLDAsMS44LDIuM1oiLz48Y2lyY2xlIGZpbGw9IiNmMmYyZjIiIHI9IjEuMSIgY3k9IjUuNCIgY3g9IjUuMyIvPjxwYXRoIGZpbGw9IiNlNmU2ZTYiIGQ9Ik0xMi43LDExLjRsLS40LS43YTMuMjU5LDMuMjU5LDAsMCwwLDEuOC0yLjMsMi43NDgsMi43NDgsMCwwLDAtMS4yLTIuMmwtLjYtLjQuNS0uNi42LjRhMy4wNzEsMy4wNzEsMCwwLDEsMS41LDIuOUE0LjAyNSw0LjAyNSwwLDAsMSwxMi43LDExLjRaIi8+PGNpcmNsZSBmaWxsPSIjZjJmMmYyIiByPSIxLjEiIGN5PSI1LjQiIGN4PSIxMi42Ii8+PGNpcmNsZSBmaWxsPSIjY2U3NGI2IiByPSIxLjEiIGN5PSIxMS4xIiBjeD0iNS4zIi8+PGNpcmNsZSBmaWxsPSIjY2U3NGI2IiByPSIxLjEiIGN5PSIxMS4xIiBjeD0iMTIuNiIvPjwvZz48L3N2Zz4=;" vertex="1" parent="M5w1i085SVXqvJ3ANIoE-1">
          <mxGeometry x="249" y="586" width="39" height="39" as="geometry" />
        </mxCell>
        <mxCell id="M5w1i085SVXqvJ3ANIoE-8" value="" style="rounded=0;whiteSpace=wrap;html=1;" vertex="1" parent="M5w1i085SVXqvJ3ANIoE-1">
          <mxGeometry x="241.5" y="304" width="208" height="87" as="geometry" />
        </mxCell>
        <mxCell id="M5w1i085SVXqvJ3ANIoE-9" value="workload-norwayeast&lt;div&gt;spoke vnet&lt;div&gt;10.9.2.0/26&lt;br&gt;&lt;/div&gt;&lt;/div&gt;" style="image;sketch=0;aspect=fixed;html=1;points=[];align=right;fontSize=12;image=img/lib/mscae/Virtual_Network.svg;labelPosition=left;verticalLabelPosition=middle;verticalAlign=middle;spacingRight=5;" vertex="1" parent="M5w1i085SVXqvJ3ANIoE-1">
          <mxGeometry x="191.5" y="263" width="50" height="28.000000000000004" as="geometry" />
        </mxCell>
        <mxCell id="M5w1i085SVXqvJ3ANIoE-10" value="workload-snet&lt;div&gt;10.9.2.0/26&lt;br&gt;&lt;/div&gt;" style="image;aspect=fixed;html=1;points=[];align=center;fontSize=12;image=img/lib/azure2/networking/Subnet.svg;labelBackgroundColor=none;" vertex="1" parent="M5w1i085SVXqvJ3ANIoE-1">
          <mxGeometry x="412.5" y="369" width="33.4" height="20" as="geometry" />
        </mxCell>
        <mxCell id="M5w1i085SVXqvJ3ANIoE-11" value="workload-norwayeast-vm" style="image;aspect=fixed;html=1;points=[];align=center;fontSize=12;image=img/lib/azure2/compute/Virtual_Machine.svg;" vertex="1" parent="M5w1i085SVXqvJ3ANIoE-1">
          <mxGeometry x="321.51" y="313" width="40.97" height="38" as="geometry" />
        </mxCell>
        <mxCell id="M5w1i085SVXqvJ3ANIoE-12" value="Peering" style="edgeStyle=orthogonalEdgeStyle;rounded=0;orthogonalLoop=1;jettySize=auto;html=1;entryX=0.405;entryY=0.038;entryDx=0;entryDy=0;endArrow=none;startFill=0;entryPerimeter=0;" edge="1" parent="M5w1i085SVXqvJ3ANIoE-1" source="M5w1i085SVXqvJ3ANIoE-2" target="M5w1i085SVXqvJ3ANIoE-5">
          <mxGeometry x="-0.2172" relative="1" as="geometry">
            <mxPoint as="offset" />
          </mxGeometry>
        </mxCell>
        <mxCell id="M5w1i085SVXqvJ3ANIoE-13" value="" style="rounded=1;whiteSpace=wrap;html=1;fillColor=#dae8fc;strokeColor=#6c8ebf;" vertex="1" parent="M5w1i085SVXqvJ3ANIoE-1">
          <mxGeometry x="209" y="757" width="279" height="154" as="geometry" />
        </mxCell>
        <mxCell id="M5w1i085SVXqvJ3ANIoE-14" value="" style="rounded=0;whiteSpace=wrap;html=1;" vertex="1" parent="M5w1i085SVXqvJ3ANIoE-1">
          <mxGeometry x="244" y="782" width="208" height="87" as="geometry" />
        </mxCell>
        <mxCell id="M5w1i085SVXqvJ3ANIoE-15" value="onprem-snet&lt;div&gt;10.1.0.128/25&lt;br&gt;&lt;/div&gt;" style="image;aspect=fixed;html=1;points=[];align=center;fontSize=12;image=img/lib/azure2/networking/Subnet.svg;labelBackgroundColor=none;" vertex="1" parent="M5w1i085SVXqvJ3ANIoE-1">
          <mxGeometry x="415" y="847" width="33.4" height="20" as="geometry" />
        </mxCell>
        <mxCell id="M5w1i085SVXqvJ3ANIoE-16" value="onprem-norwayeast-vm" style="image;aspect=fixed;html=1;points=[];align=center;fontSize=12;image=img/lib/azure2/compute/Virtual_Machine.svg;" vertex="1" parent="M5w1i085SVXqvJ3ANIoE-1">
          <mxGeometry x="324.01" y="791" width="40.97" height="38" as="geometry" />
        </mxCell>
        <mxCell id="M5w1i085SVXqvJ3ANIoE-17" value="onprem-norwayeast&amp;nbsp;&lt;span style=&quot;background-color: light-dark(#ffffff, var(--ge-dark-color, #121212)); color: light-dark(rgb(0, 0, 0), rgb(255, 255, 255));&quot;&gt;vnet&lt;/span&gt;&lt;div&gt;&lt;div&gt;10.1.0.0/24&lt;/div&gt;&lt;/div&gt;" style="image;sketch=0;aspect=fixed;html=1;points=[];align=right;fontSize=12;image=img/lib/mscae/Exchange_On_premises_Access.svg;labelPosition=left;verticalLabelPosition=middle;verticalAlign=middle;spacingTop=0;spacingLeft=0;spacingRight=5;" vertex="1" parent="M5w1i085SVXqvJ3ANIoE-1">
          <mxGeometry x="201.49999999999997" y="736" width="25.52" height="44" as="geometry" />
        </mxCell>
        <mxCell id="M5w1i085SVXqvJ3ANIoE-18" value="S2S VPN" style="edgeStyle=orthogonalEdgeStyle;rounded=0;orthogonalLoop=1;jettySize=auto;html=1;entryX=0.5;entryY=0;entryDx=0;entryDy=0;endArrow=none;startFill=0;exitX=0.411;exitY=1.018;exitDx=0;exitDy=0;exitPerimeter=0;" edge="1" parent="M5w1i085SVXqvJ3ANIoE-1" source="M5w1i085SVXqvJ3ANIoE-5" target="M5w1i085SVXqvJ3ANIoE-14">
          <mxGeometry x="0.0857" relative="1" as="geometry">
            <mxPoint as="offset" />
          </mxGeometry>
        </mxCell>
        <mxCell id="M5w1i085SVXqvJ3ANIoE-19" value="Peering" style="edgeStyle=orthogonalEdgeStyle;rounded=0;orthogonalLoop=1;jettySize=auto;html=1;endArrow=none;startFill=0;" edge="1" parent="M5w1i085SVXqvJ3ANIoE-1" source="M5w1i085SVXqvJ3ANIoE-20">
          <mxGeometry x="-0.3223" relative="1" as="geometry">
            <mxPoint x="708" y="539" as="targetPoint" />
            <mxPoint as="offset" />
          </mxGeometry>
        </mxCell>
        <mxCell id="M5w1i085SVXqvJ3ANIoE-20" value="" style="rounded=1;whiteSpace=wrap;html=1;fillColor=#d5e8d4;strokeColor=#82b366;" vertex="1" parent="M5w1i085SVXqvJ3ANIoE-1">
          <mxGeometry x="565.74" y="278" width="285" height="155" as="geometry" />
        </mxCell>
        <mxCell id="M5w1i085SVXqvJ3ANIoE-21" value="" style="rounded=0;whiteSpace=wrap;html=1;" vertex="1" parent="M5w1i085SVXqvJ3ANIoE-1">
          <mxGeometry x="600.74" y="304" width="208" height="87" as="geometry" />
        </mxCell>
        <mxCell id="M5w1i085SVXqvJ3ANIoE-22" value="workload-swedencentral&lt;div&gt;spoke vnet&lt;div&gt;10.9.3.0/26&lt;br&gt;&lt;/div&gt;&lt;/div&gt;" style="image;sketch=0;aspect=fixed;html=1;points=[];align=left;fontSize=12;image=img/lib/mscae/Virtual_Network.svg;labelPosition=right;verticalLabelPosition=middle;verticalAlign=middle;spacingLeft=5;" vertex="1" parent="M5w1i085SVXqvJ3ANIoE-1">
          <mxGeometry x="808.74" y="267" width="50" height="28.000000000000004" as="geometry" />
        </mxCell>
        <mxCell id="M5w1i085SVXqvJ3ANIoE-23" value="workload-snet&lt;div&gt;10.9.3.0/26&lt;br&gt;&lt;/div&gt;" style="image;aspect=fixed;html=1;points=[];align=center;fontSize=12;image=img/lib/azure2/networking/Subnet.svg;labelBackgroundColor=none;" vertex="1" parent="M5w1i085SVXqvJ3ANIoE-1">
          <mxGeometry x="771.74" y="369" width="33.4" height="20" as="geometry" />
        </mxCell>
        <mxCell id="M5w1i085SVXqvJ3ANIoE-24" value="workload-sweencentral-vm" style="image;aspect=fixed;html=1;points=[];align=center;fontSize=12;image=img/lib/azure2/compute/Virtual_Machine.svg;" vertex="1" parent="M5w1i085SVXqvJ3ANIoE-1">
          <mxGeometry x="680.75" y="313" width="40.97" height="38" as="geometry" />
        </mxCell>
        <mxCell id="M5w1i085SVXqvJ3ANIoE-25" value="" style="rounded=1;whiteSpace=wrap;html=1;fillColor=#d5e8d4;strokeColor=#82b366;" vertex="1" parent="M5w1i085SVXqvJ3ANIoE-1">
          <mxGeometry x="565.74" y="755" width="279" height="159" as="geometry" />
        </mxCell>
        <mxCell id="M5w1i085SVXqvJ3ANIoE-26" value="" style="rounded=0;whiteSpace=wrap;html=1;" vertex="1" parent="M5w1i085SVXqvJ3ANIoE-1">
          <mxGeometry x="600.74" y="785" width="208" height="87" as="geometry" />
        </mxCell>
        <mxCell id="M5w1i085SVXqvJ3ANIoE-27" value="onprem-snet&lt;div&gt;10.2.0.128/25&lt;br&gt;&lt;/div&gt;" style="image;aspect=fixed;html=1;points=[];align=center;fontSize=12;image=img/lib/azure2/networking/Subnet.svg;labelBackgroundColor=none;" vertex="1" parent="M5w1i085SVXqvJ3ANIoE-1">
          <mxGeometry x="771.74" y="850" width="33.4" height="20" as="geometry" />
        </mxCell>
        <mxCell id="M5w1i085SVXqvJ3ANIoE-28" value="onprem-swedencentral-vm" style="image;aspect=fixed;html=1;points=[];align=center;fontSize=12;image=img/lib/azure2/compute/Virtual_Machine.svg;" vertex="1" parent="M5w1i085SVXqvJ3ANIoE-1">
          <mxGeometry x="680.75" y="794" width="40.97" height="38" as="geometry" />
        </mxCell>
        <mxCell id="M5w1i085SVXqvJ3ANIoE-29" value="onprem-swedencentral&amp;nbsp;&lt;span style=&quot;background-color: light-dark(#ffffff, var(--ge-dark-color, #121212)); color: light-dark(rgb(0, 0, 0), rgb(255, 255, 255));&quot;&gt;vnet&lt;/span&gt;&lt;div&gt;&lt;div&gt;10.2.0.0/24&lt;/div&gt;&lt;/div&gt;" style="image;sketch=0;aspect=fixed;html=1;points=[];align=left;fontSize=12;image=img/lib/mscae/Exchange_On_premises_Access.svg;labelPosition=right;verticalLabelPosition=middle;verticalAlign=middle;spacingTop=0;spacingLeft=5;spacingRight=4;" vertex="1" parent="M5w1i085SVXqvJ3ANIoE-1">
          <mxGeometry x="828.48" y="730" width="25.52" height="44" as="geometry" />
        </mxCell>
        <mxCell id="M5w1i085SVXqvJ3ANIoE-30" value="" style="rounded=0;whiteSpace=wrap;html=1;" vertex="1" parent="M5w1i085SVXqvJ3ANIoE-1">
          <mxGeometry x="624.74" y="535" width="208.26" height="72" as="geometry" />
        </mxCell>
        <mxCell id="M5w1i085SVXqvJ3ANIoE-31" value="hub-swedencentral&#xa;10.8.0.0/23" style="shape=image;verticalLabelPosition=bottom;labelBackgroundColor=none;verticalAlign=top;aspect=fixed;imageAspect=0;editableCssRules=.*;image=data:image/svg+xml,PHN2ZyB4bWxucz0iaHR0cDovL3d3dy53My5vcmcvMjAwMC9zdmciIHZpZXdCb3g9IjAgMCAxOCAxOCIgaGVpZ2h0PSIxOCIgd2lkdGg9IjE4IiBpZD0iYTUxMGExMjAtZThhZi00ZmUwLTgzMWUtNjdlYmU5YzQzNjhiIj48ZGVmcz48bGluZWFyR3JhZGllbnQgZ3JhZGllbnRVbml0cz0idXNlclNwYWNlT25Vc2UiIGdyYWRpZW50VHJhbnNmb3JtPSJ0cmFuc2xhdGUoMCAtMTYwKSIgeTI9IjE2MC42MTMiIHgyPSI5IiB5MT0iMTcyLjcwNCIgeDE9IjkiIGlkPSJhMDA5YWNjMS02ZTAzLTQ5NjktODFjYS1iMTU3YjU4YTJmNjkiPjxzdG9wIHN0b3AtY29sb3I9IiMxOThhYjMiIG9mZnNldD0iMCIvPjxzdG9wIHN0b3AtY29sb3I9IiMyMmE1Y2IiIG9mZnNldD0iMC4xMSIvPjxzdG9wIHN0b3AtY29sb3I9IiMyOWJhZGUiIG9mZnNldD0iMC4yMyIvPjxzdG9wIHN0b3AtY29sb3I9IiMyZWM5ZWIiIG9mZnNldD0iMC4zNyIvPjxzdG9wIHN0b3AtY29sb3I9IiMzMWQxZjMiIG9mZnNldD0iMC41MyIvPjxzdG9wIHN0b3AtY29sb3I9IiMzMmQ0ZjUiIG9mZnNldD0iMC43OCIvPjwvbGluZWFyR3JhZGllbnQ+PC9kZWZzPjxnPjxwYXRoIGZpbGw9InVybCgjYTAwOWFjYzEtNmUwMy00OTY5LTgxY2EtYjE1N2I1OGEyZjY5KSIgZD0iTTE3LjUsOC45YTMuODU0LDMuODU0LDAsMCwwLTMuMy0zLjdBNC44NzEsNC44NzEsMCwwLDAsOS4yLjYsNS4wMTEsNS4wMTEsMCwwLDAsNC41LDMuOGE0LjY5Myw0LjY5MywwLDAsMC00LDQuNCw0LjYxMiw0LjYxMiwwLDAsMCw0LjgsNC41aDguNEEzLjgsMy44LDAsMCwwLDE3LjUsOC45WiIvPjxjaXJjbGUgZmlsbD0iI2YyZjJmMiIgcj0iNC40IiBjeT0iMTIuOSIgY3g9IjkiLz48cGF0aCBmaWxsPSIjMDA3OGQ0IiBkPSJNMTIuNywxMC4xYTQuNiw0LjYsMCwwLDAtNi40LS45aDBhNC41NjEsNC41NjEsMCwxLDAsNS42LDcuMmgwQTQuNTU3LDQuNTU3LDAsMCwwLDEyLjcsMTAuMVpNNS4xLDEyLjZBNC43MDcsNC43MDcsMCwwLDEsNS41LDExSDYuNmE3Ljc3Miw3Ljc3MiwwLDAsMC0uMiwxLjZaTTcuMiwxMUg4Ljd2MS42SDdBNy43NzIsNy43NzIsMCwwLDEsNy4yLDExWm0yLjEsMGgxLjVhNy43NzIsNy43NzIsMCwwLDEsLjIsMS42SDkuM1ptLS41LDIuMXYxLjZINy4ybC0uMy0xLjVabS41LDBoMS44YTkuOTcxLDkuOTcxLDAsMCwxLS4yLDEuNkg5LjNabTIuNCwwSDEzYTQuNzA3LDQuNzA3LDAsMCwxLS40LDEuNkgxMS41YTcuNzcyLDcuNzcyLDAsMCwwLC4yLTEuNlptMC0uNWE5Ljk3MSw5Ljk3MSwwLDAsMC0uMi0xLjZoMS4xYTQuMTkzLDQuMTkzLDAsMCwxLC40LDEuNlptLjUtMi4yaC0uOWE0LjUsNC41LDAsMCwwLS42LTEuMiw0LjQyOCw0LjQyOCwwLDAsMSwxLjUsMS4yWm0tMS41LDBIOS4zVjlhMi4xNzEsMi4xNzEsMCwwLDEsMS40LDEuNFpNOC44LDl2MS41SDcuNEEyLjExOCwyLjExOCwwLDAsMSw4LjgsOVptLTIuMi43aDBhNS41ODIsNS41ODIsMCwwLDEsLjgtLjUsMy4xLDMuMSwwLDAsMC0uNiwxLjNINS45QTIuNywyLjcsMCwwLDEsNi42LDkuN1pNNS4xLDEzLjJINi40YTkuOTcxLDkuOTcxLDAsMCwwLC4yLDEuNkg1LjVBNS4zNDksNS4zNDksMCwwLDEsNS4xLDEzLjJabS44LDIuMWguOWwuNiwxLjJBMy40OTEsMy40OTEsMCwwLDEsNS45LDE1LjNabTEuNSwwSDguN3YxLjVhMi40MzMsMi40MzMsMCwwLDEtMS4zLTEuNVptMS45LDEuNVYxNS4zaDEuM2ExLjk2OCwxLjk2OCwwLDAsMS0xLjMsMS41Wm0yLjItLjhoMGEyLjYyMiwyLjYyMiwwLDAsMS0uOS41LDMuMzc5LDMuMzc5LDAsMCwwLC42LTEuMmguOUExLjM0NCwxLjM0NCwwLDAsMSwxMS41LDE2WiIvPjxwYXRoIGZpbGw9IiNlNmU2ZTYiIGQ9Ik01LjEsMTEuNEE0LjAyNSw0LjAyNSwwLDAsMSwyLjksOC41LDMuNjQ2LDMuNjQ2LDAsMCwxLDQuNCw1LjZMNSw1LjFsLjUuNi0uNi41QTIuNTA5LDIuNTA5LDAsMCwwLDMuNyw4LjRhMy4wMzEsMy4wMzEsMCwwLDAsMS44LDIuM1oiLz48Y2lyY2xlIGZpbGw9IiNmMmYyZjIiIHI9IjEuMSIgY3k9IjUuNCIgY3g9IjUuMyIvPjxwYXRoIGZpbGw9IiNlNmU2ZTYiIGQ9Ik0xMi43LDExLjRsLS40LS43YTMuMjU5LDMuMjU5LDAsMCwwLDEuOC0yLjMsMi43NDgsMi43NDgsMCwwLDAtMS4yLTIuMmwtLjYtLjQuNS0uNi42LjRhMy4wNzEsMy4wNzEsMCwwLDEsMS41LDIuOUE0LjAyNSw0LjAyNSwwLDAsMSwxMi43LDExLjRaIi8+PGNpcmNsZSBmaWxsPSIjZjJmMmYyIiByPSIxLjEiIGN5PSI1LjQiIGN4PSIxMi42Ii8+PGNpcmNsZSBmaWxsPSIjY2U3NGI2IiByPSIxLjEiIGN5PSIxMS4xIiBjeD0iNS4zIi8+PGNpcmNsZSBmaWxsPSIjY2U3NGI2IiByPSIxLjEiIGN5PSIxMS4xIiBjeD0iMTIuNiIvPjwvZz48L3N2Zz4=;" vertex="1" parent="M5w1i085SVXqvJ3ANIoE-1">
          <mxGeometry x="609.74" y="584" width="39" height="39" as="geometry" />
        </mxCell>
        <mxCell id="M5w1i085SVXqvJ3ANIoE-32" value="S2S VPN" style="edgeStyle=orthogonalEdgeStyle;rounded=0;orthogonalLoop=1;jettySize=auto;html=1;entryX=0.568;entryY=-0.016;entryDx=0;entryDy=0;entryPerimeter=0;exitX=0.452;exitY=0.969;exitDx=0;exitDy=0;exitPerimeter=0;endArrow=none;startFill=0;" edge="1" parent="M5w1i085SVXqvJ3ANIoE-1" source="M5w1i085SVXqvJ3ANIoE-30" target="M5w1i085SVXqvJ3ANIoE-26">
          <mxGeometry relative="1" as="geometry" />
        </mxCell>
        <mxCell id="hpuXTg1_FPGYPNHxURsG-0" value="firewall-swedencentral" style="shape=image;verticalLabelPosition=middle;labelBackgroundColor=none;verticalAlign=middle;aspect=fixed;imageAspect=0;editableCssRules=.*;image=data:image/svg+xml,PHN2ZyB4bWxucz0iaHR0cDovL3d3dy53My5vcmcvMjAwMC9zdmciIHZpZXdCb3g9IjAgMCAxOCAxOCIgaGVpZ2h0PSIxOCIgd2lkdGg9IjE4IiBpZD0iYWY0NjNkMzItZWMxMC00NGQ5LWE2MDctZWJhZDYzNzhhNTJiIj48ZGVmcz48bGluZWFyR3JhZGllbnQgZ3JhZGllbnRVbml0cz0idXNlclNwYWNlT25Vc2UiIHkyPSIxLjM4IiB4Mj0iOSIgeTE9IjE0LjE0IiB4MT0iOSIgaWQ9ImIwMTJkZTdiLTdhMGUtNDYxOC05ZmVjLTcwMzYyMmUzZThjMyI+PHN0b3Agc3RvcC1jb2xvcj0iIzAwNzhkNCIgb2Zmc2V0PSIwIi8+PHN0b3Agc3RvcC1jb2xvcj0iIzVlYTBlZiIgb2Zmc2V0PSIwLjgyIi8+PC9saW5lYXJHcmFkaWVudD48L2RlZnM+PHRpdGxlPkljb24tbmV0d29ya2luZy04NDwvdGl0bGU+PHBhdGggZmlsbD0idXJsKCNiMDEyZGU3Yi03YTBlLTQ2MTgtOWZlYy03MDM2MjJlM2U4YzMpIiBkPSJNMTgsMTAuMTRhNC4wNiw0LjA2LDAsMCwwLTMuNTEtMy44OUE1LjEsNS4xLDAsMCwwLDkuMjQsMS4zOGE1LjIzLDUuMjMsMCwwLDAtNSwzLjQxQTQuODIsNC44MiwwLDAsMCwwLDkuNDNhNC45LDQuOSwwLDAsMCw1LjA3LDQuNzFsLjQ0LDBoOC4yMWExLjQ2LDEuNDYsMCwwLDAsLjIyLDBBNC4xLDQuMSwwLDAsMCwxOCwxMC4xNFoiLz48cGF0aCBmaWxsPSIjODIxMDEwIiBkPSJNMTQuMjksMTEuMTlhLjQyLjQyLDAsMCwwLS40Mi0uNDFINC4xM2EuNDIuNDIsMCwwLDAtLjQyLjQxdjVhLjQyLjQyLDAsMCwwLC40Mi40MWg5Ljc0YS40Mi40MiwwLDAsMCwuNDItLjQxdi01WiIvPjxyZWN0IGZpbGw9IiNlNjIzMjMiIGhlaWdodD0iMS4yNyIgd2lkdGg9IjIuODciIHk9IjExLjM2IiB4PSI0LjMiLz48cmVjdCBmaWxsPSIjZmY3MzgxIiBoZWlnaHQ9IjEuMjciIHdpZHRoPSIyLjg3IiB5PSIxMS4zNiIgeD0iNy42Ii8+PHJlY3QgZmlsbD0iI2U2MjMyMyIgaGVpZ2h0PSIxLjI3IiB3aWR0aD0iMi44NyIgeT0iMTEuMzYiIHg9IjEwLjkiLz48cmVjdCBmaWxsPSIjZTYyMzIzIiBoZWlnaHQ9IjEuMjciIHdpZHRoPSIxLjE5IiB5PSIxMy4wNiIgeD0iNC4zIi8+PHJlY3QgZmlsbD0iI2ZmNzM4MSIgaGVpZ2h0PSIxLjI3IiB3aWR0aD0iMS4xOSIgeT0iMTMuMDYiIHg9IjEyLjU4Ii8+PHJlY3QgZmlsbD0iI2ZmNzM4MSIgaGVpZ2h0PSIxLjI3IiB3aWR0aD0iMi44NyIgeT0iMTMuMDYiIHg9IjUuOTIiLz48cmVjdCBmaWxsPSIjZTYyMzIzIiBoZWlnaHQ9IjEuMjciIHdpZHRoPSIyLjg3IiB5PSIxMy4wNiIgeD0iOS4yMyIvPjxyZWN0IGZpbGw9IiNlNjIzMjMiIGhlaWdodD0iMS4yNyIgd2lkdGg9IjIuODciIHk9IjE0Ljc2IiB4PSI0LjMiLz48cmVjdCBmaWxsPSIjZmY3MzgxIiBoZWlnaHQ9IjEuMjciIHdpZHRoPSIyLjg3IiB5PSIxNC43NiIgeD0iNy42Ii8+PHJlY3QgZmlsbD0iI2U2MjMyMyIgaGVpZ2h0PSIxLjI3IiB3aWR0aD0iMi44NyIgeT0iMTQuNzYiIHg9IjEwLjkiLz48L3N2Zz4=;labelPosition=right;align=left;" vertex="1" parent="M5w1i085SVXqvJ3ANIoE-1">
          <mxGeometry x="651" y="549.39" width="43.21" height="43.21" as="geometry" />
        </mxCell>
        <mxCell id="hpuXTg1_FPGYPNHxURsG-1" value="firewall-norwayeast" style="shape=image;verticalLabelPosition=middle;labelBackgroundColor=none;verticalAlign=middle;aspect=fixed;imageAspect=0;editableCssRules=.*;image=data:image/svg+xml,PHN2ZyB4bWxucz0iaHR0cDovL3d3dy53My5vcmcvMjAwMC9zdmciIHZpZXdCb3g9IjAgMCAxOCAxOCIgaGVpZ2h0PSIxOCIgd2lkdGg9IjE4IiBpZD0iYWY0NjNkMzItZWMxMC00NGQ5LWE2MDctZWJhZDYzNzhhNTJiIj48ZGVmcz48bGluZWFyR3JhZGllbnQgZ3JhZGllbnRVbml0cz0idXNlclNwYWNlT25Vc2UiIHkyPSIxLjM4IiB4Mj0iOSIgeTE9IjE0LjE0IiB4MT0iOSIgaWQ9ImIwMTJkZTdiLTdhMGUtNDYxOC05ZmVjLTcwMzYyMmUzZThjMyI+PHN0b3Agc3RvcC1jb2xvcj0iIzAwNzhkNCIgb2Zmc2V0PSIwIi8+PHN0b3Agc3RvcC1jb2xvcj0iIzVlYTBlZiIgb2Zmc2V0PSIwLjgyIi8+PC9saW5lYXJHcmFkaWVudD48L2RlZnM+PHRpdGxlPkljb24tbmV0d29ya2luZy04NDwvdGl0bGU+PHBhdGggZmlsbD0idXJsKCNiMDEyZGU3Yi03YTBlLTQ2MTgtOWZlYy03MDM2MjJlM2U4YzMpIiBkPSJNMTgsMTAuMTRhNC4wNiw0LjA2LDAsMCwwLTMuNTEtMy44OUE1LjEsNS4xLDAsMCwwLDkuMjQsMS4zOGE1LjIzLDUuMjMsMCwwLDAtNSwzLjQxQTQuODIsNC44MiwwLDAsMCwwLDkuNDNhNC45LDQuOSwwLDAsMCw1LjA3LDQuNzFsLjQ0LDBoOC4yMWExLjQ2LDEuNDYsMCwwLDAsLjIyLDBBNC4xLDQuMSwwLDAsMCwxOCwxMC4xNFoiLz48cGF0aCBmaWxsPSIjODIxMDEwIiBkPSJNMTQuMjksMTEuMTlhLjQyLjQyLDAsMCwwLS40Mi0uNDFINC4xM2EuNDIuNDIsMCwwLDAtLjQyLjQxdjVhLjQyLjQyLDAsMCwwLC40Mi40MWg5Ljc0YS40Mi40MiwwLDAsMCwuNDItLjQxdi01WiIvPjxyZWN0IGZpbGw9IiNlNjIzMjMiIGhlaWdodD0iMS4yNyIgd2lkdGg9IjIuODciIHk9IjExLjM2IiB4PSI0LjMiLz48cmVjdCBmaWxsPSIjZmY3MzgxIiBoZWlnaHQ9IjEuMjciIHdpZHRoPSIyLjg3IiB5PSIxMS4zNiIgeD0iNy42Ii8+PHJlY3QgZmlsbD0iI2U2MjMyMyIgaGVpZ2h0PSIxLjI3IiB3aWR0aD0iMi44NyIgeT0iMTEuMzYiIHg9IjEwLjkiLz48cmVjdCBmaWxsPSIjZTYyMzIzIiBoZWlnaHQ9IjEuMjciIHdpZHRoPSIxLjE5IiB5PSIxMy4wNiIgeD0iNC4zIi8+PHJlY3QgZmlsbD0iI2ZmNzM4MSIgaGVpZ2h0PSIxLjI3IiB3aWR0aD0iMS4xOSIgeT0iMTMuMDYiIHg9IjEyLjU4Ii8+PHJlY3QgZmlsbD0iI2ZmNzM4MSIgaGVpZ2h0PSIxLjI3IiB3aWR0aD0iMi44NyIgeT0iMTMuMDYiIHg9IjUuOTIiLz48cmVjdCBmaWxsPSIjZTYyMzIzIiBoZWlnaHQ9IjEuMjciIHdpZHRoPSIyLjg3IiB5PSIxMy4wNiIgeD0iOS4yMyIvPjxyZWN0IGZpbGw9IiNlNjIzMjMiIGhlaWdodD0iMS4yNyIgd2lkdGg9IjIuODciIHk9IjE0Ljc2IiB4PSI0LjMiLz48cmVjdCBmaWxsPSIjZmY3MzgxIiBoZWlnaHQ9IjEuMjciIHdpZHRoPSIyLjg3IiB5PSIxNC43NiIgeD0iNy42Ii8+PHJlY3QgZmlsbD0iI2U2MjMyMyIgaGVpZ2h0PSIxLjI3IiB3aWR0aD0iMi44NyIgeT0iMTQuNzYiIHg9IjEwLjkiLz48L3N2Zz4=;labelPosition=right;align=left;" vertex="1" parent="M5w1i085SVXqvJ3ANIoE-1">
          <mxGeometry x="288" y="549.39" width="43.21" height="43.21" as="geometry" />
        </mxCell>
      </root>
    </mxGraphModel>
  </diagram>
  <diagram name="after" id="LEK31N2i7nfo3Y2xk14e">
    <mxGraphModel dx="2474" dy="1196" grid="0" gridSize="10" guides="1" tooltips="1" connect="1" arrows="1" fold="1" page="0" pageScale="1" pageWidth="850" pageHeight="1100" math="0" shadow="0">
      <root>
        <mxCell id="raGKt5xzN4JPMO2uHm7d-0" />
        <mxCell id="raGKt5xzN4JPMO2uHm7d-1" parent="raGKt5xzN4JPMO2uHm7d-0" />
        <mxCell id="DjSmX3gS6ZTRlr5iNIHN-0" value="" style="rounded=1;whiteSpace=wrap;html=1;fillColor=#dae8fc;strokeColor=#6c8ebf;" vertex="1" parent="raGKt5xzN4JPMO2uHm7d-1">
          <mxGeometry x="206.5" y="275" width="282.5" height="158" as="geometry" />
        </mxCell>
        <mxCell id="DjSmX3gS6ZTRlr5iNIHN-1" value="" style="rounded=1;whiteSpace=wrap;html=1;fillColor=#dae8fc;strokeColor=#6c8ebf;" vertex="1" parent="raGKt5xzN4JPMO2uHm7d-1">
          <mxGeometry x="212" y="505" width="642" height="166" as="geometry" />
        </mxCell>
        <mxCell id="DjSmX3gS6ZTRlr5iNIHN-2" value="Hub to hub&lt;div&gt;connectivity&lt;/div&gt;" style="edgeStyle=orthogonalEdgeStyle;rounded=0;orthogonalLoop=1;jettySize=auto;html=1;endArrow=none;startFill=0;dashed=1;dashPattern=8 8;labelBackgroundColor=none;" edge="1" parent="raGKt5xzN4JPMO2uHm7d-1" source="DjSmX3gS6ZTRlr5iNIHN-3" target="DjSmX3gS6ZTRlr5iNIHN-27">
          <mxGeometry relative="1" as="geometry" />
        </mxCell>
        <mxCell id="DjSmX3gS6ZTRlr5iNIHN-3" value="" style="rounded=0;whiteSpace=wrap;html=1;" vertex="1" parent="raGKt5xzN4JPMO2uHm7d-1">
          <mxGeometry x="265" y="535" width="202" height="72" as="geometry" />
        </mxCell>
        <mxCell id="DjSmX3gS6ZTRlr5iNIHN-4" value="vwan" style="shape=image;verticalLabelPosition=middle;labelBackgroundColor=none;verticalAlign=middle;aspect=fixed;imageAspect=0;editableCssRules=.*;image=data:image/svg+xml,PHN2ZyB4bWxucz0iaHR0cDovL3d3dy53My5vcmcvMjAwMC9zdmciIHZpZXdCb3g9IjAgMCAxOCAxOCIgaGVpZ2h0PSIxOCIgd2lkdGg9IjE4Ij48ZGVmcz48bGluZWFyR3JhZGllbnQgZ3JhZGllbnRVbml0cz0idXNlclNwYWNlT25Vc2UiIHkyPSI3LjAxOSIgeDI9IjkiIHkxPSIxMy40OCIgeDE9IjkiIGlkPSJmOTBjZTNiOS05OTE2LTQ2ZDItOGZlZC0wMzc4YjNiMDRkZTYiPjxzdG9wIHN0b3AtY29sb3I9IiMwMDc4ZDQiIG9mZnNldD0iMCIvPjxzdG9wIHN0b3AtY29sb3I9IiM1ZWEwZWYiIG9mZnNldD0iMC43NzUiLz48L2xpbmVhckdyYWRpZW50PjxsaW5lYXJHcmFkaWVudCBncmFkaWVudFVuaXRzPSJ1c2VyU3BhY2VPblVzZSIgeTI9IjEwLjQ5NSIgeDI9IjkuMDE3IiB5MT0iOS41MTgiIHgxPSI5LjAxNyIgaWQ9ImIwZTI1YjViLTY5YmEtNDI2Mi1iODc0LTMzNDBkMWUzMTFmMCI+PHN0b3Agc3RvcC1jb2xvcj0iI2ZmZiIgb2Zmc2V0PSIwIi8+PHN0b3Agc3RvcC1vcGFjaXR5PSIwLjYiIHN0b3AtY29sb3I9IiNmZmYiIG9mZnNldD0iMSIvPjwvbGluZWFyR3JhZGllbnQ+PC9kZWZzPjxnIGlkPSJhMTAxZDNiZS05NDE4LTQyODItOTM3Mi02ODEyYjMwNDAxM2IiPjxwb2x5Z29uIGZpbGw9IiM5Y2ViZmYiIHBvaW50cz0iMTQuMjg4IDkuNDUzIDE0LjI4OCA5LjQ1OSAxNi45OTMgOS4zOTcgMTYuOTc0IDguNTUzIDE0LjI4NiA4LjYxNSAxNC4yODYgOC41OTkgMTIuMDQyIDguMzQxIDEyLjA0MiA1Ljg5OSAxMi4wMzYgNS44ODggMTMuNjI0IDEuODI2IDEyLjgzNiAxLjUyNCAxMS4yMzcgNS42MTMgMTEuMjM5IDUuNjE0IDkuNTIxIDcuNTk3IDYuODE1IDUuNTk3IDYuNzggNS41NjggNS4xOTggMS41MjQgNC40MSAxLjgyNiA2LjAxIDUuOTE2IDYuMDMxIDUuOTA4IDcuNDgyIDkuMDgzIDMuOTk2IDguNTk5IDMuOTc5IDguNjI3IDMuOTc5IDguNjE1IDEuMzA0IDguNTUzIDEuMjg0IDkuMzk3IDMuOTU5IDkuNDU5IDMuOTY2IDkuMTcgNS43MzMgOS43MzMgNi4wODQgMTAuOTIzIDYuMDUgMTIuMjkxIDQuNDUgMTYuMzggNS4yMzggMTYuNjgzIDYuODM4IDEyLjU5MyA2LjcwOCAxMi41NDMgNy45NjkgMTEuMzE5IDExLjI1NCAxMi4wOTYgMTEuNjY1IDEyLjQ0NCAxMS4yNzcgMTIuNTkzIDEyLjg3NiAxNi42ODMgMTMuNjY0IDE2LjM4IDEyLjA2NSAxMi4yOTEgMTIuMDM2IDEyLjMwMiAxMi4yNzEgMTAuNjAxIDE0LjI4OCA5LjQ1MyIvPjxwYXRoIGZpbGw9IiM4NmQ2MzMiIGQ9Ik0xOCw5LjAzN2ExLjI5NCwxLjI5NCwwLDEsMS0xLjI5NC0xLjI5NEExLjI5NCwxLjI5NCwwLDAsMSwxOCw5LjAzN1pNMS4yOTQsNy43NDNBMS4yOTQsMS4yOTQsMCwxLDAsMi41ODgsOS4wMzcsMS4yOTQsMS4yOTQsMCwwLDAsMS4yOTQsNy43NDNabTMuNDc5LDcuNjQ2YTEuMjk0LDEuMjk0LDAsMSwwLDEuMjkzLDEuMjk0QTEuMjk0LDEuMjk0LDAsMCwwLDQuNzczLDE1LjM4OVptOC42OCwwYTEuMjk0LDEuMjk0LDAsMSwwLDEuMjkzLDEuMjk0QTEuMjk0LDEuMjk0LDAsMCwwLDEzLjQ1MywxNS4zODlaTTQuNjMyLjAyNEExLjI5NCwxLjI5NCwwLDEsMCw1LjkyNiwxLjMxNywxLjI5MywxLjI5MywwLDAsMCw0LjYzMi4wMjRabTguOTE2LDBhMS4yOTQsMS4yOTQsMCwxLDAsMS4yOTMsMS4yOTNBMS4yOTMsMS4yOTMsMCwwLDAsMTMuNTQ4LjAyNFoiLz48cGF0aCBmaWxsPSJ1cmwoI2Y5MGNlM2I5LTk5MTYtNDZkMi04ZmVkLTAzNzhiM2IwNGRlNikiIGQ9Ik0zLjUzMyw3LjAxOUgxNC40NjdhMCwwLDAsMCwxLDAsMHY2LjFhLjM2NS4zNjUsMCwwLDEtLjM2NS4zNjVIMy45YS4zNjUuMzY1LDAsMCwxLS4zNjUtLjM2NXYtNi4xQTAsMCwwLDAsMSwzLjUzMyw3LjAxOVoiLz48cGF0aCBmaWxsPSIjMDA3OGQ0IiBkPSJNMy45LDQuNjg5SDE0LjFhLjM2NS4zNjUsMCwwLDEsLjM2NS4zNjVWNy4wMTlhMCwwLDAsMCwxLDAsMEgzLjUzNWEwLDAsMCwwLDEsMCwwVjUuMDU0QS4zNjUuMzY1LDAsMCwxLDMuOSw0LjY4OVoiLz48cGF0aCBmaWxsPSJ1cmwoI2IwZTI1YjViLTY5YmEtNDI2Mi1iODc0LTMzNDBkMWUzMTFmMCkiIGQ9Ik0xMC41Nyw5LjUxNWEuNDg3LjQ4NywwLDEsMS0uNDg3LjQ4N0EuNDg3LjQ4NywwLDAsMSwxMC41Nyw5LjUxNVptLTIuMDM5LjQ5MWEuNDg3LjQ4NywwLDEsMCwuNDg2LS40ODdBLjQ4Ny40ODcsMCwwLDAsOC41MzEsMTAuMDA2Wm0tMS41NTMsMGEuNDg3LjQ4NywwLDEsMCwuNDg3LS40ODdBLjQ4Ny40ODcsMCwwLDAsNi45NzgsMTAuMDA2WiIvPjxwYXRoIGZpbGw9IiNmZmYiIGQ9Ik03LjgxOCwxMS45NTJsLS4yNzguMjc5YS4xMjYuMTI2LDAsMCwxLS4xNzgsMGgwTDUuMywxMC4xNzVhLjI1MS4yNTEsMCwwLDEsMC0uMzU2aDBsLjI3OC0uMjc5aDBsMi4yNCwyLjIzNGEuMTI2LjEyNiwwLDAsMSwwLC4xNzhabTQuNjA1LTIuNDE2LTIuMjQsMi4yMzRoMGEuMTI1LjEyNSwwLDAsMCwwLC4xNzhsLjI3OS4yNzloMGEuMTI1LjEyNSwwLDAsMCwuMTc4LDBMMTIuNywxMC4xNzFoMGEuMjUyLjI1MiwwLDAsMCwwLS4zNTZsLS4yNzgtLjI3OVoiLz48cGF0aCBvcGFjaXR5PSIwLjgiIGZpbGw9IiNmZmYiIGQ9Ik03LjUsNy43ODZsLjI3OS4yNzhhLjEyNi4xMjYsMCwwLDEsMCwuMTc4bC0yLjIsMi4yMDhoMEw1LjMsMTAuMTcxYS4yNTEuMjUxLDAsMCwxLDAtLjM1NmgwTDcuMzIsNy43ODZBLjEyNi4xMjYsMCwwLDEsNy41LDcuNzg2Wm01LjIsMi4zNzloMGEuMjUxLjI1MSwwLDAsMCwwLS4zNTZMMTAuNjgsNy43OGgwYS4xMjYuMTI2LDAsMCwwLS4xNzgsMGwtLjI4Mi4yODJoMGEuMTI2LjEyNiwwLDAsMCwwLC4xNzhsMi4yLDIuMjA3aDBsLjI3OS0uMjc5WiIvPjwvZz48L3N2Zz4=;labelPosition=left;align=right;spacingRight=5;" vertex="1" parent="raGKt5xzN4JPMO2uHm7d-1">
          <mxGeometry x="185" y="477" width="67" height="67" as="geometry" />
        </mxCell>
        <mxCell id="DjSmX3gS6ZTRlr5iNIHN-5" value="hub-norwayeast&#xa;10.9.0.0/23" style="shape=image;verticalLabelPosition=bottom;labelBackgroundColor=none;verticalAlign=top;aspect=fixed;imageAspect=0;editableCssRules=.*;image=data:image/svg+xml,PHN2ZyB4bWxucz0iaHR0cDovL3d3dy53My5vcmcvMjAwMC9zdmciIHZpZXdCb3g9IjAgMCAxOCAxOCIgaGVpZ2h0PSIxOCIgd2lkdGg9IjE4IiBpZD0iYTUxMGExMjAtZThhZi00ZmUwLTgzMWUtNjdlYmU5YzQzNjhiIj48ZGVmcz48bGluZWFyR3JhZGllbnQgZ3JhZGllbnRVbml0cz0idXNlclNwYWNlT25Vc2UiIGdyYWRpZW50VHJhbnNmb3JtPSJ0cmFuc2xhdGUoMCAtMTYwKSIgeTI9IjE2MC42MTMiIHgyPSI5IiB5MT0iMTcyLjcwNCIgeDE9IjkiIGlkPSJhMDA5YWNjMS02ZTAzLTQ5NjktODFjYS1iMTU3YjU4YTJmNjkiPjxzdG9wIHN0b3AtY29sb3I9IiMxOThhYjMiIG9mZnNldD0iMCIvPjxzdG9wIHN0b3AtY29sb3I9IiMyMmE1Y2IiIG9mZnNldD0iMC4xMSIvPjxzdG9wIHN0b3AtY29sb3I9IiMyOWJhZGUiIG9mZnNldD0iMC4yMyIvPjxzdG9wIHN0b3AtY29sb3I9IiMyZWM5ZWIiIG9mZnNldD0iMC4zNyIvPjxzdG9wIHN0b3AtY29sb3I9IiMzMWQxZjMiIG9mZnNldD0iMC41MyIvPjxzdG9wIHN0b3AtY29sb3I9IiMzMmQ0ZjUiIG9mZnNldD0iMC43OCIvPjwvbGluZWFyR3JhZGllbnQ+PC9kZWZzPjxnPjxwYXRoIGZpbGw9InVybCgjYTAwOWFjYzEtNmUwMy00OTY5LTgxY2EtYjE1N2I1OGEyZjY5KSIgZD0iTTE3LjUsOC45YTMuODU0LDMuODU0LDAsMCwwLTMuMy0zLjdBNC44NzEsNC44NzEsMCwwLDAsOS4yLjYsNS4wMTEsNS4wMTEsMCwwLDAsNC41LDMuOGE0LjY5Myw0LjY5MywwLDAsMC00LDQuNCw0LjYxMiw0LjYxMiwwLDAsMCw0LjgsNC41aDguNEEzLjgsMy44LDAsMCwwLDE3LjUsOC45WiIvPjxjaXJjbGUgZmlsbD0iI2YyZjJmMiIgcj0iNC40IiBjeT0iMTIuOSIgY3g9IjkiLz48cGF0aCBmaWxsPSIjMDA3OGQ0IiBkPSJNMTIuNywxMC4xYTQuNiw0LjYsMCwwLDAtNi40LS45aDBhNC41NjEsNC41NjEsMCwxLDAsNS42LDcuMmgwQTQuNTU3LDQuNTU3LDAsMCwwLDEyLjcsMTAuMVpNNS4xLDEyLjZBNC43MDcsNC43MDcsMCwwLDEsNS41LDExSDYuNmE3Ljc3Miw3Ljc3MiwwLDAsMC0uMiwxLjZaTTcuMiwxMUg4Ljd2MS42SDdBNy43NzIsNy43NzIsMCwwLDEsNy4yLDExWm0yLjEsMGgxLjVhNy43NzIsNy43NzIsMCwwLDEsLjIsMS42SDkuM1ptLS41LDIuMXYxLjZINy4ybC0uMy0xLjVabS41LDBoMS44YTkuOTcxLDkuOTcxLDAsMCwxLS4yLDEuNkg5LjNabTIuNCwwSDEzYTQuNzA3LDQuNzA3LDAsMCwxLS40LDEuNkgxMS41YTcuNzcyLDcuNzcyLDAsMCwwLC4yLTEuNlptMC0uNWE5Ljk3MSw5Ljk3MSwwLDAsMC0uMi0xLjZoMS4xYTQuMTkzLDQuMTkzLDAsMCwxLC40LDEuNlptLjUtMi4yaC0uOWE0LjUsNC41LDAsMCwwLS42LTEuMiw0LjQyOCw0LjQyOCwwLDAsMSwxLjUsMS4yWm0tMS41LDBIOS4zVjlhMi4xNzEsMi4xNzEsMCwwLDEsMS40LDEuNFpNOC44LDl2MS41SDcuNEEyLjExOCwyLjExOCwwLDAsMSw4LjgsOVptLTIuMi43aDBhNS41ODIsNS41ODIsMCwwLDEsLjgtLjUsMy4xLDMuMSwwLDAsMC0uNiwxLjNINS45QTIuNywyLjcsMCwwLDEsNi42LDkuN1pNNS4xLDEzLjJINi40YTkuOTcxLDkuOTcxLDAsMCwwLC4yLDEuNkg1LjVBNS4zNDksNS4zNDksMCwwLDEsNS4xLDEzLjJabS44LDIuMWguOWwuNiwxLjJBMy40OTEsMy40OTEsMCwwLDEsNS45LDE1LjNabTEuNSwwSDguN3YxLjVhMi40MzMsMi40MzMsMCwwLDEtMS4zLTEuNVptMS45LDEuNVYxNS4zaDEuM2ExLjk2OCwxLjk2OCwwLDAsMS0xLjMsMS41Wm0yLjItLjhoMGEyLjYyMiwyLjYyMiwwLDAsMS0uOS41LDMuMzc5LDMuMzc5LDAsMCwwLC42LTEuMmguOUExLjM0NCwxLjM0NCwwLDAsMSwxMS41LDE2WiIvPjxwYXRoIGZpbGw9IiNlNmU2ZTYiIGQ9Ik01LjEsMTEuNEE0LjAyNSw0LjAyNSwwLDAsMSwyLjksOC41LDMuNjQ2LDMuNjQ2LDAsMCwxLDQuNCw1LjZMNSw1LjFsLjUuNi0uNi41QTIuNTA5LDIuNTA5LDAsMCwwLDMuNyw4LjRhMy4wMzEsMy4wMzEsMCwwLDAsMS44LDIuM1oiLz48Y2lyY2xlIGZpbGw9IiNmMmYyZjIiIHI9IjEuMSIgY3k9IjUuNCIgY3g9IjUuMyIvPjxwYXRoIGZpbGw9IiNlNmU2ZTYiIGQ9Ik0xMi43LDExLjRsLS40LS43YTMuMjU5LDMuMjU5LDAsMCwwLDEuOC0yLjMsMi43NDgsMi43NDgsMCwwLDAtMS4yLTIuMmwtLjYtLjQuNS0uNi42LjRhMy4wNzEsMy4wNzEsMCwwLDEsMS41LDIuOUE0LjAyNSw0LjAyNSwwLDAsMSwxMi43LDExLjRaIi8+PGNpcmNsZSBmaWxsPSIjZjJmMmYyIiByPSIxLjEiIGN5PSI1LjQiIGN4PSIxMi42Ii8+PGNpcmNsZSBmaWxsPSIjY2U3NGI2IiByPSIxLjEiIGN5PSIxMS4xIiBjeD0iNS4zIi8+PGNpcmNsZSBmaWxsPSIjY2U3NGI2IiByPSIxLjEiIGN5PSIxMS4xIiBjeD0iMTIuNiIvPjwvZz48L3N2Zz4=;" vertex="1" parent="raGKt5xzN4JPMO2uHm7d-1">
          <mxGeometry x="249" y="586" width="39" height="39" as="geometry" />
        </mxCell>
        <mxCell id="DjSmX3gS6ZTRlr5iNIHN-6" value="" style="rounded=0;whiteSpace=wrap;html=1;" vertex="1" parent="raGKt5xzN4JPMO2uHm7d-1">
          <mxGeometry x="241.5" y="304" width="208" height="87" as="geometry" />
        </mxCell>
        <mxCell id="DjSmX3gS6ZTRlr5iNIHN-7" value="workload-norwayeast&lt;div&gt;spoke vnet&lt;div&gt;10.9.2.0/26&lt;br&gt;&lt;/div&gt;&lt;/div&gt;" style="image;sketch=0;aspect=fixed;html=1;points=[];align=right;fontSize=12;image=img/lib/mscae/Virtual_Network.svg;labelPosition=left;verticalLabelPosition=middle;verticalAlign=middle;spacingRight=5;" vertex="1" parent="raGKt5xzN4JPMO2uHm7d-1">
          <mxGeometry x="191.5" y="263" width="50" height="28.000000000000004" as="geometry" />
        </mxCell>
        <mxCell id="DjSmX3gS6ZTRlr5iNIHN-8" value="workload-snet&lt;div&gt;10.9.2.0/26&lt;br&gt;&lt;/div&gt;" style="image;aspect=fixed;html=1;points=[];align=center;fontSize=12;image=img/lib/azure2/networking/Subnet.svg;labelBackgroundColor=none;" vertex="1" parent="raGKt5xzN4JPMO2uHm7d-1">
          <mxGeometry x="412.5" y="369" width="33.4" height="20" as="geometry" />
        </mxCell>
        <mxCell id="DjSmX3gS6ZTRlr5iNIHN-9" value="vm-workload-norwayeast" style="image;aspect=fixed;html=1;points=[];align=center;fontSize=12;image=img/lib/azure2/compute/Virtual_Machine.svg;" vertex="1" parent="raGKt5xzN4JPMO2uHm7d-1">
          <mxGeometry x="321.51" y="313" width="40.97" height="38" as="geometry" />
        </mxCell>
        <mxCell id="DjSmX3gS6ZTRlr5iNIHN-10" value="Peering" style="edgeStyle=orthogonalEdgeStyle;rounded=0;orthogonalLoop=1;jettySize=auto;html=1;entryX=0.405;entryY=0.038;entryDx=0;entryDy=0;endArrow=none;startFill=0;entryPerimeter=0;" edge="1" parent="raGKt5xzN4JPMO2uHm7d-1" source="DjSmX3gS6ZTRlr5iNIHN-0" target="DjSmX3gS6ZTRlr5iNIHN-3">
          <mxGeometry x="-0.2172" relative="1" as="geometry">
            <mxPoint as="offset" />
          </mxGeometry>
        </mxCell>
        <mxCell id="DjSmX3gS6ZTRlr5iNIHN-11" value="" style="rounded=1;whiteSpace=wrap;html=1;fillColor=#dae8fc;strokeColor=#6c8ebf;" vertex="1" parent="raGKt5xzN4JPMO2uHm7d-1">
          <mxGeometry x="209" y="757" width="279" height="154" as="geometry" />
        </mxCell>
        <mxCell id="DjSmX3gS6ZTRlr5iNIHN-12" value="" style="rounded=0;whiteSpace=wrap;html=1;" vertex="1" parent="raGKt5xzN4JPMO2uHm7d-1">
          <mxGeometry x="244" y="782" width="208" height="87" as="geometry" />
        </mxCell>
        <mxCell id="DjSmX3gS6ZTRlr5iNIHN-13" value="onprem-snet&lt;div&gt;10.1.0.128/25&lt;br&gt;&lt;/div&gt;" style="image;aspect=fixed;html=1;points=[];align=center;fontSize=12;image=img/lib/azure2/networking/Subnet.svg;labelBackgroundColor=none;" vertex="1" parent="raGKt5xzN4JPMO2uHm7d-1">
          <mxGeometry x="415" y="847" width="33.4" height="20" as="geometry" />
        </mxCell>
        <mxCell id="DjSmX3gS6ZTRlr5iNIHN-14" value="vm-onprem-norwayeast" style="image;aspect=fixed;html=1;points=[];align=center;fontSize=12;image=img/lib/azure2/compute/Virtual_Machine.svg;" vertex="1" parent="raGKt5xzN4JPMO2uHm7d-1">
          <mxGeometry x="324.01" y="791" width="40.97" height="38" as="geometry" />
        </mxCell>
        <mxCell id="DjSmX3gS6ZTRlr5iNIHN-15" value="onprem-norwayeast&amp;nbsp;&lt;span style=&quot;background-color: light-dark(#ffffff, var(--ge-dark-color, #121212)); color: light-dark(rgb(0, 0, 0), rgb(255, 255, 255));&quot;&gt;vnet&lt;/span&gt;&lt;div&gt;&lt;div&gt;10.1.0.0/24&lt;/div&gt;&lt;/div&gt;" style="image;sketch=0;aspect=fixed;html=1;points=[];align=right;fontSize=12;image=img/lib/mscae/Exchange_On_premises_Access.svg;labelPosition=left;verticalLabelPosition=middle;verticalAlign=middle;spacingTop=0;spacingLeft=0;spacingRight=5;" vertex="1" parent="raGKt5xzN4JPMO2uHm7d-1">
          <mxGeometry x="201.49999999999997" y="736" width="25.52" height="44" as="geometry" />
        </mxCell>
        <mxCell id="DjSmX3gS6ZTRlr5iNIHN-16" value="Site-to-site&lt;div&gt;VPN&lt;/div&gt;" style="edgeStyle=orthogonalEdgeStyle;rounded=0;orthogonalLoop=1;jettySize=auto;html=1;entryX=0.5;entryY=0;entryDx=0;entryDy=0;endArrow=none;startFill=0;exitX=0.411;exitY=1.018;exitDx=0;exitDy=0;exitPerimeter=0;" edge="1" parent="raGKt5xzN4JPMO2uHm7d-1" source="DjSmX3gS6ZTRlr5iNIHN-3" target="DjSmX3gS6ZTRlr5iNIHN-12">
          <mxGeometry x="0.0857" relative="1" as="geometry">
            <mxPoint as="offset" />
          </mxGeometry>
        </mxCell>
        <mxCell id="DjSmX3gS6ZTRlr5iNIHN-31" value="Peering" style="edgeStyle=orthogonalEdgeStyle;rounded=0;orthogonalLoop=1;jettySize=auto;html=1;endArrow=none;startFill=0;" edge="1" parent="raGKt5xzN4JPMO2uHm7d-1" source="DjSmX3gS6ZTRlr5iNIHN-17">
          <mxGeometry x="-0.3223" relative="1" as="geometry">
            <mxPoint x="708" y="539" as="targetPoint" />
            <mxPoint as="offset" />
          </mxGeometry>
        </mxCell>
        <mxCell id="DjSmX3gS6ZTRlr5iNIHN-17" value="" style="rounded=1;whiteSpace=wrap;html=1;fillColor=#d5e8d4;strokeColor=#82b366;" vertex="1" parent="raGKt5xzN4JPMO2uHm7d-1">
          <mxGeometry x="565.74" y="278" width="285" height="155" as="geometry" />
        </mxCell>
        <mxCell id="DjSmX3gS6ZTRlr5iNIHN-18" value="" style="rounded=0;whiteSpace=wrap;html=1;" vertex="1" parent="raGKt5xzN4JPMO2uHm7d-1">
          <mxGeometry x="600.74" y="304" width="208" height="87" as="geometry" />
        </mxCell>
        <mxCell id="DjSmX3gS6ZTRlr5iNIHN-19" value="workload-swedencentral&lt;div&gt;spoke vnet&lt;div&gt;10.9.3.0/26&lt;br&gt;&lt;/div&gt;&lt;/div&gt;" style="image;sketch=0;aspect=fixed;html=1;points=[];align=left;fontSize=12;image=img/lib/mscae/Virtual_Network.svg;labelPosition=right;verticalLabelPosition=middle;verticalAlign=middle;spacingLeft=5;" vertex="1" parent="raGKt5xzN4JPMO2uHm7d-1">
          <mxGeometry x="808.74" y="267" width="50" height="28.000000000000004" as="geometry" />
        </mxCell>
        <mxCell id="DjSmX3gS6ZTRlr5iNIHN-20" value="workload-snet&lt;div&gt;10.9.3.0/26&lt;br&gt;&lt;/div&gt;" style="image;aspect=fixed;html=1;points=[];align=center;fontSize=12;image=img/lib/azure2/networking/Subnet.svg;labelBackgroundColor=none;" vertex="1" parent="raGKt5xzN4JPMO2uHm7d-1">
          <mxGeometry x="771.74" y="369" width="33.4" height="20" as="geometry" />
        </mxCell>
        <mxCell id="DjSmX3gS6ZTRlr5iNIHN-21" value="vm-workload-sweencentral" style="image;aspect=fixed;html=1;points=[];align=center;fontSize=12;image=img/lib/azure2/compute/Virtual_Machine.svg;" vertex="1" parent="raGKt5xzN4JPMO2uHm7d-1">
          <mxGeometry x="680.75" y="313" width="40.97" height="38" as="geometry" />
        </mxCell>
        <mxCell id="DjSmX3gS6ZTRlr5iNIHN-22" value="" style="rounded=1;whiteSpace=wrap;html=1;fillColor=#d5e8d4;strokeColor=#82b366;" vertex="1" parent="raGKt5xzN4JPMO2uHm7d-1">
          <mxGeometry x="565.74" y="755" width="279" height="159" as="geometry" />
        </mxCell>
        <mxCell id="DjSmX3gS6ZTRlr5iNIHN-23" value="" style="rounded=0;whiteSpace=wrap;html=1;" vertex="1" parent="raGKt5xzN4JPMO2uHm7d-1">
          <mxGeometry x="600.74" y="785" width="208" height="87" as="geometry" />
        </mxCell>
        <mxCell id="DjSmX3gS6ZTRlr5iNIHN-24" value="onprem-snet&lt;div&gt;10.2.0.128/25&lt;br&gt;&lt;/div&gt;" style="image;aspect=fixed;html=1;points=[];align=center;fontSize=12;image=img/lib/azure2/networking/Subnet.svg;labelBackgroundColor=none;" vertex="1" parent="raGKt5xzN4JPMO2uHm7d-1">
          <mxGeometry x="771.74" y="850" width="33.4" height="20" as="geometry" />
        </mxCell>
        <mxCell id="DjSmX3gS6ZTRlr5iNIHN-25" value="vm-onprem-swedencentral" style="image;aspect=fixed;html=1;points=[];align=center;fontSize=12;image=img/lib/azure2/compute/Virtual_Machine.svg;" vertex="1" parent="raGKt5xzN4JPMO2uHm7d-1">
          <mxGeometry x="680.75" y="794" width="40.97" height="38" as="geometry" />
        </mxCell>
        <mxCell id="DjSmX3gS6ZTRlr5iNIHN-26" value="onprem-swedencentral&amp;nbsp;&lt;span style=&quot;background-color: light-dark(#ffffff, var(--ge-dark-color, #121212)); color: light-dark(rgb(0, 0, 0), rgb(255, 255, 255));&quot;&gt;vnet&lt;/span&gt;&lt;div&gt;&lt;div&gt;10.2.0.0/24&lt;/div&gt;&lt;/div&gt;" style="image;sketch=0;aspect=fixed;html=1;points=[];align=left;fontSize=12;image=img/lib/mscae/Exchange_On_premises_Access.svg;labelPosition=right;verticalLabelPosition=middle;verticalAlign=middle;spacingTop=0;spacingLeft=5;spacingRight=4;" vertex="1" parent="raGKt5xzN4JPMO2uHm7d-1">
          <mxGeometry x="828.48" y="730" width="25.52" height="44" as="geometry" />
        </mxCell>
        <mxCell id="DjSmX3gS6ZTRlr5iNIHN-27" value="" style="rounded=0;whiteSpace=wrap;html=1;" vertex="1" parent="raGKt5xzN4JPMO2uHm7d-1">
          <mxGeometry x="624.74" y="535" width="208.26" height="72" as="geometry" />
        </mxCell>
        <mxCell id="DjSmX3gS6ZTRlr5iNIHN-28" value="hub-swedencentral&#xa;10.8.0.0/23" style="shape=image;verticalLabelPosition=bottom;labelBackgroundColor=none;verticalAlign=top;aspect=fixed;imageAspect=0;editableCssRules=.*;image=data:image/svg+xml,PHN2ZyB4bWxucz0iaHR0cDovL3d3dy53My5vcmcvMjAwMC9zdmciIHZpZXdCb3g9IjAgMCAxOCAxOCIgaGVpZ2h0PSIxOCIgd2lkdGg9IjE4IiBpZD0iYTUxMGExMjAtZThhZi00ZmUwLTgzMWUtNjdlYmU5YzQzNjhiIj48ZGVmcz48bGluZWFyR3JhZGllbnQgZ3JhZGllbnRVbml0cz0idXNlclNwYWNlT25Vc2UiIGdyYWRpZW50VHJhbnNmb3JtPSJ0cmFuc2xhdGUoMCAtMTYwKSIgeTI9IjE2MC42MTMiIHgyPSI5IiB5MT0iMTcyLjcwNCIgeDE9IjkiIGlkPSJhMDA5YWNjMS02ZTAzLTQ5NjktODFjYS1iMTU3YjU4YTJmNjkiPjxzdG9wIHN0b3AtY29sb3I9IiMxOThhYjMiIG9mZnNldD0iMCIvPjxzdG9wIHN0b3AtY29sb3I9IiMyMmE1Y2IiIG9mZnNldD0iMC4xMSIvPjxzdG9wIHN0b3AtY29sb3I9IiMyOWJhZGUiIG9mZnNldD0iMC4yMyIvPjxzdG9wIHN0b3AtY29sb3I9IiMyZWM5ZWIiIG9mZnNldD0iMC4zNyIvPjxzdG9wIHN0b3AtY29sb3I9IiMzMWQxZjMiIG9mZnNldD0iMC41MyIvPjxzdG9wIHN0b3AtY29sb3I9IiMzMmQ0ZjUiIG9mZnNldD0iMC43OCIvPjwvbGluZWFyR3JhZGllbnQ+PC9kZWZzPjxnPjxwYXRoIGZpbGw9InVybCgjYTAwOWFjYzEtNmUwMy00OTY5LTgxY2EtYjE1N2I1OGEyZjY5KSIgZD0iTTE3LjUsOC45YTMuODU0LDMuODU0LDAsMCwwLTMuMy0zLjdBNC44NzEsNC44NzEsMCwwLDAsOS4yLjYsNS4wMTEsNS4wMTEsMCwwLDAsNC41LDMuOGE0LjY5Myw0LjY5MywwLDAsMC00LDQuNCw0LjYxMiw0LjYxMiwwLDAsMCw0LjgsNC41aDguNEEzLjgsMy44LDAsMCwwLDE3LjUsOC45WiIvPjxjaXJjbGUgZmlsbD0iI2YyZjJmMiIgcj0iNC40IiBjeT0iMTIuOSIgY3g9IjkiLz48cGF0aCBmaWxsPSIjMDA3OGQ0IiBkPSJNMTIuNywxMC4xYTQuNiw0LjYsMCwwLDAtNi40LS45aDBhNC41NjEsNC41NjEsMCwxLDAsNS42LDcuMmgwQTQuNTU3LDQuNTU3LDAsMCwwLDEyLjcsMTAuMVpNNS4xLDEyLjZBNC43MDcsNC43MDcsMCwwLDEsNS41LDExSDYuNmE3Ljc3Miw3Ljc3MiwwLDAsMC0uMiwxLjZaTTcuMiwxMUg4Ljd2MS42SDdBNy43NzIsNy43NzIsMCwwLDEsNy4yLDExWm0yLjEsMGgxLjVhNy43NzIsNy43NzIsMCwwLDEsLjIsMS42SDkuM1ptLS41LDIuMXYxLjZINy4ybC0uMy0xLjVabS41LDBoMS44YTkuOTcxLDkuOTcxLDAsMCwxLS4yLDEuNkg5LjNabTIuNCwwSDEzYTQuNzA3LDQuNzA3LDAsMCwxLS40LDEuNkgxMS41YTcuNzcyLDcuNzcyLDAsMCwwLC4yLTEuNlptMC0uNWE5Ljk3MSw5Ljk3MSwwLDAsMC0uMi0xLjZoMS4xYTQuMTkzLDQuMTkzLDAsMCwxLC40LDEuNlptLjUtMi4yaC0uOWE0LjUsNC41LDAsMCwwLS42LTEuMiw0LjQyOCw0LjQyOCwwLDAsMSwxLjUsMS4yWm0tMS41LDBIOS4zVjlhMi4xNzEsMi4xNzEsMCwwLDEsMS40LDEuNFpNOC44LDl2MS41SDcuNEEyLjExOCwyLjExOCwwLDAsMSw4LjgsOVptLTIuMi43aDBhNS41ODIsNS41ODIsMCwwLDEsLjgtLjUsMy4xLDMuMSwwLDAsMC0uNiwxLjNINS45QTIuNywyLjcsMCwwLDEsNi42LDkuN1pNNS4xLDEzLjJINi40YTkuOTcxLDkuOTcxLDAsMCwwLC4yLDEuNkg1LjVBNS4zNDksNS4zNDksMCwwLDEsNS4xLDEzLjJabS44LDIuMWguOWwuNiwxLjJBMy40OTEsMy40OTEsMCwwLDEsNS45LDE1LjNabTEuNSwwSDguN3YxLjVhMi40MzMsMi40MzMsMCwwLDEtMS4zLTEuNVptMS45LDEuNVYxNS4zaDEuM2ExLjk2OCwxLjk2OCwwLDAsMS0xLjMsMS41Wm0yLjItLjhoMGEyLjYyMiwyLjYyMiwwLDAsMS0uOS41LDMuMzc5LDMuMzc5LDAsMCwwLC42LTEuMmguOUExLjM0NCwxLjM0NCwwLDAsMSwxMS41LDE2WiIvPjxwYXRoIGZpbGw9IiNlNmU2ZTYiIGQ9Ik01LjEsMTEuNEE0LjAyNSw0LjAyNSwwLDAsMSwyLjksOC41LDMuNjQ2LDMuNjQ2LDAsMCwxLDQuNCw1LjZMNSw1LjFsLjUuNi0uNi41QTIuNTA5LDIuNTA5LDAsMCwwLDMuNyw4LjRhMy4wMzEsMy4wMzEsMCwwLDAsMS44LDIuM1oiLz48Y2lyY2xlIGZpbGw9IiNmMmYyZjIiIHI9IjEuMSIgY3k9IjUuNCIgY3g9IjUuMyIvPjxwYXRoIGZpbGw9IiNlNmU2ZTYiIGQ9Ik0xMi43LDExLjRsLS40LS43YTMuMjU5LDMuMjU5LDAsMCwwLDEuOC0yLjMsMi43NDgsMi43NDgsMCwwLDAtMS4yLTIuMmwtLjYtLjQuNS0uNi42LjRhMy4wNzEsMy4wNzEsMCwwLDEsMS41LDIuOUE0LjAyNSw0LjAyNSwwLDAsMSwxMi43LDExLjRaIi8+PGNpcmNsZSBmaWxsPSIjZjJmMmYyIiByPSIxLjEiIGN5PSI1LjQiIGN4PSIxMi42Ii8+PGNpcmNsZSBmaWxsPSIjY2U3NGI2IiByPSIxLjEiIGN5PSIxMS4xIiBjeD0iNS4zIi8+PGNpcmNsZSBmaWxsPSIjY2U3NGI2IiByPSIxLjEiIGN5PSIxMS4xIiBjeD0iMTIuNiIvPjwvZz48L3N2Zz4=;" vertex="1" parent="raGKt5xzN4JPMO2uHm7d-1">
          <mxGeometry x="609.74" y="584" width="39" height="39" as="geometry" />
        </mxCell>
        <mxCell id="DjSmX3gS6ZTRlr5iNIHN-29" value="firewall-swedencentral" style="shape=image;verticalLabelPosition=middle;labelBackgroundColor=default;verticalAlign=middle;aspect=fixed;imageAspect=0;editableCssRules=.*;image=data:image/svg+xml,PHN2ZyB4bWxucz0iaHR0cDovL3d3dy53My5vcmcvMjAwMC9zdmciIHZpZXdCb3g9IjAgMCAxOCAxOCIgaGVpZ2h0PSIxOCIgd2lkdGg9IjE4IiBpZD0iYWY0NjNkMzItZWMxMC00NGQ5LWE2MDctZWJhZDYzNzhhNTJiIj48ZGVmcz48bGluZWFyR3JhZGllbnQgZ3JhZGllbnRVbml0cz0idXNlclNwYWNlT25Vc2UiIHkyPSIxLjM4IiB4Mj0iOSIgeTE9IjE0LjE0IiB4MT0iOSIgaWQ9ImIwMTJkZTdiLTdhMGUtNDYxOC05ZmVjLTcwMzYyMmUzZThjMyI+PHN0b3Agc3RvcC1jb2xvcj0iIzAwNzhkNCIgb2Zmc2V0PSIwIi8+PHN0b3Agc3RvcC1jb2xvcj0iIzVlYTBlZiIgb2Zmc2V0PSIwLjgyIi8+PC9saW5lYXJHcmFkaWVudD48L2RlZnM+PHRpdGxlPkljb24tbmV0d29ya2luZy04NDwvdGl0bGU+PHBhdGggZmlsbD0idXJsKCNiMDEyZGU3Yi03YTBlLTQ2MTgtOWZlYy03MDM2MjJlM2U4YzMpIiBkPSJNMTgsMTAuMTRhNC4wNiw0LjA2LDAsMCwwLTMuNTEtMy44OUE1LjEsNS4xLDAsMCwwLDkuMjQsMS4zOGE1LjIzLDUuMjMsMCwwLDAtNSwzLjQxQTQuODIsNC44MiwwLDAsMCwwLDkuNDNhNC45LDQuOSwwLDAsMCw1LjA3LDQuNzFsLjQ0LDBoOC4yMWExLjQ2LDEuNDYsMCwwLDAsLjIyLDBBNC4xLDQuMSwwLDAsMCwxOCwxMC4xNFoiLz48cGF0aCBmaWxsPSIjODIxMDEwIiBkPSJNMTQuMjksMTEuMTlhLjQyLjQyLDAsMCwwLS40Mi0uNDFINC4xM2EuNDIuNDIsMCwwLDAtLjQyLjQxdjVhLjQyLjQyLDAsMCwwLC40Mi40MWg5Ljc0YS40Mi40MiwwLDAsMCwuNDItLjQxdi01WiIvPjxyZWN0IGZpbGw9IiNlNjIzMjMiIGhlaWdodD0iMS4yNyIgd2lkdGg9IjIuODciIHk9IjExLjM2IiB4PSI0LjMiLz48cmVjdCBmaWxsPSIjZmY3MzgxIiBoZWlnaHQ9IjEuMjciIHdpZHRoPSIyLjg3IiB5PSIxMS4zNiIgeD0iNy42Ii8+PHJlY3QgZmlsbD0iI2U2MjMyMyIgaGVpZ2h0PSIxLjI3IiB3aWR0aD0iMi44NyIgeT0iMTEuMzYiIHg9IjEwLjkiLz48cmVjdCBmaWxsPSIjZTYyMzIzIiBoZWlnaHQ9IjEuMjciIHdpZHRoPSIxLjE5IiB5PSIxMy4wNiIgeD0iNC4zIi8+PHJlY3QgZmlsbD0iI2ZmNzM4MSIgaGVpZ2h0PSIxLjI3IiB3aWR0aD0iMS4xOSIgeT0iMTMuMDYiIHg9IjEyLjU4Ii8+PHJlY3QgZmlsbD0iI2ZmNzM4MSIgaGVpZ2h0PSIxLjI3IiB3aWR0aD0iMi44NyIgeT0iMTMuMDYiIHg9IjUuOTIiLz48cmVjdCBmaWxsPSIjZTYyMzIzIiBoZWlnaHQ9IjEuMjciIHdpZHRoPSIyLjg3IiB5PSIxMy4wNiIgeD0iOS4yMyIvPjxyZWN0IGZpbGw9IiNlNjIzMjMiIGhlaWdodD0iMS4yNyIgd2lkdGg9IjIuODciIHk9IjE0Ljc2IiB4PSI0LjMiLz48cmVjdCBmaWxsPSIjZmY3MzgxIiBoZWlnaHQ9IjEuMjciIHdpZHRoPSIyLjg3IiB5PSIxNC43NiIgeD0iNy42Ii8+PHJlY3QgZmlsbD0iI2U2MjMyMyIgaGVpZ2h0PSIxLjI3IiB3aWR0aD0iMi44NyIgeT0iMTQuNzYiIHg9IjEwLjkiLz48L3N2Zz4=;labelPosition=right;align=left;" vertex="1" parent="raGKt5xzN4JPMO2uHm7d-1">
          <mxGeometry x="651" y="549.39" width="43.21" height="43.21" as="geometry" />
        </mxCell>
        <mxCell id="DjSmX3gS6ZTRlr5iNIHN-30" value="firewall-norwayeast" style="shape=image;verticalLabelPosition=middle;labelBackgroundColor=default;verticalAlign=middle;aspect=fixed;imageAspect=0;editableCssRules=.*;image=data:image/svg+xml,PHN2ZyB4bWxucz0iaHR0cDovL3d3dy53My5vcmcvMjAwMC9zdmciIHZpZXdCb3g9IjAgMCAxOCAxOCIgaGVpZ2h0PSIxOCIgd2lkdGg9IjE4IiBpZD0iYWY0NjNkMzItZWMxMC00NGQ5LWE2MDctZWJhZDYzNzhhNTJiIj48ZGVmcz48bGluZWFyR3JhZGllbnQgZ3JhZGllbnRVbml0cz0idXNlclNwYWNlT25Vc2UiIHkyPSIxLjM4IiB4Mj0iOSIgeTE9IjE0LjE0IiB4MT0iOSIgaWQ9ImIwMTJkZTdiLTdhMGUtNDYxOC05ZmVjLTcwMzYyMmUzZThjMyI+PHN0b3Agc3RvcC1jb2xvcj0iIzAwNzhkNCIgb2Zmc2V0PSIwIi8+PHN0b3Agc3RvcC1jb2xvcj0iIzVlYTBlZiIgb2Zmc2V0PSIwLjgyIi8+PC9saW5lYXJHcmFkaWVudD48L2RlZnM+PHRpdGxlPkljb24tbmV0d29ya2luZy04NDwvdGl0bGU+PHBhdGggZmlsbD0idXJsKCNiMDEyZGU3Yi03YTBlLTQ2MTgtOWZlYy03MDM2MjJlM2U4YzMpIiBkPSJNMTgsMTAuMTRhNC4wNiw0LjA2LDAsMCwwLTMuNTEtMy44OUE1LjEsNS4xLDAsMCwwLDkuMjQsMS4zOGE1LjIzLDUuMjMsMCwwLDAtNSwzLjQxQTQuODIsNC44MiwwLDAsMCwwLDkuNDNhNC45LDQuOSwwLDAsMCw1LjA3LDQuNzFsLjQ0LDBoOC4yMWExLjQ2LDEuNDYsMCwwLDAsLjIyLDBBNC4xLDQuMSwwLDAsMCwxOCwxMC4xNFoiLz48cGF0aCBmaWxsPSIjODIxMDEwIiBkPSJNMTQuMjksMTEuMTlhLjQyLjQyLDAsMCwwLS40Mi0uNDFINC4xM2EuNDIuNDIsMCwwLDAtLjQyLjQxdjVhLjQyLjQyLDAsMCwwLC40Mi40MWg5Ljc0YS40Mi40MiwwLDAsMCwuNDItLjQxdi01WiIvPjxyZWN0IGZpbGw9IiNlNjIzMjMiIGhlaWdodD0iMS4yNyIgd2lkdGg9IjIuODciIHk9IjExLjM2IiB4PSI0LjMiLz48cmVjdCBmaWxsPSIjZmY3MzgxIiBoZWlnaHQ9IjEuMjciIHdpZHRoPSIyLjg3IiB5PSIxMS4zNiIgeD0iNy42Ii8+PHJlY3QgZmlsbD0iI2U2MjMyMyIgaGVpZ2h0PSIxLjI3IiB3aWR0aD0iMi44NyIgeT0iMTEuMzYiIHg9IjEwLjkiLz48cmVjdCBmaWxsPSIjZTYyMzIzIiBoZWlnaHQ9IjEuMjciIHdpZHRoPSIxLjE5IiB5PSIxMy4wNiIgeD0iNC4zIi8+PHJlY3QgZmlsbD0iI2ZmNzM4MSIgaGVpZ2h0PSIxLjI3IiB3aWR0aD0iMS4xOSIgeT0iMTMuMDYiIHg9IjEyLjU4Ii8+PHJlY3QgZmlsbD0iI2ZmNzM4MSIgaGVpZ2h0PSIxLjI3IiB3aWR0aD0iMi44NyIgeT0iMTMuMDYiIHg9IjUuOTIiLz48cmVjdCBmaWxsPSIjZTYyMzIzIiBoZWlnaHQ9IjEuMjciIHdpZHRoPSIyLjg3IiB5PSIxMy4wNiIgeD0iOS4yMyIvPjxyZWN0IGZpbGw9IiNlNjIzMjMiIGhlaWdodD0iMS4yNyIgd2lkdGg9IjIuODciIHk9IjE0Ljc2IiB4PSI0LjMiLz48cmVjdCBmaWxsPSIjZmY3MzgxIiBoZWlnaHQ9IjEuMjciIHdpZHRoPSIyLjg3IiB5PSIxNC43NiIgeD0iNy42Ii8+PHJlY3QgZmlsbD0iI2U2MjMyMyIgaGVpZ2h0PSIxLjI3IiB3aWR0aD0iMi44NyIgeT0iMTQuNzYiIHg9IjEwLjkiLz48L3N2Zz4=;labelPosition=right;align=left;" vertex="1" parent="raGKt5xzN4JPMO2uHm7d-1">
          <mxGeometry x="288" y="549.39" width="43.21" height="43.21" as="geometry" />
        </mxCell>
        <mxCell id="DjSmX3gS6ZTRlr5iNIHN-32" value="Site-to-site&lt;div&gt;VPN&lt;/div&gt;" style="edgeStyle=orthogonalEdgeStyle;rounded=0;orthogonalLoop=1;jettySize=auto;html=1;entryX=0.568;entryY=-0.016;entryDx=0;entryDy=0;entryPerimeter=0;exitX=0.452;exitY=0.969;exitDx=0;exitDy=0;exitPerimeter=0;endArrow=none;startFill=0;" edge="1" parent="raGKt5xzN4JPMO2uHm7d-1" source="DjSmX3gS6ZTRlr5iNIHN-27" target="DjSmX3gS6ZTRlr5iNIHN-23">
          <mxGeometry x="0.0762" relative="1" as="geometry">
            <mxPoint as="offset" />
          </mxGeometry>
        </mxCell>
        <mxCell id="f7mUa1xuX4e35droDoav-0" value="Remore users / endpoints&lt;div&gt;Azure VPN Client&lt;/div&gt;" style="verticalLabelPosition=bottom;html=1;verticalAlign=top;align=center;strokeColor=none;fillColor=#00BEF2;shape=mxgraph.azure.user;" vertex="1" parent="raGKt5xzN4JPMO2uHm7d-1">
          <mxGeometry x="-54" y="557" width="47.5" height="50" as="geometry" />
        </mxCell>
        <mxCell id="f7mUa1xuX4e35droDoav-1" value="Point-to-site&lt;div&gt;VPN&lt;/div&gt;" style="edgeStyle=orthogonalEdgeStyle;rounded=0;orthogonalLoop=1;jettySize=auto;html=1;entryX=0;entryY=0.446;entryDx=0;entryDy=0;entryPerimeter=0;" edge="1" parent="raGKt5xzN4JPMO2uHm7d-1" source="f7mUa1xuX4e35droDoav-0" target="DjSmX3gS6ZTRlr5iNIHN-1">
          <mxGeometry relative="1" as="geometry">
            <mxPoint x="192" y="597" as="targetPoint" />
          </mxGeometry>
        </mxCell>
      </root>
    </mxGraphModel>
  </diagram>
  <diagram id="D1zPHzvFg0PI2xDUXWpU" name="S2S VPN">
    <mxGraphModel dx="2474" dy="1196" grid="0" gridSize="10" guides="1" tooltips="1" connect="1" arrows="1" fold="1" page="0" pageScale="1" pageWidth="850" pageHeight="1100" math="0" shadow="0">
      <root>
        <mxCell id="0" />
        <mxCell id="1" parent="0" />
        <mxCell id="m9AoqNSjTn_4ks6ajbcC-4" value="" style="rounded=1;whiteSpace=wrap;html=1;fillColor=#d5e8d4;strokeColor=#82b366;" vertex="1" parent="1">
          <mxGeometry x="5" y="128" width="113" height="196" as="geometry" />
        </mxCell>
        <mxCell id="m9AoqNSjTn_4ks6ajbcC-7" value="onprem VNet" style="rounded=1;whiteSpace=wrap;html=1;fillColor=#dae8fc;strokeColor=#6c8ebf;" vertex="1" parent="1">
          <mxGeometry x="42" y="222" width="211" height="87" as="geometry" />
        </mxCell>
        <mxCell id="8Pa9T5C0aDCBO45sRHKx-1" value="" style="rounded=1;whiteSpace=wrap;html=1;fillColor=#dae8fc;strokeColor=#6c8ebf;" vertex="1" parent="1">
          <mxGeometry x="-374" y="180" width="211" height="87" as="geometry" />
        </mxCell>
        <mxCell id="m9AoqNSjTn_4ks6ajbcC-1" value="Virtual Hub" style="shape=image;verticalLabelPosition=middle;labelBackgroundColor=none;verticalAlign=middle;aspect=fixed;imageAspect=0;editableCssRules=.*;image=data:image/svg+xml,PHN2ZyB4bWxucz0iaHR0cDovL3d3dy53My5vcmcvMjAwMC9zdmciIHZpZXdCb3g9IjAgMCAxOCAxOCIgaGVpZ2h0PSIxOCIgd2lkdGg9IjE4Ij48ZGVmcz48bGluZWFyR3JhZGllbnQgZ3JhZGllbnRVbml0cz0idXNlclNwYWNlT25Vc2UiIHkyPSI3LjAxOSIgeDI9IjkiIHkxPSIxMy40OCIgeDE9IjkiIGlkPSJmOTBjZTNiOS05OTE2LTQ2ZDItOGZlZC0wMzc4YjNiMDRkZTYiPjxzdG9wIHN0b3AtY29sb3I9IiMwMDc4ZDQiIG9mZnNldD0iMCIvPjxzdG9wIHN0b3AtY29sb3I9IiM1ZWEwZWYiIG9mZnNldD0iMC43NzUiLz48L2xpbmVhckdyYWRpZW50PjxsaW5lYXJHcmFkaWVudCBncmFkaWVudFVuaXRzPSJ1c2VyU3BhY2VPblVzZSIgeTI9IjEwLjQ5NSIgeDI9IjkuMDE3IiB5MT0iOS41MTgiIHgxPSI5LjAxNyIgaWQ9ImIwZTI1YjViLTY5YmEtNDI2Mi1iODc0LTMzNDBkMWUzMTFmMCI+PHN0b3Agc3RvcC1jb2xvcj0iI2ZmZiIgb2Zmc2V0PSIwIi8+PHN0b3Agc3RvcC1vcGFjaXR5PSIwLjYiIHN0b3AtY29sb3I9IiNmZmYiIG9mZnNldD0iMSIvPjwvbGluZWFyR3JhZGllbnQ+PC9kZWZzPjxnIGlkPSJhMTAxZDNiZS05NDE4LTQyODItOTM3Mi02ODEyYjMwNDAxM2IiPjxwb2x5Z29uIGZpbGw9IiM5Y2ViZmYiIHBvaW50cz0iMTQuMjg4IDkuNDUzIDE0LjI4OCA5LjQ1OSAxNi45OTMgOS4zOTcgMTYuOTc0IDguNTUzIDE0LjI4NiA4LjYxNSAxNC4yODYgOC41OTkgMTIuMDQyIDguMzQxIDEyLjA0MiA1Ljg5OSAxMi4wMzYgNS44ODggMTMuNjI0IDEuODI2IDEyLjgzNiAxLjUyNCAxMS4yMzcgNS42MTMgMTEuMjM5IDUuNjE0IDkuNTIxIDcuNTk3IDYuODE1IDUuNTk3IDYuNzggNS41NjggNS4xOTggMS41MjQgNC40MSAxLjgyNiA2LjAxIDUuOTE2IDYuMDMxIDUuOTA4IDcuNDgyIDkuMDgzIDMuOTk2IDguNTk5IDMuOTc5IDguNjI3IDMuOTc5IDguNjE1IDEuMzA0IDguNTUzIDEuMjg0IDkuMzk3IDMuOTU5IDkuNDU5IDMuOTY2IDkuMTcgNS43MzMgOS43MzMgNi4wODQgMTAuOTIzIDYuMDUgMTIuMjkxIDQuNDUgMTYuMzggNS4yMzggMTYuNjgzIDYuODM4IDEyLjU5MyA2LjcwOCAxMi41NDMgNy45NjkgMTEuMzE5IDExLjI1NCAxMi4wOTYgMTEuNjY1IDEyLjQ0NCAxMS4yNzcgMTIuNTkzIDEyLjg3NiAxNi42ODMgMTMuNjY0IDE2LjM4IDEyLjA2NSAxMi4yOTEgMTIuMDM2IDEyLjMwMiAxMi4yNzEgMTAuNjAxIDE0LjI4OCA5LjQ1MyIvPjxwYXRoIGZpbGw9IiM4NmQ2MzMiIGQ9Ik0xOCw5LjAzN2ExLjI5NCwxLjI5NCwwLDEsMS0xLjI5NC0xLjI5NEExLjI5NCwxLjI5NCwwLDAsMSwxOCw5LjAzN1pNMS4yOTQsNy43NDNBMS4yOTQsMS4yOTQsMCwxLDAsMi41ODgsOS4wMzcsMS4yOTQsMS4yOTQsMCwwLDAsMS4yOTQsNy43NDNabTMuNDc5LDcuNjQ2YTEuMjk0LDEuMjk0LDAsMSwwLDEuMjkzLDEuMjk0QTEuMjk0LDEuMjk0LDAsMCwwLDQuNzczLDE1LjM4OVptOC42OCwwYTEuMjk0LDEuMjk0LDAsMSwwLDEuMjkzLDEuMjk0QTEuMjk0LDEuMjk0LDAsMCwwLDEzLjQ1MywxNS4zODlaTTQuNjMyLjAyNEExLjI5NCwxLjI5NCwwLDEsMCw1LjkyNiwxLjMxNywxLjI5MywxLjI5MywwLDAsMCw0LjYzMi4wMjRabTguOTE2LDBhMS4yOTQsMS4yOTQsMCwxLDAsMS4yOTMsMS4yOTNBMS4yOTMsMS4yOTMsMCwwLDAsMTMuNTQ4LjAyNFoiLz48cGF0aCBmaWxsPSJ1cmwoI2Y5MGNlM2I5LTk5MTYtNDZkMi04ZmVkLTAzNzhiM2IwNGRlNikiIGQ9Ik0zLjUzMyw3LjAxOUgxNC40NjdhMCwwLDAsMCwxLDAsMHY2LjFhLjM2NS4zNjUsMCwwLDEtLjM2NS4zNjVIMy45YS4zNjUuMzY1LDAsMCwxLS4zNjUtLjM2NXYtNi4xQTAsMCwwLDAsMSwzLjUzMyw3LjAxOVoiLz48cGF0aCBmaWxsPSIjMDA3OGQ0IiBkPSJNMy45LDQuNjg5SDE0LjFhLjM2NS4zNjUsMCwwLDEsLjM2NS4zNjVWNy4wMTlhMCwwLDAsMCwxLDAsMEgzLjUzNWEwLDAsMCwwLDEsMCwwVjUuMDU0QS4zNjUuMzY1LDAsMCwxLDMuOSw0LjY4OVoiLz48cGF0aCBmaWxsPSJ1cmwoI2IwZTI1YjViLTY5YmEtNDI2Mi1iODc0LTMzNDBkMWUzMTFmMCkiIGQ9Ik0xMC41Nyw5LjUxNWEuNDg3LjQ4NywwLDEsMS0uNDg3LjQ4N0EuNDg3LjQ4NywwLDAsMSwxMC41Nyw5LjUxNVptLTIuMDM5LjQ5MWEuNDg3LjQ4NywwLDEsMCwuNDg2LS40ODdBLjQ4Ny40ODcsMCwwLDAsOC41MzEsMTAuMDA2Wm0tMS41NTMsMGEuNDg3LjQ4NywwLDEsMCwuNDg3LS40ODdBLjQ4Ny40ODcsMCwwLDAsNi45NzgsMTAuMDA2WiIvPjxwYXRoIGZpbGw9IiNmZmYiIGQ9Ik03LjgxOCwxMS45NTJsLS4yNzguMjc5YS4xMjYuMTI2LDAsMCwxLS4xNzgsMGgwTDUuMywxMC4xNzVhLjI1MS4yNTEsMCwwLDEsMC0uMzU2aDBsLjI3OC0uMjc5aDBsMi4yNCwyLjIzNGEuMTI2LjEyNiwwLDAsMSwwLC4xNzhabTQuNjA1LTIuNDE2LTIuMjQsMi4yMzRoMGEuMTI1LjEyNSwwLDAsMCwwLC4xNzhsLjI3OS4yNzloMGEuMTI1LjEyNSwwLDAsMCwuMTc4LDBMMTIuNywxMC4xNzFoMGEuMjUyLjI1MiwwLDAsMCwwLS4zNTZsLS4yNzgtLjI3OVoiLz48cGF0aCBvcGFjaXR5PSIwLjgiIGZpbGw9IiNmZmYiIGQ9Ik03LjUsNy43ODZsLjI3OS4yNzhhLjEyNi4xMjYsMCwwLDEsMCwuMTc4bC0yLjIsMi4yMDhoMEw1LjMsMTAuMTcxYS4yNTEuMjUxLDAsMCwxLDAtLjM1NmgwTDcuMzIsNy43ODZBLjEyNi4xMjYsMCwwLDEsNy41LDcuNzg2Wm01LjIsMi4zNzloMGEuMjUxLjI1MSwwLDAsMCwwLS4zNTZMMTAuNjgsNy43OGgwYS4xMjYuMTI2LDAsMCwwLS4xNzgsMGwtLjI4Mi4yODJoMGEuMTI2LjEyNiwwLDAsMCwwLC4xNzhsMi4yLDIuMjA3aDBsLjI3OS0uMjc5WiIvPjwvZz48L3N2Zz4=;labelPosition=right;align=left;spacingRight=5;" vertex="1" parent="1">
          <mxGeometry x="-358" y="200" width="52" height="52" as="geometry" />
        </mxCell>
        <mxCell id="jtAOMeYENXQlWiB311Tr-2" value="IPSec&lt;div&gt;IKEv2&lt;/div&gt;&lt;div&gt;S2S&lt;/div&gt;&lt;div&gt;VPN&lt;/div&gt;" style="edgeStyle=orthogonalEdgeStyle;rounded=0;orthogonalLoop=1;jettySize=auto;html=1;startArrow=classic;startFill=1;" edge="1" parent="1" source="m9AoqNSjTn_4ks6ajbcC-2" target="m9AoqNSjTn_4ks6ajbcC-6">
          <mxGeometry relative="1" as="geometry" />
        </mxCell>
        <mxCell id="m9AoqNSjTn_4ks6ajbcC-2" value="Virtual hub&#xa;VPN gateway" style="shape=image;verticalLabelPosition=bottom;labelBackgroundColor=none;verticalAlign=top;aspect=fixed;imageAspect=0;editableCssRules=.*;image=data:image/svg+xml,PHN2ZyB4bWxucz0iaHR0cDovL3d3dy53My5vcmcvMjAwMC9zdmciIHZpZXdCb3g9IjAgMCAxOCAxOCIgaGVpZ2h0PSIxOCIgd2lkdGg9IjE4IiBpZD0iYjZmNzRjYTUtM2FlNi00MjZmLTllZjEtOWZmNmJiYWE3ZjFjIj48ZGVmcz48bGluZWFyR3JhZGllbnQgZ3JhZGllbnRVbml0cz0idXNlclNwYWNlT25Vc2UiIHkyPSIyMC4wNSIgeDI9IjkuMTIiIHkxPSItNy43OSIgeDE9IjguNTkiIGlkPSJiZDczMDVmOC04Nzg5LTQ2MDAtYTFmMi02NTk0ZTYwZWVmY2MiPjxzdG9wIHN0b3AtY29sb3I9IiMzMmQ0ZjUiIG9mZnNldD0iMC4yMiIvPjxzdG9wIHN0b3AtY29sb3I9IiMzMWQxZjMiIG9mZnNldD0iMC40NyIvPjxzdG9wIHN0b3AtY29sb3I9IiMyZWM5ZWIiIG9mZnNldD0iMC42MyIvPjxzdG9wIHN0b3AtY29sb3I9IiMyOWJhZGUiIG9mZnNldD0iMC43NyIvPjxzdG9wIHN0b3AtY29sb3I9IiMyMmE1Y2IiIG9mZnNldD0iMC44OSIvPjxzdG9wIHN0b3AtY29sb3I9IiMxOThhYjMiIG9mZnNldD0iMSIvPjxzdG9wIHN0b3AtY29sb3I9IiMxOThhYjMiIG9mZnNldD0iMSIvPjwvbGluZWFyR3JhZGllbnQ+PC9kZWZzPjx0aXRsZT5JY29uLW5ldHdvcmtpbmctNjM8L3RpdGxlPjxwYXRoIGZpbGw9InVybCgjYmQ3MzA1ZjgtODc4OS00NjAwLWExZjItNjU5NGU2MGVlZmNjKSIgZD0iTTE1LjA2LDguNjdoLTFWNS41OWE1LjgxLDUuODEsMCwwLDAtMS40OS0zLjkyQTQuNzksNC43OSwwLDAsMCw4LjkxLDBhNC43OSw0Ljc5LDAsMCwwLTMuNywxLjY3QTUuNzMsNS43MywwLDAsMCwzLjcyLDUuNTlWOC42N0gyLjkxYS43LjcsMCwwLDAtLjY5LjY5djhhLjcuNywwLDAsMCwuNjkuNjlIMTUuMDZhLjcxLjcxLDAsMCwwLC43LS42OVY5LjM2QS43MS43MSwwLDAsMCwxNS4wNiw4LjY3Wm0tMy4zNywwSDYuMTNWNS41NEEzLjE4LDMuMTgsMCwwLDEsNywzLjM5YTIuNTEsMi41MSwwLDAsMSwxLjg4LS44NiwyLjU0LDIuNTQsMCwwLDEsMS44OS44NiwzLjE5LDMuMTksMCwwLDEsLjMyLjQzaDBhMywzLDAsMCwxLC42MSwxLjcxWiIvPjxwYXRoIGZpbGw9IiM1MGU2ZmYiIGQ9Ik0xNS4wOSw4LjY3SDIuOTJhLjY2LjY2LDAsMCwwLS40NC4xN2wxMy4wNSw5YS42Ny42NywwLDAsMCwuMjUtLjUydi04QS43MS43MSwwLDAsMCwxNS4wOSw4LjY3WiIvPjxwYXRoIG9wYWNpdHk9IjAuMiIgZmlsbD0iI2ZmZiIgZD0iTTIuOTQsOC42N0gxNS4xYS43LjcsMCwwLDEsLjQ1LjE3bC0xMy4wNiw5YS43LjcsMCwwLDEtLjI1LS41MnYtOEEuNzIuNzIsMCwwLDEsMi45NCw4LjY3WiIvPjxwYXRoIGZpbGw9IiNmZmYiIGQ9Ik03LjgsMTAuNiw5LDkuNGEuMDcuMDcsMCwwLDEsLjA5LDBsMS4xOSwxLjJhLjA2LjA2LDAsMCwxLDAsLjFoLS43YS4wNi4wNiwwLDAsMC0uMDYuMDZWMTIuM2EuMDYuMDYsMCwwLDEtLjA2LjA2SDguNjdhLjA1LjA1LDAsMCwxLS4wNi0uMDZWMTAuNzZhLjA3LjA3LDAsMCwwLS4wNy0uMDZoLS43QS4wNi4wNiwwLDAsMSw3LjgsMTAuNlptMi40Nyw1LjQ4TDkuMDgsMTcuMjdhLjA2LjA2LDAsMCwxLS4wOSwwTDcuOCwxNi4wOGEuMDYuMDYsMCwwLDEsMC0uMWguN2EuMDcuMDcsMCwwLDAsLjA3LS4wNlYxNC4zN2EuMDYuMDYsMCwwLDEsLjA2LS4wNmguNzRhLjA2LjA2LDAsMCwxLC4wNi4wNnYxLjU1YS4wNi4wNiwwLDAsMCwuMDYuMDZoLjdBLjA2LjA2LDAsMCwxLDEwLjI3LDE2LjA4Wm0tNC43LTEuNTV2LS43YS4wNi4wNiwwLDAsMC0uMDYtLjA2SDRhLjA2LjA2LDAsMCwxLS4wNi0uMDZWMTNBLjA2LjA2LDAsMCwxLDQsMTIuOTFINS41MWEuMDYuMDYsMCwwLDAsLjA2LS4wNnYtLjdhLjA3LjA3LDAsMCwxLC4xMS0uMDVsMS4xOSwxLjJhLjA2LjA2LDAsMCwxLDAsLjA4bC0xLjE5LDEuMkEuMDcuMDcsMCwwLDEsNS41NywxNC41M1ptNi45My0yLjM4di43YS4wNi4wNiwwLDAsMCwuMDYuMDZIMTQuMXMuMDcsMCwuMDcuMDZ2Ljc0YS4wNy4wNywwLDAsMS0uMDcuMDZIMTIuNTZhLjA2LjA2LDAsMCwwLS4wNi4wNnYuN2EuMDYuMDYsMCwwLDEtLjEuMDVsLTEuMTktMS4yYTAsMCwwLDAsMSwwLS4wOGwxLjE5LTEuMlMxMi41LDEyLjA5LDEyLjUsMTIuMTVaIi8+PC9zdmc+;" vertex="1" parent="1">
          <mxGeometry x="-180" y="208" width="36" height="36" as="geometry" />
        </mxCell>
        <mxCell id="m9AoqNSjTn_4ks6ajbcC-5" value="Azure VPN&#xa;gateway" style="shape=image;verticalLabelPosition=middle;labelBackgroundColor=none;verticalAlign=middle;aspect=fixed;imageAspect=0;editableCssRules=.*;image=data:image/svg+xml,PHN2ZyB4bWxucz0iaHR0cDovL3d3dy53My5vcmcvMjAwMC9zdmciIHZpZXdCb3g9IjAgMCAxOCAxOCIgaGVpZ2h0PSIxOCIgd2lkdGg9IjE4IiBpZD0iYjZmNzRjYTUtM2FlNi00MjZmLTllZjEtOWZmNmJiYWE3ZjFjIj48ZGVmcz48bGluZWFyR3JhZGllbnQgZ3JhZGllbnRVbml0cz0idXNlclNwYWNlT25Vc2UiIHkyPSIyMC4wNSIgeDI9IjkuMTIiIHkxPSItNy43OSIgeDE9IjguNTkiIGlkPSJiZDczMDVmOC04Nzg5LTQ2MDAtYTFmMi02NTk0ZTYwZWVmY2MiPjxzdG9wIHN0b3AtY29sb3I9IiMzMmQ0ZjUiIG9mZnNldD0iMC4yMiIvPjxzdG9wIHN0b3AtY29sb3I9IiMzMWQxZjMiIG9mZnNldD0iMC40NyIvPjxzdG9wIHN0b3AtY29sb3I9IiMyZWM5ZWIiIG9mZnNldD0iMC42MyIvPjxzdG9wIHN0b3AtY29sb3I9IiMyOWJhZGUiIG9mZnNldD0iMC43NyIvPjxzdG9wIHN0b3AtY29sb3I9IiMyMmE1Y2IiIG9mZnNldD0iMC44OSIvPjxzdG9wIHN0b3AtY29sb3I9IiMxOThhYjMiIG9mZnNldD0iMSIvPjxzdG9wIHN0b3AtY29sb3I9IiMxOThhYjMiIG9mZnNldD0iMSIvPjwvbGluZWFyR3JhZGllbnQ+PC9kZWZzPjx0aXRsZT5JY29uLW5ldHdvcmtpbmctNjM8L3RpdGxlPjxwYXRoIGZpbGw9InVybCgjYmQ3MzA1ZjgtODc4OS00NjAwLWExZjItNjU5NGU2MGVlZmNjKSIgZD0iTTE1LjA2LDguNjdoLTFWNS41OWE1LjgxLDUuODEsMCwwLDAtMS40OS0zLjkyQTQuNzksNC43OSwwLDAsMCw4LjkxLDBhNC43OSw0Ljc5LDAsMCwwLTMuNywxLjY3QTUuNzMsNS43MywwLDAsMCwzLjcyLDUuNTlWOC42N0gyLjkxYS43LjcsMCwwLDAtLjY5LjY5djhhLjcuNywwLDAsMCwuNjkuNjlIMTUuMDZhLjcxLjcxLDAsMCwwLC43LS42OVY5LjM2QS43MS43MSwwLDAsMCwxNS4wNiw4LjY3Wm0tMy4zNywwSDYuMTNWNS41NEEzLjE4LDMuMTgsMCwwLDEsNywzLjM5YTIuNTEsMi41MSwwLDAsMSwxLjg4LS44NiwyLjU0LDIuNTQsMCwwLDEsMS44OS44NiwzLjE5LDMuMTksMCwwLDEsLjMyLjQzaDBhMywzLDAsMCwxLC42MSwxLjcxWiIvPjxwYXRoIGZpbGw9IiM1MGU2ZmYiIGQ9Ik0xNS4wOSw4LjY3SDIuOTJhLjY2LjY2LDAsMCwwLS40NC4xN2wxMy4wNSw5YS42Ny42NywwLDAsMCwuMjUtLjUydi04QS43MS43MSwwLDAsMCwxNS4wOSw4LjY3WiIvPjxwYXRoIG9wYWNpdHk9IjAuMiIgZmlsbD0iI2ZmZiIgZD0iTTIuOTQsOC42N0gxNS4xYS43LjcsMCwwLDEsLjQ1LjE3bC0xMy4wNiw5YS43LjcsMCwwLDEtLjI1LS41MnYtOEEuNzIuNzIsMCwwLDEsMi45NCw4LjY3WiIvPjxwYXRoIGZpbGw9IiNmZmYiIGQ9Ik03LjgsMTAuNiw5LDkuNGEuMDcuMDcsMCwwLDEsLjA5LDBsMS4xOSwxLjJhLjA2LjA2LDAsMCwxLDAsLjFoLS43YS4wNi4wNiwwLDAsMC0uMDYuMDZWMTIuM2EuMDYuMDYsMCwwLDEtLjA2LjA2SDguNjdhLjA1LjA1LDAsMCwxLS4wNi0uMDZWMTAuNzZhLjA3LjA3LDAsMCwwLS4wNy0uMDZoLS43QS4wNi4wNiwwLDAsMSw3LjgsMTAuNlptMi40Nyw1LjQ4TDkuMDgsMTcuMjdhLjA2LjA2LDAsMCwxLS4wOSwwTDcuOCwxNi4wOGEuMDYuMDYsMCwwLDEsMC0uMWguN2EuMDcuMDcsMCwwLDAsLjA3LS4wNlYxNC4zN2EuMDYuMDYsMCwwLDEsLjA2LS4wNmguNzRhLjA2LjA2LDAsMCwxLC4wNi4wNnYxLjU1YS4wNi4wNiwwLDAsMCwuMDYuMDZoLjdBLjA2LjA2LDAsMCwxLDEwLjI3LDE2LjA4Wm0tNC43LTEuNTV2LS43YS4wNi4wNiwwLDAsMC0uMDYtLjA2SDRhLjA2LjA2LDAsMCwxLS4wNi0uMDZWMTNBLjA2LjA2LDAsMCwxLDQsMTIuOTFINS41MWEuMDYuMDYsMCwwLDAsLjA2LS4wNnYtLjdhLjA3LjA3LDAsMCwxLC4xMS0uMDVsMS4xOSwxLjJhLjA2LjA2LDAsMCwxLDAsLjA4bC0xLjE5LDEuMkEuMDcuMDcsMCwwLDEsNS41NywxNC41M1ptNi45My0yLjM4di43YS4wNi4wNiwwLDAsMCwuMDYuMDZIMTQuMXMuMDcsMCwuMDcuMDZ2Ljc0YS4wNy4wNywwLDAsMS0uMDcuMDZIMTIuNTZhLjA2LjA2LDAsMCwwLS4wNi4wNnYuN2EuMDYuMDYsMCwwLDEtLjEuMDVsLTEuMTktMS4yYTAsMCwwLDAsMSwwLS4wOGwxLjE5LTEuMlMxMi41LDEyLjA5LDEyLjUsMTIuMTVaIi8+PC9zdmc+;labelPosition=right;align=left;fontStyle=1" vertex="1" parent="1">
          <mxGeometry x="-10" y="131" width="36" height="36" as="geometry" />
        </mxCell>
        <mxCell id="m9AoqNSjTn_4ks6ajbcC-6" value="" style="shape=image;verticalLabelPosition=bottom;labelBackgroundColor=default;verticalAlign=top;aspect=fixed;imageAspect=0;editableCssRules=.*;image=data:image/svg+xml,PHN2ZyB4bWxucz0iaHR0cDovL3d3dy53My5vcmcvMjAwMC9zdmciIHZpZXdCb3g9IjAgMCAxOCAxOCIgaGVpZ2h0PSIxOCIgd2lkdGg9IjE4IiBpZD0iYjIyNjc4ZjItNjA0ZC00N2JjLWI0MTktMTE2Yjk2MWUwZDA3Ij48ZGVmcz48bGluZWFyR3JhZGllbnQgZ3JhZGllbnRVbml0cz0idXNlclNwYWNlT25Vc2UiIGdyYWRpZW50VHJhbnNmb3JtPSJ0cmFuc2xhdGUoOSAtMy43Mykgcm90YXRlKDQ1KSIgeTI9IjEuODIiIHgyPSI5IiB5MT0iMTcuNzkiIHgxPSI5IiBpZD0iYjFhNDk3YmMtMjg4Ni00ZTIyLWIyMzAtOTE4YTM2NDQ0YzNlIj48c3RvcCBzdG9wLWNvbG9yPSIjMjU4Mjc3IiBvZmZzZXQ9IjAiLz48c3RvcCBzdG9wLWNvbG9yPSIjNDlhNDk4IiBvZmZzZXQ9IjAuNDIiLz48c3RvcCBzdG9wLWNvbG9yPSIjNjBiYWFkIiBvZmZzZXQ9IjAuNzgiLz48c3RvcCBzdG9wLWNvbG9yPSIjNjhjMmI1IiBvZmZzZXQ9IjEiLz48L2xpbmVhckdyYWRpZW50PjwvZGVmcz48dGl0bGU+SWNvbi1uZXR3b3JraW5nLTc3PC90aXRsZT48cmVjdCBmaWxsPSJ1cmwoI2IxYTQ5N2JjLTI4ODYtNGUyMi1iMjMwLTkxOGEzNjQ0NGMzZSkiIHRyYW5zZm9ybT0idHJhbnNsYXRlKC0zLjczIDkpIHJvdGF0ZSgtNDUpIiByeD0iMC41NyIgaGVpZ2h0PSIxMi4zNSIgd2lkdGg9IjEyLjM1IiB5PSIyLjgyIiB4PSIyLjgyIi8+PHBhdGggZmlsbD0iI2ZmZiIgZD0iTTcuMDUsNC42OCw4LjkzLDIuOGEuMS4xLDAsMCwxLC4xNCwwTDExLDQuNjhhLjA5LjA5LDAsMCwxLS4wNy4xNkg5Ljc4YS4xLjEsMCwwLDAtLjEuMVY3LjM3YS4wOS4wOSwwLDAsMS0uMDkuMDlIOC40MmEuMDkuMDksMCwwLDEtLjEtLjA5VjQuOTRhLjEuMSwwLDAsMC0uMDktLjFINy4xMkEuMS4xLDAsMCwxLDcuMDUsNC42OFpNMTEsMTMuMzIsOS4wNywxNS4yYS4xLjEsMCwwLDEtLjE0LDBMNy4wNSwxMy4zMmEuMS4xLDAsMCwxLC4wNy0uMTZIOC4yM2EuMS4xLDAsMCwwLC4wOS0uMVYxMC42M2EuMDkuMDksMCwwLDEsLjEtLjA5SDkuNTlhLjA5LjA5LDAsMCwxLC4wOS4wOXYyLjQzYS4xLjEsMCwwLDAsLjEuMWgxLjFBLjA5LjA5LDAsMCwxLDExLDEzLjMyWk01LjM0LDEwLjg0VjkuNzRhLjExLjExLDAsMCwwLS4xLS4xSDIuODFhLjEuMSwwLDAsMS0uMS0uMDlWOC4zOGEuMTEuMTEsMCwwLDEsLjEtLjFINS4yNGEuMS4xLDAsMCwwLC4xLS4wOVY3LjA4QS4wOS4wOSwwLDAsMSw1LjUsN0w3LjM4LDguOWEuMDkuMDksMCwwLDEsMCwuMTNMNS41LDEwLjkxQS4wOS4wOSwwLDAsMSw1LjM0LDEwLjg0Wm03LjMyLTMuNzZWOC4xOWEuMS4xLDAsMCwwLC4xLjA5aDIuNDNhLjExLjExLDAsMCwxLC4xLjFWOS41NWEuMS4xLDAsMCwxLS4xLjA5SDEyLjc2YS4xMS4xMSwwLDAsMC0uMS4xdjEuMWEuMDkuMDksMCwwLDEtLjE2LjA3TDEwLjYyLDlhLjA5LjA5LDAsMCwxLDAtLjEzTDEyLjUsN0EuMDkuMDksMCwwLDEsMTIuNjYsNy4wOFoiLz48L3N2Zz4=;" vertex="1" parent="1">
          <mxGeometry x="29" y="209" width="35" height="35" as="geometry" />
        </mxCell>
        <mxCell id="jtAOMeYENXQlWiB311Tr-1" value="&lt;div&gt;&lt;div&gt;&lt;br&gt;&lt;/div&gt;&lt;/div&gt;" style="image;sketch=0;aspect=fixed;html=1;points=[];align=right;fontSize=12;image=img/lib/mscae/Virtual_Network.svg;labelPosition=left;verticalLabelPosition=middle;verticalAlign=middle;spacingRight=5;" vertex="1" parent="1">
          <mxGeometry x="223" y="299" width="39.29" height="22" as="geometry" />
        </mxCell>
      </root>
    </mxGraphModel>
  </diagram>
</mxfile>
